<svg width="1178" height="590" viewBox="0 0 1178 590" fill="none" xmlns="http://www.w3.org/2000/svg">
<path d="M7.68 363.288C7.68 359.576 9.856 357.4 13.568 357.4H18.688C22.528 357.4 24.576 359.576 24.576 363.288V390.168C24.576 392.344 25.856 393.496 27.904 393.496H55.552C57.6 393.496 58.88 392.216 58.88 390.168V363.288C58.88 359.448 61.056 357.4 64.768 357.4H69.888C73.728 357.4 75.776 359.576 75.776 363.288V441.112C75.776 444.952 73.6 447 69.888 447H64.768C60.928 447 58.88 444.824 58.88 441.112V412.312C58.88 410.136 57.6 408.984 55.552 408.984H27.904C25.856 408.984 24.576 410.264 24.576 412.312V441.112C24.576 444.824 22.4 447 18.688 447H13.568C9.728 447 7.68 444.824 7.68 441.112V363.288ZM100.903 442.392C99.751 445.464 97.447 447 94.119 447H88.231C83.879 447 81.959 444.312 83.623 440.216L114.983 362.008C116.263 358.936 118.439 357.4 121.767 357.4H124.199C127.527 357.4 129.703 358.68 130.983 361.88L164.263 440.088C165.927 444.184 164.135 447 159.783 447H154.023C150.695 447 148.391 445.592 147.111 442.392L144.295 435.352C143.655 433.56 142.375 432.792 140.455 432.792H107.431C105.511 432.792 104.231 433.56 103.591 435.352L100.903 442.392ZM111.527 413.592C110.631 415.896 111.655 417.432 114.087 417.432H133.031C135.463 417.432 136.487 415.896 135.591 413.592L125.479 389.144C124.327 386.456 122.023 386.328 120.999 389.144L111.527 413.592ZM180.818 447C177.106 447 174.93 444.824 174.93 441.112V363.288C174.93 359.448 177.106 357.4 180.818 357.4H187.218C190.418 357.4 192.466 358.68 194.13 361.368L222.162 409.112C223.826 412.056 226.13 411.16 226.13 407.96V363.288C226.13 359.448 228.306 357.4 232.018 357.4H237.138C240.978 357.4 243.026 359.576 243.026 363.288V441.112C243.026 444.952 240.85 447 237.138 447H230.738C227.538 447 225.362 445.848 223.698 443.16L195.922 398.872C194.258 396.184 191.826 396.824 191.826 400.024V441.112C191.826 444.824 189.65 447 185.938 447H180.818ZM264.318 447C260.606 447 258.43 444.824 258.43 441.112V363.288C258.43 359.448 260.606 357.4 264.318 357.4H281.214C314.11 357.4 326.526 376.728 326.526 401.944C326.526 425.496 313.982 446.616 281.214 447.128L264.318 447ZM275.326 426.648C275.326 428.696 276.478 429.976 278.654 429.976C280.702 429.976 282.878 429.976 282.878 429.976C318.206 429.976 318.334 373.912 283.39 373.912L278.654 374.04C276.606 374.04 275.326 375.32 275.326 377.368V426.648ZM376.979 448.536C353.043 448.536 333.715 427.8 333.715 402.2C333.715 376.728 353.043 355.992 376.979 355.992C390.547 355.992 402.707 362.776 410.643 373.272C413.203 376.728 411.795 379.672 407.699 380.952L403.987 382.104C400.787 383.128 398.483 382.104 396.179 379.672C391.315 374.68 384.787 371.48 377.619 371.48C362.771 371.48 350.483 385.944 350.483 402.328C350.483 418.84 362.771 433.176 377.619 433.176C385.811 433.176 392.083 428.824 396.691 422.296C398.611 419.48 400.787 418.328 403.987 418.712L407.955 419.096C411.923 419.48 414.099 421.4 413.331 423.96C409.235 435.864 396.563 448.536 376.979 448.536ZM452.584 357.4C474.216 357.4 485.096 369.432 485.096 388.376C485.096 399.128 481.128 407.32 473.448 412.312C471.528 413.72 471.4 415 473.192 416.536C480.616 422.68 484.456 432.152 485.736 440.984C486.376 444.824 483.944 447 480.104 447H476.136C472.552 447 470.76 445.08 469.992 441.496C468.072 432.152 461.16 420.248 446.696 418.2L445.032 418.072C442.856 417.944 441.576 419.224 441.576 421.4V441.112C441.576 444.824 439.4 447 435.688 447H430.568C426.728 447 424.68 444.824 424.68 441.112V363.288C424.68 359.448 426.856 357.4 430.568 357.4H452.584ZM452.2 403.224C474.344 403.224 474.344 372.888 453.352 372.888H444.904C442.856 372.888 441.576 374.168 441.576 376.216V399.896C441.576 401.944 442.856 403.224 444.904 403.224H452.2ZM512.653 442.392C511.501 445.464 509.197 447 505.869 447H499.981C495.629 447 493.709 444.312 495.373 440.216L526.733 362.008C528.013 358.936 530.189 357.4 533.517 357.4H535.949C539.277 357.4 541.453 358.68 542.733 361.88L576.013 440.088C577.677 444.184 575.885 447 571.533 447H565.773C562.445 447 560.141 445.592 558.861 442.392L556.045 435.352C555.405 433.56 554.125 432.792 552.205 432.792H519.181C517.261 432.792 515.981 433.56 515.341 435.352L512.653 442.392ZM523.277 413.592C522.381 415.896 523.405 417.432 525.837 417.432H544.781C547.213 417.432 548.237 415.896 547.341 413.592L537.229 389.144C536.077 386.456 533.773 386.328 532.749 389.144L523.277 413.592ZM592.568 447C588.856 447 586.68 444.824 586.68 441.112V363.288C586.68 359.448 588.856 357.4 592.568 357.4H598.968C602.168 357.4 604.216 358.68 605.88 361.368L633.912 409.112C635.576 412.056 637.88 411.16 637.88 407.96V363.288C637.88 359.448 640.056 357.4 643.768 357.4H648.888C652.728 357.4 654.776 359.576 654.776 363.288V441.112C654.776 444.952 652.6 447 648.888 447H642.488C639.288 447 637.112 445.848 635.448 443.16L607.672 398.872C606.008 396.184 603.576 396.824 603.576 400.024V441.112C603.576 444.824 601.4 447 597.688 447H592.568ZM670.18 363.288C670.18 359.576 672.356 357.4 676.068 357.4H681.188C685.028 357.4 687.076 359.576 687.076 363.288V388.248C687.076 390.424 688.356 391.704 690.532 391.32C703.844 389.144 710.372 377.24 711.268 363.288C711.524 359.448 713.572 357.4 717.284 357.4H722.404C726.244 357.4 728.292 359.448 728.164 363.416C727.524 376.984 724.452 388.632 713.316 397.336C711.524 398.744 711.396 400.28 713.316 401.816C724.836 411.288 729.188 422.296 730.34 440.856C730.596 444.824 728.42 447 724.58 447H719.46C715.748 447 713.828 444.952 713.444 441.112C711.78 421.272 702.052 411.16 690.66 408.344C688.484 407.832 687.076 409.112 687.076 411.416V441.112C687.076 444.952 684.9 447 681.188 447H676.068C672.228 447 670.18 444.824 670.18 441.112V363.288ZM767.68 363.288C767.68 359.576 769.856 357.4 773.568 357.4H811.2C815.04 357.4 817.088 359.576 817.088 363.288V367C817.088 370.84 814.912 372.888 811.2 372.888H787.904C785.856 372.888 784.576 374.168 784.576 376.216V389.912C784.576 391.96 785.856 393.24 787.904 393.24H808.64C812.48 393.24 814.528 395.416 814.528 399.128V402.84C814.528 406.68 812.352 408.728 808.64 408.728H787.904C785.856 408.728 784.576 410.008 784.576 412.056V428.184C784.576 430.36 785.856 431.512 787.904 431.512H811.2C815.04 431.512 817.088 433.688 817.088 437.4V441.112C817.088 444.952 814.912 447 811.2 447H773.568C769.728 447 767.68 444.824 767.68 441.112V363.288ZM837.068 447C833.356 447 831.18 444.824 831.18 441.112V363.288C831.18 359.448 833.356 357.4 837.068 357.4H843.468C846.668 357.4 848.716 358.68 850.38 361.368L878.412 409.112C880.076 412.056 882.38 411.16 882.38 407.96V363.288C882.38 359.448 884.556 357.4 888.268 357.4H893.388C897.228 357.4 899.276 359.576 899.276 363.288V441.112C899.276 444.952 897.1 447 893.388 447H886.988C883.788 447 881.612 445.848 879.948 443.16L852.172 398.872C850.508 396.184 848.076 396.824 848.076 400.024V441.112C848.076 444.824 845.9 447 842.188 447H837.068ZM953.524 448.536C927.668 448.536 908.34 427.8 908.34 402.2C908.34 376.728 927.668 355.992 951.604 355.992C965.172 355.992 977.332 362.776 985.268 373.272C987.828 376.728 986.292 379.8 982.324 380.952L977.844 382.36C974.644 383.384 972.34 382.36 970.036 379.928C965.3 375.064 958.772 371.864 951.86 371.864C937.268 371.864 925.108 386.2 925.108 402.328C925.108 418.584 937.268 432.792 954.036 432.792C967.348 432.792 974.516 426.136 977.844 418.968C978.868 416.664 977.588 415.128 975.156 415.128H958.388C954.548 415.128 952.5 412.952 952.5 409.24V405.528C952.5 401.688 954.676 399.64 958.388 399.64H988.468C996.02 399.64 994.484 399.896 994.484 417.304C994.484 430.744 976.82 448.536 953.524 448.536ZM1004.93 363.288C1004.93 359.576 1007.11 357.4 1010.82 357.4H1015.94C1019.78 357.4 1021.83 359.576 1021.83 363.288V441.112C1021.83 444.952 1019.65 447 1015.94 447H1010.82C1006.98 447 1004.93 444.824 1004.93 441.112V363.288ZM1043.07 447C1039.36 447 1037.18 444.824 1037.18 441.112V363.288C1037.18 359.448 1039.36 357.4 1043.07 357.4H1049.47C1052.67 357.4 1054.72 358.68 1056.38 361.368L1084.41 409.112C1086.08 412.056 1088.38 411.16 1088.38 407.96V363.288C1088.38 359.448 1090.56 357.4 1094.27 357.4H1099.39C1103.23 357.4 1105.28 359.576 1105.28 363.288V441.112C1105.28 444.952 1103.1 447 1099.39 447H1092.99C1089.79 447 1087.61 445.848 1085.95 443.16L1058.17 398.872C1056.51 396.184 1054.08 396.824 1054.08 400.024V441.112C1054.08 444.824 1051.9 447 1048.19 447H1043.07ZM1120.68 363.288C1120.68 359.576 1122.86 357.4 1126.57 357.4H1164.2C1168.04 357.4 1170.09 359.576 1170.09 363.288V367C1170.09 370.84 1167.91 372.888 1164.2 372.888H1140.9C1138.86 372.888 1137.58 374.168 1137.58 376.216V389.912C1137.58 391.96 1138.86 393.24 1140.9 393.24H1161.64C1165.48 393.24 1167.53 395.416 1167.53 399.128V402.84C1167.53 406.68 1165.35 408.728 1161.64 408.728H1140.9C1138.86 408.728 1137.58 410.008 1137.58 412.056V428.184C1137.58 430.36 1138.86 431.512 1140.9 431.512H1164.2C1168.04 431.512 1170.09 433.688 1170.09 437.4V441.112C1170.09 444.952 1167.91 447 1164.2 447H1126.57C1122.73 447 1120.68 444.824 1120.68 441.112V363.288Z" fill="#05DDEA"/>
<g opacity="0.5">
<path d="M7.68 261.288C7.68 257.576 9.856 255.4 13.568 255.4H18.688C22.528 255.4 24.576 257.576 24.576 261.288V288.168C24.576 290.344 25.856 291.496 27.904 291.496H55.552C57.6 291.496 58.88 290.216 58.88 288.168V261.288C58.88 257.448 61.056 255.4 64.768 255.4H69.888C73.728 255.4 75.776 257.576 75.776 261.288V339.112C75.776 342.952 73.6 345 69.888 345H64.768C60.928 345 58.88 342.824 58.88 339.112V310.312C58.88 308.136 57.6 306.984 55.552 306.984H27.904C25.856 306.984 24.576 308.264 24.576 310.312V339.112C24.576 342.824 22.4 345 18.688 345H13.568C9.728 345 7.68 342.824 7.68 339.112V261.288ZM100.903 340.392C99.751 343.464 97.447 345 94.119 345H88.231C83.879 345 81.959 342.312 83.623 338.216L114.983 260.008C116.263 256.936 118.439 255.4 121.767 255.4H124.199C127.527 255.4 129.703 256.68 130.983 259.88L164.263 338.088C165.927 342.184 164.135 345 159.783 345H154.023C150.695 345 148.391 343.592 147.111 340.392L144.295 333.352C143.655 331.56 142.375 330.792 140.455 330.792H107.431C105.511 330.792 104.231 331.56 103.591 333.352L100.903 340.392ZM111.527 311.592C110.631 313.896 111.655 315.432 114.087 315.432H133.031C135.463 315.432 136.487 313.896 135.591 311.592L125.479 287.144C124.327 284.456 122.023 284.328 120.999 287.144L111.527 311.592ZM180.818 345C177.106 345 174.93 342.824 174.93 339.112V261.288C174.93 257.448 177.106 255.4 180.818 255.4H187.218C190.418 255.4 192.466 256.68 194.13 259.368L222.162 307.112C223.826 310.056 226.13 309.16 226.13 305.96V261.288C226.13 257.448 228.306 255.4 232.018 255.4H237.138C240.978 255.4 243.026 257.576 243.026 261.288V339.112C243.026 342.952 240.85 345 237.138 345H230.738C227.538 345 225.362 343.848 223.698 341.16L195.922 296.872C194.258 294.184 191.826 294.824 191.826 298.024V339.112C191.826 342.824 189.65 345 185.938 345H180.818ZM264.318 345C260.606 345 258.43 342.824 258.43 339.112V261.288C258.43 257.448 260.606 255.4 264.318 255.4H281.214C314.11 255.4 326.526 274.728 326.526 299.944C326.526 323.496 313.982 344.616 281.214 345.128L264.318 345ZM275.326 324.648C275.326 326.696 276.478 327.976 278.654 327.976C280.702 327.976 282.878 327.976 282.878 327.976C318.206 327.976 318.334 271.912 283.39 271.912L278.654 272.04C276.606 272.04 275.326 273.32 275.326 275.368V324.648ZM376.979 346.536C353.043 346.536 333.715 325.8 333.715 300.2C333.715 274.728 353.043 253.992 376.979 253.992C390.547 253.992 402.707 260.776 410.643 271.272C413.203 274.728 411.795 277.672 407.699 278.952L403.987 280.104C400.787 281.128 398.483 280.104 396.179 277.672C391.315 272.68 384.787 269.48 377.619 269.48C362.771 269.48 350.483 283.944 350.483 300.328C350.483 316.84 362.771 331.176 377.619 331.176C385.811 331.176 392.083 326.824 396.691 320.296C398.611 317.48 400.787 316.328 403.987 316.712L407.955 317.096C411.923 317.48 414.099 319.4 413.331 321.96C409.235 333.864 396.563 346.536 376.979 346.536ZM452.584 255.4C474.216 255.4 485.096 267.432 485.096 286.376C485.096 297.128 481.128 305.32 473.448 310.312C471.528 311.72 471.4 313 473.192 314.536C480.616 320.68 484.456 330.152 485.736 338.984C486.376 342.824 483.944 345 480.104 345H476.136C472.552 345 470.76 343.08 469.992 339.496C468.072 330.152 461.16 318.248 446.696 316.2L445.032 316.072C442.856 315.944 441.576 317.224 441.576 319.4V339.112C441.576 342.824 439.4 345 435.688 345H430.568C426.728 345 424.68 342.824 424.68 339.112V261.288C424.68 257.448 426.856 255.4 430.568 255.4H452.584ZM452.2 301.224C474.344 301.224 474.344 270.888 453.352 270.888H444.904C442.856 270.888 441.576 272.168 441.576 274.216V297.896C441.576 299.944 442.856 301.224 444.904 301.224H452.2ZM512.653 340.392C511.501 343.464 509.197 345 505.869 345H499.981C495.629 345 493.709 342.312 495.373 338.216L526.733 260.008C528.013 256.936 530.189 255.4 533.517 255.4H535.949C539.277 255.4 541.453 256.68 542.733 259.88L576.013 338.088C577.677 342.184 575.885 345 571.533 345H565.773C562.445 345 560.141 343.592 558.861 340.392L556.045 333.352C555.405 331.56 554.125 330.792 552.205 330.792H519.181C517.261 330.792 515.981 331.56 515.341 333.352L512.653 340.392ZM523.277 311.592C522.381 313.896 523.405 315.432 525.837 315.432H544.781C547.213 315.432 548.237 313.896 547.341 311.592L537.229 287.144C536.077 284.456 533.773 284.328 532.749 287.144L523.277 311.592ZM592.568 345C588.856 345 586.68 342.824 586.68 339.112V261.288C586.68 257.448 588.856 255.4 592.568 255.4H598.968C602.168 255.4 604.216 256.68 605.88 259.368L633.912 307.112C635.576 310.056 637.88 309.16 637.88 305.96V261.288C637.88 257.448 640.056 255.4 643.768 255.4H648.888C652.728 255.4 654.776 257.576 654.776 261.288V339.112C654.776 342.952 652.6 345 648.888 345H642.488C639.288 345 637.112 343.848 635.448 341.16L607.672 296.872C606.008 294.184 603.576 294.824 603.576 298.024V339.112C603.576 342.824 601.4 345 597.688 345H592.568ZM670.18 261.288C670.18 257.576 672.356 255.4 676.068 255.4H681.188C685.028 255.4 687.076 257.576 687.076 261.288V286.248C687.076 288.424 688.356 289.704 690.532 289.32C703.844 287.144 710.372 275.24 711.268 261.288C711.524 257.448 713.572 255.4 717.284 255.4H722.404C726.244 255.4 728.292 257.448 728.164 261.416C727.524 274.984 724.452 286.632 713.316 295.336C711.524 296.744 711.396 298.28 713.316 299.816C724.836 309.288 729.188 320.296 730.34 338.856C730.596 342.824 728.42 345 724.58 345H719.46C715.748 345 713.828 342.952 713.444 339.112C711.78 319.272 702.052 309.16 690.66 306.344C688.484 305.832 687.076 307.112 687.076 309.416V339.112C687.076 342.952 684.9 345 681.188 345H676.068C672.228 345 670.18 342.824 670.18 339.112V261.288ZM767.68 261.288C767.68 257.576 769.856 255.4 773.568 255.4H811.2C815.04 255.4 817.088 257.576 817.088 261.288V265C817.088 268.84 814.912 270.888 811.2 270.888H787.904C785.856 270.888 784.576 272.168 784.576 274.216V287.912C784.576 289.96 785.856 291.24 787.904 291.24H808.64C812.48 291.24 814.528 293.416 814.528 297.128V300.84C814.528 304.68 812.352 306.728 808.64 306.728H787.904C785.856 306.728 784.576 308.008 784.576 310.056V326.184C784.576 328.36 785.856 329.512 787.904 329.512H811.2C815.04 329.512 817.088 331.688 817.088 335.4V339.112C817.088 342.952 814.912 345 811.2 345H773.568C769.728 345 767.68 342.824 767.68 339.112V261.288ZM837.068 345C833.356 345 831.18 342.824 831.18 339.112V261.288C831.18 257.448 833.356 255.4 837.068 255.4H843.468C846.668 255.4 848.716 256.68 850.38 259.368L878.412 307.112C880.076 310.056 882.38 309.16 882.38 305.96V261.288C882.38 257.448 884.556 255.4 888.268 255.4H893.388C897.228 255.4 899.276 257.576 899.276 261.288V339.112C899.276 342.952 897.1 345 893.388 345H886.988C883.788 345 881.612 343.848 879.948 341.16L852.172 296.872C850.508 294.184 848.076 294.824 848.076 298.024V339.112C848.076 342.824 845.9 345 842.188 345H837.068ZM953.524 346.536C927.668 346.536 908.34 325.8 908.34 300.2C908.34 274.728 927.668 253.992 951.604 253.992C965.172 253.992 977.332 260.776 985.268 271.272C987.828 274.728 986.292 277.8 982.324 278.952L977.844 280.36C974.644 281.384 972.34 280.36 970.036 277.928C965.3 273.064 958.772 269.864 951.86 269.864C937.268 269.864 925.108 284.2 925.108 300.328C925.108 316.584 937.268 330.792 954.036 330.792C967.348 330.792 974.516 324.136 977.844 316.968C978.868 314.664 977.588 313.128 975.156 313.128H958.388C954.548 313.128 952.5 310.952 952.5 307.24V303.528C952.5 299.688 954.676 297.64 958.388 297.64H988.468C996.02 297.64 994.484 297.896 994.484 315.304C994.484 328.744 976.82 346.536 953.524 346.536ZM1004.93 261.288C1004.93 257.576 1007.11 255.4 1010.82 255.4H1015.94C1019.78 255.4 1021.83 257.576 1021.83 261.288V339.112C1021.83 342.952 1019.65 345 1015.94 345H1010.82C1006.98 345 1004.93 342.824 1004.93 339.112V261.288ZM1043.07 345C1039.36 345 1037.18 342.824 1037.18 339.112V261.288C1037.18 257.448 1039.36 255.4 1043.07 255.4H1049.47C1052.67 255.4 1054.72 256.68 1056.38 259.368L1084.41 307.112C1086.08 310.056 1088.38 309.16 1088.38 305.96V261.288C1088.38 257.448 1090.56 255.4 1094.27 255.4H1099.39C1103.23 255.4 1105.28 257.576 1105.28 261.288V339.112C1105.28 342.952 1103.1 345 1099.39 345H1092.99C1089.79 345 1087.61 343.848 1085.95 341.16L1058.17 296.872C1056.51 294.184 1054.08 294.824 1054.08 298.024V339.112C1054.08 342.824 1051.9 345 1048.19 345H1043.07ZM1120.68 261.288C1120.68 257.576 1122.86 255.4 1126.57 255.4H1164.2C1168.04 255.4 1170.09 257.576 1170.09 261.288V265C1170.09 268.84 1167.91 270.888 1164.2 270.888H1140.9C1138.86 270.888 1137.58 272.168 1137.58 274.216V287.912C1137.58 289.96 1138.86 291.24 1140.9 291.24H1161.64C1165.48 291.24 1167.53 293.416 1167.53 297.128V300.84C1167.53 304.68 1165.35 306.728 1161.64 306.728H1140.9C1138.86 306.728 1137.58 308.008 1137.58 310.056V326.184C1137.58 328.36 1138.86 329.512 1140.9 329.512H1164.2C1168.04 329.512 1170.09 331.688 1170.09 335.4V339.112C1170.09 342.952 1167.91 345 1164.2 345H1126.57C1122.73 345 1120.68 342.824 1120.68 339.112V261.288Z" fill="#05DDEA"/>
</g>
<g opacity="0.25">
<path d="M7.68 159.288C7.68 155.576 9.856 153.4 13.568 153.4H18.688C22.528 153.4 24.576 155.576 24.576 159.288V186.168C24.576 188.344 25.856 189.496 27.904 189.496H55.552C57.6 189.496 58.88 188.216 58.88 186.168V159.288C58.88 155.448 61.056 153.4 64.768 153.4H69.888C73.728 153.4 75.776 155.576 75.776 159.288V237.112C75.776 240.952 73.6 243 69.888 243H64.768C60.928 243 58.88 240.824 58.88 237.112V208.312C58.88 206.136 57.6 204.984 55.552 204.984H27.904C25.856 204.984 24.576 206.264 24.576 208.312V237.112C24.576 240.824 22.4 243 18.688 243H13.568C9.728 243 7.68 240.824 7.68 237.112V159.288ZM100.903 238.392C99.751 241.464 97.447 243 94.119 243H88.231C83.879 243 81.959 240.312 83.623 236.216L114.983 158.008C116.263 154.936 118.439 153.4 121.767 153.4H124.199C127.527 153.4 129.703 154.68 130.983 157.88L164.263 236.088C165.927 240.184 164.135 243 159.783 243H154.023C150.695 243 148.391 241.592 147.111 238.392L144.295 231.352C143.655 229.56 142.375 228.792 140.455 228.792H107.431C105.511 228.792 104.231 229.56 103.591 231.352L100.903 238.392ZM111.527 209.592C110.631 211.896 111.655 213.432 114.087 213.432H133.031C135.463 213.432 136.487 211.896 135.591 209.592L125.479 185.144C124.327 182.456 122.023 182.328 120.999 185.144L111.527 209.592ZM180.818 243C177.106 243 174.93 240.824 174.93 237.112V159.288C174.93 155.448 177.106 153.4 180.818 153.4H187.218C190.418 153.4 192.466 154.68 194.13 157.368L222.162 205.112C223.826 208.056 226.13 207.16 226.13 203.96V159.288C226.13 155.448 228.306 153.4 232.018 153.4H237.138C240.978 153.4 243.026 155.576 243.026 159.288V237.112C243.026 240.952 240.85 243 237.138 243H230.738C227.538 243 225.362 241.848 223.698 239.16L195.922 194.872C194.258 192.184 191.826 192.824 191.826 196.024V237.112C191.826 240.824 189.65 243 185.938 243H180.818ZM264.318 243C260.606 243 258.43 240.824 258.43 237.112V159.288C258.43 155.448 260.606 153.4 264.318 153.4H281.214C314.11 153.4 326.526 172.728 326.526 197.944C326.526 221.496 313.982 242.616 281.214 243.128L264.318 243ZM275.326 222.648C275.326 224.696 276.478 225.976 278.654 225.976C280.702 225.976 282.878 225.976 282.878 225.976C318.206 225.976 318.334 169.912 283.39 169.912L278.654 170.04C276.606 170.04 275.326 171.32 275.326 173.368V222.648ZM376.979 244.536C353.043 244.536 333.715 223.8 333.715 198.2C333.715 172.728 353.043 151.992 376.979 151.992C390.547 151.992 402.707 158.776 410.643 169.272C413.203 172.728 411.795 175.672 407.699 176.952L403.987 178.104C400.787 179.128 398.483 178.104 396.179 175.672C391.315 170.68 384.787 167.48 377.619 167.48C362.771 167.48 350.483 181.944 350.483 198.328C350.483 214.84 362.771 229.176 377.619 229.176C385.811 229.176 392.083 224.824 396.691 218.296C398.611 215.48 400.787 214.328 403.987 214.712L407.955 215.096C411.923 215.48 414.099 217.4 413.331 219.96C409.235 231.864 396.563 244.536 376.979 244.536ZM452.584 153.4C474.216 153.4 485.096 165.432 485.096 184.376C485.096 195.128 481.128 203.32 473.448 208.312C471.528 209.72 471.4 211 473.192 212.536C480.616 218.68 484.456 228.152 485.736 236.984C486.376 240.824 483.944 243 480.104 243H476.136C472.552 243 470.76 241.08 469.992 237.496C468.072 228.152 461.16 216.248 446.696 214.2L445.032 214.072C442.856 213.944 441.576 215.224 441.576 217.4V237.112C441.576 240.824 439.4 243 435.688 243H430.568C426.728 243 424.68 240.824 424.68 237.112V159.288C424.68 155.448 426.856 153.4 430.568 153.4H452.584ZM452.2 199.224C474.344 199.224 474.344 168.888 453.352 168.888H444.904C442.856 168.888 441.576 170.168 441.576 172.216V195.896C441.576 197.944 442.856 199.224 444.904 199.224H452.2ZM512.653 238.392C511.501 241.464 509.197 243 505.869 243H499.981C495.629 243 493.709 240.312 495.373 236.216L526.733 158.008C528.013 154.936 530.189 153.4 533.517 153.4H535.949C539.277 153.4 541.453 154.68 542.733 157.88L576.013 236.088C577.677 240.184 575.885 243 571.533 243H565.773C562.445 243 560.141 241.592 558.861 238.392L556.045 231.352C555.405 229.56 554.125 228.792 552.205 228.792H519.181C517.261 228.792 515.981 229.56 515.341 231.352L512.653 238.392ZM523.277 209.592C522.381 211.896 523.405 213.432 525.837 213.432H544.781C547.213 213.432 548.237 211.896 547.341 209.592L537.229 185.144C536.077 182.456 533.773 182.328 532.749 185.144L523.277 209.592ZM592.568 243C588.856 243 586.68 240.824 586.68 237.112V159.288C586.68 155.448 588.856 153.4 592.568 153.4H598.968C602.168 153.4 604.216 154.68 605.88 157.368L633.912 205.112C635.576 208.056 637.88 207.16 637.88 203.96V159.288C637.88 155.448 640.056 153.4 643.768 153.4H648.888C652.728 153.4 654.776 155.576 654.776 159.288V237.112C654.776 240.952 652.6 243 648.888 243H642.488C639.288 243 637.112 241.848 635.448 239.16L607.672 194.872C606.008 192.184 603.576 192.824 603.576 196.024V237.112C603.576 240.824 601.4 243 597.688 243H592.568ZM670.18 159.288C670.18 155.576 672.356 153.4 676.068 153.4H681.188C685.028 153.4 687.076 155.576 687.076 159.288V184.248C687.076 186.424 688.356 187.704 690.532 187.32C703.844 185.144 710.372 173.24 711.268 159.288C711.524 155.448 713.572 153.4 717.284 153.4H722.404C726.244 153.4 728.292 155.448 728.164 159.416C727.524 172.984 724.452 184.632 713.316 193.336C711.524 194.744 711.396 196.28 713.316 197.816C724.836 207.288 729.188 218.296 730.34 236.856C730.596 240.824 728.42 243 724.58 243H719.46C715.748 243 713.828 240.952 713.444 237.112C711.78 217.272 702.052 207.16 690.66 204.344C688.484 203.832 687.076 205.112 687.076 207.416V237.112C687.076 240.952 684.9 243 681.188 243H676.068C672.228 243 670.18 240.824 670.18 237.112V159.288ZM767.68 159.288C767.68 155.576 769.856 153.4 773.568 153.4H811.2C815.04 153.4 817.088 155.576 817.088 159.288V163C817.088 166.84 814.912 168.888 811.2 168.888H787.904C785.856 168.888 784.576 170.168 784.576 172.216V185.912C784.576 187.96 785.856 189.24 787.904 189.24H808.64C812.48 189.24 814.528 191.416 814.528 195.128V198.84C814.528 202.68 812.352 204.728 808.64 204.728H787.904C785.856 204.728 784.576 206.008 784.576 208.056V224.184C784.576 226.36 785.856 227.512 787.904 227.512H811.2C815.04 227.512 817.088 229.688 817.088 233.4V237.112C817.088 240.952 814.912 243 811.2 243H773.568C769.728 243 767.68 240.824 767.68 237.112V159.288ZM837.068 243C833.356 243 831.18 240.824 831.18 237.112V159.288C831.18 155.448 833.356 153.4 837.068 153.4H843.468C846.668 153.4 848.716 154.68 850.38 157.368L878.412 205.112C880.076 208.056 882.38 207.16 882.38 203.96V159.288C882.38 155.448 884.556 153.4 888.268 153.4H893.388C897.228 153.4 899.276 155.576 899.276 159.288V237.112C899.276 240.952 897.1 243 893.388 243H886.988C883.788 243 881.612 241.848 879.948 239.16L852.172 194.872C850.508 192.184 848.076 192.824 848.076 196.024V237.112C848.076 240.824 845.9 243 842.188 243H837.068ZM953.524 244.536C927.668 244.536 908.34 223.8 908.34 198.2C908.34 172.728 927.668 151.992 951.604 151.992C965.172 151.992 977.332 158.776 985.268 169.272C987.828 172.728 986.292 175.8 982.324 176.952L977.844 178.36C974.644 179.384 972.34 178.36 970.036 175.928C965.3 171.064 958.772 167.864 951.86 167.864C937.268 167.864 925.108 182.2 925.108 198.328C925.108 214.584 937.268 228.792 954.036 228.792C967.348 228.792 974.516 222.136 977.844 214.968C978.868 212.664 977.588 211.128 975.156 211.128H958.388C954.548 211.128 952.5 208.952 952.5 205.24V201.528C952.5 197.688 954.676 195.64 958.388 195.64H988.468C996.02 195.64 994.484 195.896 994.484 213.304C994.484 226.744 976.82 244.536 953.524 244.536ZM1004.93 159.288C1004.93 155.576 1007.11 153.4 1010.82 153.4H1015.94C1019.78 153.4 1021.83 155.576 1021.83 159.288V237.112C1021.83 240.952 1019.65 243 1015.94 243H1010.82C1006.98 243 1004.93 240.824 1004.93 237.112V159.288ZM1043.07 243C1039.36 243 1037.18 240.824 1037.18 237.112V159.288C1037.18 155.448 1039.36 153.4 1043.07 153.4H1049.47C1052.67 153.4 1054.72 154.68 1056.38 157.368L1084.41 205.112C1086.08 208.056 1088.38 207.16 1088.38 203.96V159.288C1088.38 155.448 1090.56 153.4 1094.27 153.4H1099.39C1103.23 153.4 1105.28 155.576 1105.28 159.288V237.112C1105.28 240.952 1103.1 243 1099.39 243H1092.99C1089.79 243 1087.61 241.848 1085.95 239.16L1058.17 194.872C1056.51 192.184 1054.08 192.824 1054.08 196.024V237.112C1054.08 240.824 1051.9 243 1048.19 243H1043.07ZM1120.68 159.288C1120.68 155.576 1122.86 153.4 1126.57 153.4H1164.2C1168.04 153.4 1170.09 155.576 1170.09 159.288V163C1170.09 166.84 1167.91 168.888 1164.2 168.888H1140.9C1138.86 168.888 1137.58 170.168 1137.58 172.216V185.912C1137.58 187.96 1138.86 189.24 1140.9 189.24H1161.64C1165.48 189.24 1167.53 191.416 1167.53 195.128V198.84C1167.53 202.68 1165.35 204.728 1161.64 204.728H1140.9C1138.86 204.728 1137.58 206.008 1137.58 208.056V224.184C1137.58 226.36 1138.86 227.512 1140.9 227.512H1164.2C1168.04 227.512 1170.09 229.688 1170.09 233.4V237.112C1170.09 240.952 1167.91 243 1164.2 243H1126.57C1122.73 243 1120.68 240.824 1120.68 237.112V159.288Z" fill="#05DDEA"/>
</g>
<g opacity="0.1">
<path d="M7.68 57.288C7.68 53.576 9.856 51.4 13.568 51.4H18.688C22.528 51.4 24.576 53.576 24.576 57.288V84.168C24.576 86.344 25.856 87.496 27.904 87.496H55.552C57.6 87.496 58.88 86.216 58.88 84.168V57.288C58.88 53.448 61.056 51.4 64.768 51.4H69.888C73.728 51.4 75.776 53.576 75.776 57.288V135.112C75.776 138.952 73.6 141 69.888 141H64.768C60.928 141 58.88 138.824 58.88 135.112V106.312C58.88 104.136 57.6 102.984 55.552 102.984H27.904C25.856 102.984 24.576 104.264 24.576 106.312V135.112C24.576 138.824 22.4 141 18.688 141H13.568C9.728 141 7.68 138.824 7.68 135.112V57.288ZM100.903 136.392C99.751 139.464 97.447 141 94.119 141H88.231C83.879 141 81.959 138.312 83.623 134.216L114.983 56.008C116.263 52.936 118.439 51.4 121.767 51.4H124.199C127.527 51.4 129.703 52.68 130.983 55.88L164.263 134.088C165.927 138.184 164.135 141 159.783 141H154.023C150.695 141 148.391 139.592 147.111 136.392L144.295 129.352C143.655 127.56 142.375 126.792 140.455 126.792H107.431C105.511 126.792 104.231 127.56 103.591 129.352L100.903 136.392ZM111.527 107.592C110.631 109.896 111.655 111.432 114.087 111.432H133.031C135.463 111.432 136.487 109.896 135.591 107.592L125.479 83.144C124.327 80.456 122.023 80.328 120.999 83.144L111.527 107.592ZM180.818 141C177.106 141 174.93 138.824 174.93 135.112V57.288C174.93 53.448 177.106 51.4 180.818 51.4H187.218C190.418 51.4 192.466 52.68 194.13 55.368L222.162 103.112C223.826 106.056 226.13 105.16 226.13 101.96V57.288C226.13 53.448 228.306 51.4 232.018 51.4H237.138C240.978 51.4 243.026 53.576 243.026 57.288V135.112C243.026 138.952 240.85 141 237.138 141H230.738C227.538 141 225.362 139.848 223.698 137.16L195.922 92.872C194.258 90.184 191.826 90.824 191.826 94.024V135.112C191.826 138.824 189.65 141 185.938 141H180.818ZM264.318 141C260.606 141 258.43 138.824 258.43 135.112V57.288C258.43 53.448 260.606 51.4 264.318 51.4H281.214C314.11 51.4 326.526 70.728 326.526 95.944C326.526 119.496 313.982 140.616 281.214 141.128L264.318 141ZM275.326 120.648C275.326 122.696 276.478 123.976 278.654 123.976C280.702 123.976 282.878 123.976 282.878 123.976C318.206 123.976 318.334 67.912 283.39 67.912L278.654 68.04C276.606 68.04 275.326 69.32 275.326 71.368V120.648ZM376.979 142.536C353.043 142.536 333.715 121.8 333.715 96.2C333.715 70.728 353.043 49.992 376.979 49.992C390.547 49.992 402.707 56.776 410.643 67.272C413.203 70.728 411.795 73.672 407.699 74.952L403.987 76.104C400.787 77.128 398.483 76.104 396.179 73.672C391.315 68.68 384.787 65.48 377.619 65.48C362.771 65.48 350.483 79.944 350.483 96.328C350.483 112.84 362.771 127.176 377.619 127.176C385.811 127.176 392.083 122.824 396.691 116.296C398.611 113.48 400.787 112.328 403.987 112.712L407.955 113.096C411.923 113.48 414.099 115.4 413.331 117.96C409.235 129.864 396.563 142.536 376.979 142.536ZM452.584 51.4C474.216 51.4 485.096 63.432 485.096 82.376C485.096 93.128 481.128 101.32 473.448 106.312C471.528 107.72 471.4 109 473.192 110.536C480.616 116.68 484.456 126.152 485.736 134.984C486.376 138.824 483.944 141 480.104 141H476.136C472.552 141 470.76 139.08 469.992 135.496C468.072 126.152 461.16 114.248 446.696 112.2L445.032 112.072C442.856 111.944 441.576 113.224 441.576 115.4V135.112C441.576 138.824 439.4 141 435.688 141H430.568C426.728 141 424.68 138.824 424.68 135.112V57.288C424.68 53.448 426.856 51.4 430.568 51.4H452.584ZM452.2 97.224C474.344 97.224 474.344 66.888 453.352 66.888H444.904C442.856 66.888 441.576 68.168 441.576 70.216V93.896C441.576 95.944 442.856 97.224 444.904 97.224H452.2ZM512.653 136.392C511.501 139.464 509.197 141 505.869 141H499.981C495.629 141 493.709 138.312 495.373 134.216L526.733 56.008C528.013 52.936 530.189 51.4 533.517 51.4H535.949C539.277 51.4 541.453 52.68 542.733 55.88L576.013 134.088C577.677 138.184 575.885 141 571.533 141H565.773C562.445 141 560.141 139.592 558.861 136.392L556.045 129.352C555.405 127.56 554.125 126.792 552.205 126.792H519.181C517.261 126.792 515.981 127.56 515.341 129.352L512.653 136.392ZM523.277 107.592C522.381 109.896 523.405 111.432 525.837 111.432H544.781C547.213 111.432 548.237 109.896 547.341 107.592L537.229 83.144C536.077 80.456 533.773 80.328 532.749 83.144L523.277 107.592ZM592.568 141C588.856 141 586.68 138.824 586.68 135.112V57.288C586.68 53.448 588.856 51.4 592.568 51.4H598.968C602.168 51.4 604.216 52.68 605.88 55.368L633.912 103.112C635.576 106.056 637.88 105.16 637.88 101.96V57.288C637.88 53.448 640.056 51.4 643.768 51.4H648.888C652.728 51.4 654.776 53.576 654.776 57.288V135.112C654.776 138.952 652.6 141 648.888 141H642.488C639.288 141 637.112 139.848 635.448 137.16L607.672 92.872C606.008 90.184 603.576 90.824 603.576 94.024V135.112C603.576 138.824 601.4 141 597.688 141H592.568ZM670.18 57.288C670.18 53.576 672.356 51.4 676.068 51.4H681.188C685.028 51.4 687.076 53.576 687.076 57.288V82.248C687.076 84.424 688.356 85.704 690.532 85.32C703.844 83.144 710.372 71.24 711.268 57.288C711.524 53.448 713.572 51.4 717.284 51.4H722.404C726.244 51.4 728.292 53.448 728.164 57.416C727.524 70.984 724.452 82.632 713.316 91.336C711.524 92.744 711.396 94.28 713.316 95.816C724.836 105.288 729.188 116.296 730.34 134.856C730.596 138.824 728.42 141 724.58 141H719.46C715.748 141 713.828 138.952 713.444 135.112C711.78 115.272 702.052 105.16 690.66 102.344C688.484 101.832 687.076 103.112 687.076 105.416V135.112C687.076 138.952 684.9 141 681.188 141H676.068C672.228 141 670.18 138.824 670.18 135.112V57.288ZM767.68 57.288C767.68 53.576 769.856 51.4 773.568 51.4H811.2C815.04 51.4 817.088 53.576 817.088 57.288V61C817.088 64.84 814.912 66.888 811.2 66.888H787.904C785.856 66.888 784.576 68.168 784.576 70.216V83.912C784.576 85.96 785.856 87.24 787.904 87.24H808.64C812.48 87.24 814.528 89.416 814.528 93.128V96.84C814.528 100.68 812.352 102.728 808.64 102.728H787.904C785.856 102.728 784.576 104.008 784.576 106.056V122.184C784.576 124.36 785.856 125.512 787.904 125.512H811.2C815.04 125.512 817.088 127.688 817.088 131.4V135.112C817.088 138.952 814.912 141 811.2 141H773.568C769.728 141 767.68 138.824 767.68 135.112V57.288ZM837.068 141C833.356 141 831.18 138.824 831.18 135.112V57.288C831.18 53.448 833.356 51.4 837.068 51.4H843.468C846.668 51.4 848.716 52.68 850.38 55.368L878.412 103.112C880.076 106.056 882.38 105.16 882.38 101.96V57.288C882.38 53.448 884.556 51.4 888.268 51.4H893.388C897.228 51.4 899.276 53.576 899.276 57.288V135.112C899.276 138.952 897.1 141 893.388 141H886.988C883.788 141 881.612 139.848 879.948 137.16L852.172 92.872C850.508 90.184 848.076 90.824 848.076 94.024V135.112C848.076 138.824 845.9 141 842.188 141H837.068ZM953.524 142.536C927.668 142.536 908.34 121.8 908.34 96.2C908.34 70.728 927.668 49.992 951.604 49.992C965.172 49.992 977.332 56.776 985.268 67.272C987.828 70.728 986.292 73.8 982.324 74.952L977.844 76.36C974.644 77.384 972.34 76.36 970.036 73.928C965.3 69.064 958.772 65.864 951.86 65.864C937.268 65.864 925.108 80.2 925.108 96.328C925.108 112.584 937.268 126.792 954.036 126.792C967.348 126.792 974.516 120.136 977.844 112.968C978.868 110.664 977.588 109.128 975.156 109.128H958.388C954.548 109.128 952.5 106.952 952.5 103.24V99.528C952.5 95.688 954.676 93.64 958.388 93.64H988.468C996.02 93.64 994.484 93.896 994.484 111.304C994.484 124.744 976.82 142.536 953.524 142.536ZM1004.93 57.288C1004.93 53.576 1007.11 51.4 1010.82 51.4H1015.94C1019.78 51.4 1021.83 53.576 1021.83 57.288V135.112C1021.83 138.952 1019.65 141 1015.94 141H1010.82C1006.98 141 1004.93 138.824 1004.93 135.112V57.288ZM1043.07 141C1039.36 141 1037.18 138.824 1037.18 135.112V57.288C1037.18 53.448 1039.36 51.4 1043.07 51.4H1049.47C1052.67 51.4 1054.72 52.68 1056.38 55.368L1084.41 103.112C1086.08 106.056 1088.38 105.16 1088.38 101.96V57.288C1088.38 53.448 1090.56 51.4 1094.27 51.4H1099.39C1103.23 51.4 1105.28 53.576 1105.28 57.288V135.112C1105.28 138.952 1103.1 141 1099.39 141H1092.99C1089.79 141 1087.61 139.848 1085.95 137.16L1058.17 92.872C1056.51 90.184 1054.08 90.824 1054.08 94.024V135.112C1054.08 138.824 1051.9 141 1048.19 141H1043.07ZM1120.68 57.288C1120.68 53.576 1122.86 51.4 1126.57 51.4H1164.2C1168.04 51.4 1170.09 53.576 1170.09 57.288V61C1170.09 64.84 1167.91 66.888 1164.2 66.888H1140.9C1138.86 66.888 1137.58 68.168 1137.58 70.216V83.912C1137.58 85.96 1138.86 87.24 1140.9 87.24H1161.64C1165.48 87.24 1167.53 89.416 1167.53 93.128V96.84C1167.53 100.68 1165.35 102.728 1161.64 102.728H1140.9C1138.86 102.728 1137.58 104.008 1137.58 106.056V122.184C1137.58 124.36 1138.86 125.512 1140.9 125.512H1164.2C1168.04 125.512 1170.09 127.688 1170.09 131.4V135.112C1170.09 138.952 1167.91 141 1164.2 141H1126.57C1122.73 141 1120.68 138.824 1120.68 135.112V57.288Z" fill="#05DDEA"/>
</g>
<rect x="240" y="491" width="698" height="98" rx="49" stroke="#05DDEA" stroke-width="2"/>
<mask id="path-6-outside-1_254_6" maskUnits="userSpaceOnUse" x="394" y="515" width="387" height="49" fill="black">
<rect fill="white" x="394" y="515" width="387" height="49"/>
<path d="M418.512 562.768C405.584 562.768 395.92 552.4 395.92 539.6C395.92 526.864 405.584 516.496 417.552 516.496C424.336 516.496 430.416 519.888 434.384 525.136C435.664 526.864 434.896 528.4 432.912 528.976L430.672 529.68C429.072 530.192 427.92 529.68 426.768 528.464C424.4 526.032 421.136 524.432 417.68 524.432C410.384 524.432 404.304 531.6 404.304 539.664C404.304 547.792 410.384 554.896 418.768 554.896C425.424 554.896 429.008 551.568 430.672 547.984C431.184 546.832 430.544 546.064 429.328 546.064H420.944C419.024 546.064 418 544.976 418 543.12V541.264C418 539.344 419.088 538.32 420.944 538.32H435.984C439.76 538.32 438.992 538.448 438.992 547.152C438.992 553.872 430.16 562.768 418.512 562.768ZM448.764 559.696C448.188 561.232 447.036 562 445.372 562H442.428C440.252 562 439.292 560.656 440.124 558.608L455.804 519.504C456.444 517.968 457.532 517.2 459.196 517.2H460.412C462.076 517.2 463.164 517.84 463.804 519.44L480.444 558.544C481.276 560.592 480.38 562 478.204 562H475.324C473.66 562 472.508 561.296 471.868 559.696L470.46 556.176C470.14 555.28 469.5 554.896 468.54 554.896H452.028C451.068 554.896 450.428 555.28 450.108 556.176L448.764 559.696ZM454.076 545.296C453.628 546.448 454.14 547.216 455.356 547.216H464.828C466.044 547.216 466.556 546.448 466.108 545.296L461.052 533.072C460.476 531.728 459.324 531.664 458.812 533.072L454.076 545.296ZM485.778 560.336V518.864C485.778 517.84 486.418 517.2 487.442 517.2H492.946C493.842 517.2 494.482 517.52 494.93 518.288L503.25 531.856C504.402 533.776 506.13 533.904 507.346 531.92L515.858 518.288C516.306 517.52 516.946 517.2 517.842 517.2H523.346C524.37 517.2 525.01 517.84 525.01 518.864L525.138 560.336C525.138 561.424 524.562 562 523.474 562H518.354C517.33 562 516.69 561.424 516.69 560.336V540.496C516.69 537.68 514.706 537.04 513.106 539.408L506.45 549.2C505.746 550.288 504.85 550.288 504.146 549.2L497.81 539.536C496.21 537.168 494.226 537.744 494.226 540.624V560.336C494.226 561.36 493.65 562 492.562 562H487.442C486.418 562 485.778 561.424 485.778 560.336ZM532.84 520.144C532.84 518.288 533.928 517.2 535.784 517.2H554.6C556.52 517.2 557.544 518.288 557.544 520.144V522C557.544 523.92 556.456 524.944 554.6 524.944H542.952C541.928 524.944 541.288 525.584 541.288 526.608V533.456C541.288 534.48 541.928 535.12 542.952 535.12H553.32C555.24 535.12 556.264 536.208 556.264 538.064V539.92C556.264 541.84 555.176 542.864 553.32 542.864H542.952C541.928 542.864 541.288 543.504 541.288 544.528V552.592C541.288 553.68 541.928 554.256 542.952 554.256H554.6C556.52 554.256 557.544 555.344 557.544 557.2V559.056C557.544 560.976 556.456 562 554.6 562H535.784C533.864 562 532.84 560.912 532.84 559.056V520.144ZM578.028 520.144C578.028 518.288 579.116 517.2 580.972 517.2H599.788C601.708 517.2 602.732 518.288 602.732 520.144V522C602.732 523.92 601.644 524.944 599.788 524.944H588.14C587.116 524.944 586.476 525.584 586.476 526.608V533.456C586.476 534.48 587.116 535.12 588.14 535.12H598.508C600.428 535.12 601.452 536.208 601.452 538.064V539.92C601.452 541.84 600.364 542.864 598.508 542.864H588.14C587.116 542.864 586.476 543.504 586.476 544.528V552.592C586.476 553.68 587.116 554.256 588.14 554.256H599.788C601.708 554.256 602.732 555.344 602.732 557.2V559.056C602.732 560.976 601.644 562 599.788 562H580.972C579.052 562 578.028 560.912 578.028 559.056V520.144ZM612.722 562C610.866 562 609.778 560.912 609.778 559.056V520.144C609.778 518.224 610.866 517.2 612.722 517.2H615.922C617.522 517.2 618.546 517.84 619.378 519.184L633.394 543.056C634.226 544.528 635.378 544.08 635.378 542.48V520.144C635.378 518.224 636.466 517.2 638.322 517.2H640.882C642.802 517.2 643.826 518.288 643.826 520.144V559.056C643.826 560.976 642.738 562 640.882 562H637.682C636.082 562 634.994 561.424 634.162 560.08L620.274 537.936C619.442 536.592 618.226 536.912 618.226 538.512V559.056C618.226 560.912 617.138 562 615.282 562H612.722ZM670.95 562.768C658.022 562.768 648.358 552.4 648.358 539.6C648.358 526.864 658.022 516.496 669.99 516.496C676.774 516.496 682.854 519.888 686.822 525.136C688.102 526.864 687.334 528.4 685.35 528.976L683.11 529.68C681.51 530.192 680.358 529.68 679.206 528.464C676.838 526.032 673.574 524.432 670.118 524.432C662.822 524.432 656.742 531.6 656.742 539.664C656.742 547.792 662.822 554.896 671.206 554.896C677.862 554.896 681.446 551.568 683.11 547.984C683.622 546.832 682.982 546.064 681.766 546.064H673.382C671.462 546.064 670.438 544.976 670.438 543.12V541.264C670.438 539.344 671.526 538.32 673.382 538.32H688.422C692.198 538.32 691.43 538.448 691.43 547.152C691.43 553.872 682.597 562.768 670.95 562.768ZM696.653 520.144C696.653 518.288 697.741 517.2 699.597 517.2H702.157C704.077 517.2 705.101 518.288 705.101 520.144V559.056C705.101 560.976 704.013 562 702.157 562H699.597C697.677 562 696.653 560.912 696.653 559.056V520.144ZM715.722 562C713.866 562 712.778 560.912 712.778 559.056V520.144C712.778 518.224 713.866 517.2 715.722 517.2H718.922C720.522 517.2 721.546 517.84 722.378 519.184L736.394 543.056C737.226 544.528 738.378 544.08 738.378 542.48V520.144C738.378 518.224 739.466 517.2 741.322 517.2H743.882C745.802 517.2 746.826 518.288 746.826 520.144V559.056C746.826 560.976 745.738 562 743.882 562H740.682C739.082 562 737.994 561.424 737.162 560.08L723.274 537.936C722.442 536.592 721.226 536.912 721.226 538.512V559.056C721.226 560.912 720.138 562 718.282 562H715.722ZM754.528 520.144C754.528 518.288 755.616 517.2 757.472 517.2H776.288C778.208 517.2 779.232 518.288 779.232 520.144V522C779.232 523.92 778.144 524.944 776.288 524.944H764.64C763.616 524.944 762.976 525.584 762.976 526.608V533.456C762.976 534.48 763.616 535.12 764.64 535.12H775.008C776.928 535.12 777.952 536.208 777.952 538.064V539.92C777.952 541.84 776.864 542.864 775.008 542.864H764.64C763.616 542.864 762.976 543.504 762.976 544.528V552.592C762.976 553.68 763.616 554.256 764.64 554.256H776.288C778.208 554.256 779.232 555.344 779.232 557.2V559.056C779.232 560.976 778.144 562 776.288 562H757.472C755.552 562 754.528 560.912 754.528 559.056V520.144Z"/>
</mask>
<path d="M418.512 562.768C405.584 562.768 395.92 552.4 395.92 539.6C395.92 526.864 405.584 516.496 417.552 516.496C424.336 516.496 430.416 519.888 434.384 525.136C435.664 526.864 434.896 528.4 432.912 528.976L430.672 529.68C429.072 530.192 427.92 529.68 426.768 528.464C424.4 526.032 421.136 524.432 417.68 524.432C410.384 524.432 404.304 531.6 404.304 539.664C404.304 547.792 410.384 554.896 418.768 554.896C425.424 554.896 429.008 551.568 430.672 547.984C431.184 546.832 430.544 546.064 429.328 546.064H420.944C419.024 546.064 418 544.976 418 543.12V541.264C418 539.344 419.088 538.32 420.944 538.32H435.984C439.76 538.32 438.992 538.448 438.992 547.152C438.992 553.872 430.16 562.768 418.512 562.768ZM448.764 559.696C448.188 561.232 447.036 562 445.372 562H442.428C440.252 562 439.292 560.656 440.124 558.608L455.804 519.504C456.444 517.968 457.532 517.2 459.196 517.2H460.412C462.076 517.2 463.164 517.84 463.804 519.44L480.444 558.544C481.276 560.592 480.38 562 478.204 562H475.324C473.66 562 472.508 561.296 471.868 559.696L470.46 556.176C470.14 555.28 469.5 554.896 468.54 554.896H452.028C451.068 554.896 450.428 555.28 450.108 556.176L448.764 559.696ZM454.076 545.296C453.628 546.448 454.14 547.216 455.356 547.216H464.828C466.044 547.216 466.556 546.448 466.108 545.296L461.052 533.072C460.476 531.728 459.324 531.664 458.812 533.072L454.076 545.296ZM485.778 560.336V518.864C485.778 517.84 486.418 517.2 487.442 517.2H492.946C493.842 517.2 494.482 517.52 494.93 518.288L503.25 531.856C504.402 533.776 506.13 533.904 507.346 531.92L515.858 518.288C516.306 517.52 516.946 517.2 517.842 517.2H523.346C524.37 517.2 525.01 517.84 525.01 518.864L525.138 560.336C525.138 561.424 524.562 562 523.474 562H518.354C517.33 562 516.69 561.424 516.69 560.336V540.496C516.69 537.68 514.706 537.04 513.106 539.408L506.45 549.2C505.746 550.288 504.85 550.288 504.146 549.2L497.81 539.536C496.21 537.168 494.226 537.744 494.226 540.624V560.336C494.226 561.36 493.65 562 492.562 562H487.442C486.418 562 485.778 561.424 485.778 560.336ZM532.84 520.144C532.84 518.288 533.928 517.2 535.784 517.2H554.6C556.52 517.2 557.544 518.288 557.544 520.144V522C557.544 523.92 556.456 524.944 554.6 524.944H542.952C541.928 524.944 541.288 525.584 541.288 526.608V533.456C541.288 534.48 541.928 535.12 542.952 535.12H553.32C555.24 535.12 556.264 536.208 556.264 538.064V539.92C556.264 541.84 555.176 542.864 553.32 542.864H542.952C541.928 542.864 541.288 543.504 541.288 544.528V552.592C541.288 553.68 541.928 554.256 542.952 554.256H554.6C556.52 554.256 557.544 555.344 557.544 557.2V559.056C557.544 560.976 556.456 562 554.6 562H535.784C533.864 562 532.84 560.912 532.84 559.056V520.144ZM578.028 520.144C578.028 518.288 579.116 517.2 580.972 517.2H599.788C601.708 517.2 602.732 518.288 602.732 520.144V522C602.732 523.92 601.644 524.944 599.788 524.944H588.14C587.116 524.944 586.476 525.584 586.476 526.608V533.456C586.476 534.48 587.116 535.12 588.14 535.12H598.508C600.428 535.12 601.452 536.208 601.452 538.064V539.92C601.452 541.84 600.364 542.864 598.508 542.864H588.14C587.116 542.864 586.476 543.504 586.476 544.528V552.592C586.476 553.68 587.116 554.256 588.14 554.256H599.788C601.708 554.256 602.732 555.344 602.732 557.2V559.056C602.732 560.976 601.644 562 599.788 562H580.972C579.052 562 578.028 560.912 578.028 559.056V520.144ZM612.722 562C610.866 562 609.778 560.912 609.778 559.056V520.144C609.778 518.224 610.866 517.2 612.722 517.2H615.922C617.522 517.2 618.546 517.84 619.378 519.184L633.394 543.056C634.226 544.528 635.378 544.08 635.378 542.48V520.144C635.378 518.224 636.466 517.2 638.322 517.2H640.882C642.802 517.2 643.826 518.288 643.826 520.144V559.056C643.826 560.976 642.738 562 640.882 562H637.682C636.082 562 634.994 561.424 634.162 560.08L620.274 537.936C619.442 536.592 618.226 536.912 618.226 538.512V559.056C618.226 560.912 617.138 562 615.282 562H612.722ZM670.95 562.768C658.022 562.768 648.358 552.4 648.358 539.6C648.358 526.864 658.022 516.496 669.99 516.496C676.774 516.496 682.854 519.888 686.822 525.136C688.102 526.864 687.334 528.4 685.35 528.976L683.11 529.68C681.51 530.192 680.358 529.68 679.206 528.464C676.838 526.032 673.574 524.432 670.118 524.432C662.822 524.432 656.742 531.6 656.742 539.664C656.742 547.792 662.822 554.896 671.206 554.896C677.862 554.896 681.446 551.568 683.11 547.984C683.622 546.832 682.982 546.064 681.766 546.064H673.382C671.462 546.064 670.438 544.976 670.438 543.12V541.264C670.438 539.344 671.526 538.32 673.382 538.32H688.422C692.198 538.32 691.43 538.448 691.43 547.152C691.43 553.872 682.597 562.768 670.95 562.768ZM696.653 520.144C696.653 518.288 697.741 517.2 699.597 517.2H702.157C704.077 517.2 705.101 518.288 705.101 520.144V559.056C705.101 560.976 704.013 562 702.157 562H699.597C697.677 562 696.653 560.912 696.653 559.056V520.144ZM715.722 562C713.866 562 712.778 560.912 712.778 559.056V520.144C712.778 518.224 713.866 517.2 715.722 517.2H718.922C720.522 517.2 721.546 517.84 722.378 519.184L736.394 543.056C737.226 544.528 738.378 544.08 738.378 542.48V520.144C738.378 518.224 739.466 517.2 741.322 517.2H743.882C745.802 517.2 746.826 518.288 746.826 520.144V559.056C746.826 560.976 745.738 562 743.882 562H740.682C739.082 562 737.994 561.424 737.162 560.08L723.274 537.936C722.442 536.592 721.226 536.912 721.226 538.512V559.056C721.226 560.912 720.138 562 718.282 562H715.722ZM754.528 520.144C754.528 518.288 755.616 517.2 757.472 517.2H776.288C778.208 517.2 779.232 518.288 779.232 520.144V522C779.232 523.92 778.144 524.944 776.288 524.944H764.64C763.616 524.944 762.976 525.584 762.976 526.608V533.456C762.976 534.48 763.616 535.12 764.64 535.12H775.008C776.928 535.12 777.952 536.208 777.952 538.064V539.92C777.952 541.84 776.864 542.864 775.008 542.864H764.64C763.616 542.864 762.976 543.504 762.976 544.528V552.592C762.976 553.68 763.616 554.256 764.64 554.256H776.288C778.208 554.256 779.232 555.344 779.232 557.2V559.056C779.232 560.976 778.144 562 776.288 562H757.472C755.552 562 754.528 560.912 754.528 559.056V520.144Z" fill="#05DDEA"/>
<path d="M434.384 525.136L435.188 524.541L435.182 524.533L434.384 525.136ZM432.912 528.976L432.633 528.016L432.623 528.019L432.612 528.022L432.912 528.976ZM430.672 529.68L430.372 528.726L430.367 528.728L430.672 529.68ZM426.768 528.464L427.494 527.776L427.484 527.766L426.768 528.464ZM430.672 547.984L431.579 548.405L431.582 548.398L431.586 548.39L430.672 547.984ZM418.512 562.768V561.768C406.173 561.768 396.92 551.885 396.92 539.6H395.92H394.92C394.92 552.915 404.995 563.768 418.512 563.768V562.768ZM395.92 539.6H396.92C396.92 527.352 406.199 517.496 417.552 517.496V516.496V515.496C404.969 515.496 394.92 526.376 394.92 539.6H395.92ZM417.552 516.496V517.496C423.991 517.496 429.787 520.715 433.586 525.739L434.384 525.136L435.182 524.533C431.045 519.061 424.681 515.496 417.552 515.496V516.496ZM434.384 525.136L433.58 525.731C434.079 526.405 434.055 526.85 433.949 527.103C433.826 527.397 433.455 527.777 432.633 528.016L432.912 528.976L433.191 529.936C434.353 529.599 435.358 528.923 435.795 527.873C436.249 526.782 435.969 525.595 435.188 524.541L434.384 525.136ZM432.912 528.976L432.612 528.022L430.372 528.726L430.672 529.68L430.972 530.634L433.212 529.93L432.912 528.976ZM430.672 529.68L430.367 528.728C429.739 528.929 429.273 528.91 428.875 528.774C428.455 528.63 428.011 528.322 427.494 527.776L426.768 528.464L426.042 529.152C426.677 529.822 427.385 530.378 428.229 530.666C429.095 530.962 430.006 530.943 430.977 530.632L430.672 529.68ZM426.768 528.464L427.484 527.766C424.958 525.172 421.446 523.432 417.68 523.432V524.432V525.432C420.826 525.432 423.842 526.892 426.052 529.162L426.768 528.464ZM417.68 524.432V523.432C409.704 523.432 403.304 531.185 403.304 539.664H404.304H405.304C405.304 532.015 411.064 525.432 417.68 525.432V524.432ZM404.304 539.664H403.304C403.304 548.264 409.755 555.896 418.768 555.896V554.896V553.896C411.013 553.896 405.304 547.32 405.304 539.664H404.304ZM418.768 554.896V555.896C425.838 555.896 429.762 552.319 431.579 548.405L430.672 547.984L429.765 547.563C428.254 550.817 425.01 553.896 418.768 553.896V554.896ZM430.672 547.984L431.586 548.39C431.935 547.604 431.982 546.715 431.453 545.998C430.948 545.314 430.118 545.064 429.328 545.064V546.064V547.064C429.53 547.064 429.667 547.096 429.749 547.129C429.789 547.145 429.813 547.161 429.826 547.171C429.833 547.176 429.837 547.179 429.84 547.182C429.842 547.184 429.843 547.186 429.843 547.186C429.844 547.186 429.843 547.186 429.843 547.186C429.843 547.185 429.843 547.186 429.844 547.188C429.845 547.19 429.849 547.202 429.849 547.228C429.851 547.281 429.839 547.395 429.758 547.578L430.672 547.984ZM429.328 546.064V545.064H420.944V546.064V547.064H429.328V546.064ZM420.944 546.064V545.064C420.171 545.064 419.722 544.848 419.465 544.587C419.204 544.322 419 543.869 419 543.12H418H417C417 544.227 417.308 545.246 418.039 545.989C418.774 546.736 419.797 547.064 420.944 547.064V546.064ZM418 543.12H419V541.264H418H417V543.12H418ZM418 541.264H419C419 540.491 419.216 540.042 419.477 539.785C419.742 539.524 420.195 539.32 420.944 539.32V538.32V537.32C419.837 537.32 418.818 537.628 418.075 538.359C417.328 539.094 417 540.117 417 541.264H418ZM420.944 538.32V539.32H435.984V538.32V537.32H420.944V538.32ZM435.984 538.32V539.32C436.992 539.32 437.466 539.339 437.74 539.428C437.791 539.444 437.816 539.458 437.827 539.464C437.835 539.47 437.838 539.473 437.84 539.475C437.844 539.48 437.888 539.532 437.934 539.715C438.037 540.127 438.066 540.824 438.053 542.089C438.04 543.299 437.992 544.973 437.992 547.152H438.992H439.992C439.992 544.979 440.04 543.373 440.053 542.111C440.066 540.904 440.051 539.937 439.874 539.229C439.78 538.852 439.625 538.48 439.35 538.164C439.068 537.838 438.719 537.642 438.354 537.524C437.71 537.317 436.864 537.32 435.984 537.32V538.32ZM438.992 547.152H437.992C437.992 550.109 436.012 553.758 432.478 556.713C428.977 559.641 424.08 561.768 418.512 561.768V562.768V563.768C424.592 563.768 429.935 561.447 433.762 558.247C437.556 555.074 439.992 550.915 439.992 547.152H438.992ZM448.764 559.696L447.83 559.339L447.828 559.345L448.764 559.696ZM440.124 558.608L441.05 558.984L441.052 558.98L440.124 558.608ZM455.804 519.504L454.881 519.119L454.876 519.132L455.804 519.504ZM463.804 519.44L462.876 519.811L462.88 519.822L462.884 519.832L463.804 519.44ZM480.444 558.544L481.37 558.168L481.367 558.16L481.364 558.152L480.444 558.544ZM471.868 559.696L470.94 560.067L470.94 560.067L471.868 559.696ZM470.46 556.176L469.518 556.512L469.525 556.53L469.532 556.547L470.46 556.176ZM450.108 556.176L451.042 556.533L451.046 556.523L451.05 556.512L450.108 556.176ZM454.076 545.296L455.008 545.658L455.008 545.657L454.076 545.296ZM466.108 545.296L467.04 544.934L467.036 544.924L467.032 544.914L466.108 545.296ZM461.052 533.072L461.976 532.69L461.971 532.678L461.052 533.072ZM458.812 533.072L459.744 533.433L459.748 533.424L459.752 533.414L458.812 533.072ZM448.764 559.696L447.828 559.345C447.599 559.954 447.283 560.348 446.916 560.596C446.547 560.845 446.049 561 445.372 561V562V563C446.359 563 447.269 562.771 448.036 562.252C448.805 561.732 449.353 560.974 449.7 560.047L448.764 559.696ZM445.372 562V561H442.428V562V563H445.372V562ZM442.428 562V561C441.518 561 441.121 560.721 440.971 560.505C440.827 560.294 440.704 559.836 441.05 558.984L440.124 558.608L439.198 558.232C438.712 559.428 438.653 560.666 439.325 561.639C439.991 562.607 441.162 563 442.428 563V562ZM440.124 558.608L441.052 558.98L456.732 519.876L455.804 519.504L454.876 519.132L439.196 558.236L440.124 558.608ZM455.804 519.504L456.727 519.889C456.992 519.252 457.318 518.85 457.682 518.601C458.042 518.353 458.522 518.2 459.196 518.2V517.2V516.2C458.206 516.2 457.31 516.431 456.55 516.951C455.794 517.47 455.256 518.22 454.881 519.119L455.804 519.504ZM459.196 517.2V518.2H460.412V517.2V516.2H459.196V517.2ZM460.412 517.2V518.2C461.119 518.2 461.601 518.336 461.951 518.561C462.295 518.782 462.612 519.154 462.876 519.811L463.804 519.44L464.732 519.069C464.356 518.126 463.809 517.378 463.033 516.879C462.263 516.384 461.369 516.2 460.412 516.2V517.2ZM463.804 519.44L462.884 519.832L479.524 558.936L480.444 558.544L481.364 558.152L464.724 519.048L463.804 519.44ZM480.444 558.544L479.518 558.92C479.867 559.78 479.759 560.269 479.612 560.498C479.471 560.717 479.098 561 478.204 561V562V563C479.486 563 480.649 562.579 481.292 561.582C481.929 560.595 481.853 559.356 481.37 558.168L480.444 558.544ZM478.204 562V561H475.324V562V563H478.204V562ZM475.324 562V561C474.633 561 474.132 560.855 473.759 560.611C473.389 560.369 473.057 559.975 472.796 559.325L471.868 559.696L470.94 560.067C471.319 561.017 471.883 561.775 472.665 562.285C473.444 562.793 474.351 563 475.324 563V562ZM471.868 559.696L472.796 559.325L471.388 555.805L470.46 556.176L469.532 556.547L470.94 560.067L471.868 559.696ZM470.46 556.176L471.402 555.84C471.183 555.229 470.824 554.712 470.285 554.362C469.756 554.018 469.149 553.896 468.54 553.896V554.896V555.896C468.891 555.896 469.084 555.966 469.195 556.038C469.296 556.104 469.417 556.227 469.518 556.512L470.46 556.176ZM468.54 554.896V553.896H452.028V554.896V555.896H468.54V554.896ZM452.028 554.896V553.896C451.419 553.896 450.812 554.018 450.283 554.362C449.744 554.712 449.385 555.229 449.166 555.84L450.108 556.176L451.05 556.512C451.151 556.227 451.272 556.104 451.373 556.038C451.484 555.966 451.677 555.896 452.028 555.896V554.896ZM450.108 556.176L449.174 555.819L447.83 559.339L448.764 559.696L449.698 560.053L451.042 556.533L450.108 556.176ZM454.076 545.296L453.144 544.934C452.856 545.674 452.786 546.531 453.26 547.243C453.738 547.96 454.561 548.216 455.356 548.216V547.216V546.216C454.935 546.216 454.894 546.088 454.924 546.133C454.95 546.173 454.848 546.07 455.008 545.658L454.076 545.296ZM455.356 547.216V548.216H464.828V547.216V546.216H455.356V547.216ZM464.828 547.216V548.216C465.623 548.216 466.446 547.96 466.924 547.243C467.398 546.531 467.328 545.674 467.04 544.934L466.108 545.296L465.176 545.658C465.336 546.07 465.234 546.173 465.26 546.133C465.29 546.088 465.249 546.216 464.828 546.216V547.216ZM466.108 545.296L467.032 544.914L461.976 532.69L461.052 533.072L460.128 533.454L465.184 545.678L466.108 545.296ZM461.052 533.072L461.971 532.678C461.616 531.85 460.927 531.059 459.927 531.04C458.877 531.02 458.193 531.849 457.872 532.73L458.812 533.072L459.752 533.414C459.84 533.17 459.931 533.064 459.968 533.031C459.996 533.005 459.966 533.041 459.889 533.04C459.82 533.039 459.814 533.009 459.871 533.058C459.931 533.111 460.033 533.233 460.133 533.466L461.052 533.072ZM458.812 533.072L457.88 532.711L453.144 544.935L454.076 545.296L455.008 545.657L459.744 533.433L458.812 533.072ZM494.93 518.288L494.066 518.792L494.071 518.801L494.077 518.811L494.93 518.288ZM503.25 531.856L504.107 531.341L504.102 531.333L503.25 531.856ZM507.346 531.92L506.497 531.39L506.493 531.397L507.346 531.92ZM515.858 518.288L516.706 518.818L516.714 518.805L516.721 518.792L515.858 518.288ZM525.01 518.864H524.009L524.01 518.867L525.01 518.864ZM525.138 560.336H526.138L526.137 560.333L525.138 560.336ZM513.106 539.408L513.933 539.97L513.934 539.968L513.106 539.408ZM506.45 549.2L505.622 548.638L505.616 548.647L505.61 548.657L506.45 549.2ZM504.146 549.2L504.985 548.657L504.982 548.652L504.146 549.2ZM497.81 539.536L498.646 538.988L498.638 538.976L497.81 539.536ZM485.778 560.336H486.778V518.864H485.778H484.778V560.336H485.778ZM485.778 518.864H486.778C486.778 518.563 486.867 518.42 486.933 518.355C486.998 518.29 487.14 518.2 487.442 518.2V517.2V516.2C486.719 516.2 486.029 516.43 485.518 516.941C485.008 517.452 484.778 518.141 484.778 518.864H485.778ZM487.442 517.2V518.2H492.946V517.2V516.2H487.442V517.2ZM492.946 517.2V518.2C493.275 518.2 493.486 518.259 493.633 518.337C493.773 518.412 493.919 518.541 494.066 518.792L494.93 518.288L495.793 517.784C495.492 517.267 495.094 516.852 494.578 516.575C494.069 516.301 493.512 516.2 492.946 516.2V517.2ZM494.93 518.288L494.077 518.811L502.397 532.379L503.25 531.856L504.102 531.333L495.782 517.765L494.93 518.288ZM503.25 531.856L502.392 532.37C503.057 533.48 504.036 534.312 505.241 534.351C506.469 534.392 507.489 533.599 508.198 532.443L507.346 531.92L506.493 531.397C505.986 532.225 505.534 532.36 505.306 532.353C505.055 532.344 504.594 532.152 504.107 531.342L503.25 531.856ZM507.346 531.92L508.194 532.45L516.706 518.818L515.858 518.288L515.009 517.758L506.497 531.39L507.346 531.92ZM515.858 518.288L516.721 518.792C516.868 518.541 517.014 518.412 517.154 518.337C517.301 518.259 517.512 518.2 517.842 518.2V517.2V516.2C517.275 516.2 516.718 516.301 516.209 516.575C515.693 516.852 515.295 517.267 514.994 517.784L515.858 518.288ZM517.842 517.2V518.2H523.346V517.2V516.2H517.842V517.2ZM523.346 517.2V518.2C523.647 518.2 523.789 518.29 523.854 518.355C523.92 518.42 524.01 518.563 524.01 518.864H525.01H526.01C526.01 518.141 525.779 517.452 525.269 516.941C524.758 516.43 524.068 516.2 523.346 516.2V517.2ZM525.01 518.864L524.01 518.867L524.138 560.339L525.138 560.336L526.137 560.333L526.009 518.861L525.01 518.864ZM525.138 560.336H524.138C524.138 560.711 524.04 560.835 524.006 560.869C523.973 560.903 523.849 561 523.474 561V562V563C524.186 563 524.894 562.809 525.421 562.283C525.947 561.757 526.138 561.049 526.138 560.336H525.138ZM523.474 562V561H518.354V562V563H523.474V562ZM518.354 562V561C518.024 561 517.887 560.91 517.835 560.859C517.787 560.813 517.69 560.683 517.69 560.336H516.69H515.69C515.69 561.077 515.912 561.779 516.44 562.293C516.964 562.802 517.659 563 518.354 563V562ZM516.69 560.336H517.69V540.496H516.69H515.69V560.336H516.69ZM516.69 540.496H517.69C517.69 538.959 517.143 537.472 515.794 537.053C514.439 536.632 513.148 537.559 512.277 538.848L513.106 539.408L513.934 539.968C514.663 538.889 515.164 538.952 515.201 538.963C515.244 538.976 515.69 539.217 515.69 540.496H516.69ZM513.106 539.408L512.278 538.846L505.622 548.638L506.45 549.2L507.277 549.762L513.933 539.97L513.106 539.408ZM506.45 549.2L505.61 548.657C505.339 549.075 505.205 549.016 505.298 549.016C505.39 549.016 505.256 549.075 504.985 548.657L504.146 549.2L503.306 549.743C503.739 550.413 504.405 551.016 505.298 551.016C506.19 551.016 506.856 550.413 507.289 549.743L506.45 549.2ZM504.146 549.2L504.982 548.652L498.646 538.988L497.81 539.536L496.973 540.084L503.309 549.748L504.146 549.2ZM497.81 539.536L498.638 538.976C497.773 537.696 496.488 536.748 495.131 537.154C493.765 537.562 493.226 539.069 493.226 540.624H494.226H495.226C495.226 539.299 495.678 539.078 495.704 539.07C495.739 539.06 496.246 539.008 496.981 540.096L497.81 539.536ZM494.226 540.624H493.226V560.336H494.226H495.226V540.624H494.226ZM494.226 560.336H493.226C493.226 560.665 493.135 560.803 493.085 560.855C493.038 560.902 492.909 561 492.562 561V562V563C493.302 563 494.005 562.778 494.518 562.249C495.028 561.725 495.226 561.031 495.226 560.336H494.226ZM492.562 562V561H487.442V562V563H492.562V562ZM487.442 562V561C487.112 561 486.975 560.91 486.923 560.859C486.875 560.813 486.778 560.683 486.778 560.336H485.778H484.778C484.778 561.077 485 561.779 485.528 562.293C486.052 562.802 486.747 563 487.442 563V562ZM532.84 520.144H533.84C533.84 519.411 534.051 518.955 534.323 518.683C534.595 518.411 535.051 518.2 535.784 518.2V517.2V516.2C534.661 516.2 533.645 516.533 532.909 517.269C532.173 518.005 531.84 519.021 531.84 520.144H532.84ZM535.784 517.2V518.2H554.6V517.2V516.2H535.784V517.2ZM554.6 517.2V518.2C555.373 518.2 555.822 518.416 556.079 518.677C556.34 518.942 556.544 519.395 556.544 520.144H557.544H558.544C558.544 519.037 558.236 518.018 557.505 517.275C556.77 516.528 555.747 516.2 554.6 516.2V517.2ZM557.544 520.144H556.544V522H557.544H558.544V520.144H557.544ZM557.544 522H556.544C556.544 522.773 556.328 523.222 556.067 523.479C555.802 523.74 555.349 523.944 554.6 523.944V524.944V525.944C555.707 525.944 556.726 525.636 557.469 524.905C558.216 524.17 558.544 523.147 558.544 522H557.544ZM554.6 524.944V523.944H542.952V524.944V525.944H554.6V524.944ZM542.952 524.944V523.944C542.229 523.944 541.54 524.174 541.029 524.685C540.518 525.196 540.288 525.885 540.288 526.608H541.288H542.288C542.288 526.307 542.378 526.164 542.443 526.099C542.508 526.034 542.651 525.944 542.952 525.944V524.944ZM541.288 526.608H540.288V533.456H541.288H542.288V526.608H541.288ZM541.288 533.456H540.288C540.288 534.179 540.518 534.868 541.029 535.379C541.54 535.89 542.229 536.12 542.952 536.12V535.12V534.12C542.651 534.12 542.508 534.03 542.443 533.965C542.378 533.9 542.288 533.757 542.288 533.456H541.288ZM542.952 535.12V536.12H553.32V535.12V534.12H542.952V535.12ZM553.32 535.12V536.12C554.093 536.12 554.542 536.336 554.799 536.597C555.06 536.862 555.264 537.315 555.264 538.064H556.264H557.264C557.264 536.957 556.956 535.938 556.225 535.195C555.49 534.448 554.467 534.12 553.32 534.12V535.12ZM556.264 538.064H555.264V539.92H556.264H557.264V538.064H556.264ZM556.264 539.92H555.264C555.264 540.693 555.048 541.142 554.787 541.399C554.522 541.66 554.069 541.864 553.32 541.864V542.864V543.864C554.427 543.864 555.446 543.556 556.189 542.825C556.936 542.09 557.264 541.067 557.264 539.92H556.264ZM553.32 542.864V541.864H542.952V542.864V543.864H553.32V542.864ZM542.952 542.864V541.864C542.229 541.864 541.54 542.094 541.029 542.605C540.518 543.116 540.288 543.805 540.288 544.528H541.288H542.288C542.288 544.227 542.378 544.084 542.443 544.019C542.508 543.954 542.651 543.864 542.952 543.864V542.864ZM541.288 544.528H540.288V552.592H541.288H542.288V544.528H541.288ZM541.288 552.592H540.288C540.288 553.333 540.51 554.035 541.039 554.549C541.563 555.058 542.257 555.256 542.952 555.256V554.256V553.256C542.623 553.256 542.485 553.166 542.433 553.115C542.386 553.069 542.288 552.939 542.288 552.592H541.288ZM542.952 554.256V555.256H554.6V554.256V553.256H542.952V554.256ZM554.6 554.256V555.256C555.373 555.256 555.822 555.472 556.079 555.733C556.34 555.998 556.544 556.451 556.544 557.2H557.544H558.544C558.544 556.093 558.236 555.074 557.505 554.331C556.77 553.584 555.747 553.256 554.6 553.256V554.256ZM557.544 557.2H556.544V559.056H557.544H558.544V557.2H557.544ZM557.544 559.056H556.544C556.544 559.829 556.328 560.278 556.067 560.535C555.802 560.796 555.349 561 554.6 561V562V563C555.707 563 556.726 562.692 557.469 561.961C558.216 561.226 558.544 560.203 558.544 559.056H557.544ZM554.6 562V561H535.784V562V563H554.6V562ZM535.784 562V561C535.011 561 534.562 560.784 534.305 560.523C534.044 560.258 533.84 559.805 533.84 559.056H532.84H531.84C531.84 560.163 532.148 561.182 532.879 561.925C533.614 562.672 534.637 563 535.784 563V562ZM532.84 559.056H533.84V520.144H532.84H531.84V559.056H532.84ZM578.028 520.144H579.028C579.028 519.411 579.239 518.955 579.511 518.683C579.782 518.411 580.238 518.2 580.972 518.2V517.2V516.2C579.849 516.2 578.833 516.533 578.096 517.269C577.36 518.005 577.028 519.021 577.028 520.144H578.028ZM580.972 517.2V518.2H599.788V517.2V516.2H580.972V517.2ZM599.788 517.2V518.2C600.561 518.2 601.009 518.416 601.267 518.677C601.527 518.942 601.732 519.395 601.732 520.144H602.732H603.732C603.732 519.037 603.424 518.018 602.692 517.275C601.958 516.528 600.934 516.2 599.788 516.2V517.2ZM602.732 520.144H601.732V522H602.732H603.732V520.144H602.732ZM602.732 522H601.732C601.732 522.773 601.516 523.222 601.254 523.479C600.989 523.74 600.537 523.944 599.788 523.944V524.944V525.944C600.894 525.944 601.914 525.636 602.657 524.905C603.403 524.17 603.732 523.147 603.732 522H602.732ZM599.788 524.944V523.944H588.14V524.944V525.944H599.788V524.944ZM588.14 524.944V523.944C587.417 523.944 586.727 524.174 586.216 524.685C585.706 525.196 585.476 525.885 585.476 526.608H586.476H587.476C587.476 526.307 587.565 526.164 587.631 526.099C587.696 526.034 587.838 525.944 588.14 525.944V524.944ZM586.476 526.608H585.476V533.456H586.476H587.476V526.608H586.476ZM586.476 533.456H585.476C585.476 534.179 585.706 534.868 586.216 535.379C586.727 535.89 587.417 536.12 588.14 536.12V535.12V534.12C587.838 534.12 587.696 534.03 587.631 533.965C587.565 533.9 587.476 533.757 587.476 533.456H586.476ZM588.14 535.12V536.12H598.508V535.12V534.12H588.14V535.12ZM598.508 535.12V536.12C599.281 536.12 599.729 536.336 599.987 536.597C600.247 536.862 600.452 537.315 600.452 538.064H601.452H602.452C602.452 536.957 602.144 535.938 601.412 535.195C600.678 534.448 599.654 534.12 598.508 534.12V535.12ZM601.452 538.064H600.452V539.92H601.452H602.452V538.064H601.452ZM601.452 539.92H600.452C600.452 540.693 600.236 541.142 599.974 541.399C599.709 541.66 599.257 541.864 598.508 541.864V542.864V543.864C599.614 543.864 600.634 543.556 601.377 542.825C602.123 542.09 602.452 541.067 602.452 539.92H601.452ZM598.508 542.864V541.864H588.14V542.864V543.864H598.508V542.864ZM588.14 542.864V541.864C587.417 541.864 586.727 542.094 586.216 542.605C585.706 543.116 585.476 543.805 585.476 544.528H586.476H587.476C587.476 544.227 587.565 544.084 587.631 544.019C587.696 543.954 587.838 543.864 588.14 543.864V542.864ZM586.476 544.528H585.476V552.592H586.476H587.476V544.528H586.476ZM586.476 552.592H585.476C585.476 553.333 585.698 554.035 586.226 554.549C586.75 555.058 587.445 555.256 588.14 555.256V554.256V553.256C587.81 553.256 587.673 553.166 587.621 553.115C587.573 553.069 587.476 552.939 587.476 552.592H586.476ZM588.14 554.256V555.256H599.788V554.256V553.256H588.14V554.256ZM599.788 554.256V555.256C600.561 555.256 601.009 555.472 601.267 555.733C601.527 555.998 601.732 556.451 601.732 557.2H602.732H603.732C603.732 556.093 603.424 555.074 602.692 554.331C601.958 553.584 600.934 553.256 599.788 553.256V554.256ZM602.732 557.2H601.732V559.056H602.732H603.732V557.2H602.732ZM602.732 559.056H601.732C601.732 559.829 601.516 560.278 601.254 560.535C600.989 560.796 600.537 561 599.788 561V562V563C600.894 563 601.914 562.692 602.657 561.961C603.403 561.226 603.732 560.203 603.732 559.056H602.732ZM599.788 562V561H580.972V562V563H599.788V562ZM580.972 562V561C580.198 561 579.75 560.784 579.492 560.523C579.232 560.258 579.028 559.805 579.028 559.056H578.028H577.028C577.028 560.163 577.335 561.182 578.067 561.925C578.801 562.672 579.825 563 580.972 563V562ZM578.028 559.056H579.028V520.144H578.028H577.028V559.056H578.028ZM619.378 519.184L620.24 518.678L620.234 518.668L620.228 518.658L619.378 519.184ZM633.394 543.056L634.264 542.564L634.26 542.557L634.256 542.55L633.394 543.056ZM634.162 560.08L635.012 559.554L635.009 559.549L634.162 560.08ZM620.274 537.936L619.423 538.462L619.426 538.467L620.274 537.936ZM612.722 562V561C611.988 561 611.532 560.789 611.261 560.517C610.989 560.245 610.778 559.789 610.778 559.056H609.778H608.778C608.778 560.179 609.11 561.195 609.846 561.931C610.583 562.667 611.599 563 612.722 563V562ZM609.778 559.056H610.778V520.144H609.778H608.778V559.056H609.778ZM609.778 520.144H610.778C610.778 519.371 610.993 518.922 611.255 518.665C611.52 518.404 611.972 518.2 612.722 518.2V517.2V516.2C611.615 516.2 610.595 516.508 609.852 517.239C609.106 517.974 608.778 518.997 608.778 520.144H609.778ZM612.722 517.2V518.2H615.922V517.2V516.2H612.722V517.2ZM615.922 517.2V518.2C616.583 518.2 617.056 518.331 617.432 518.551C617.813 518.774 618.17 519.133 618.527 519.71L619.378 519.184L620.228 518.658C619.753 517.891 619.182 517.258 618.443 516.825C617.699 516.389 616.86 516.2 615.922 516.2V517.2ZM619.378 519.184L618.515 519.69L632.531 543.562L633.394 543.056L634.256 542.55L620.24 518.678L619.378 519.184ZM633.394 543.056L632.523 543.548C632.998 544.389 633.895 545.234 635.008 544.871C636.042 544.533 636.378 543.407 636.378 542.48H635.378H634.378C634.378 542.621 634.365 542.735 634.347 542.825C634.328 542.915 634.305 542.974 634.289 543.008C634.272 543.042 634.264 543.044 634.278 543.031C634.294 543.016 634.329 542.988 634.387 542.969C634.446 542.95 634.503 542.948 634.547 542.955C634.587 542.962 634.599 542.973 634.583 542.963C634.566 542.952 634.524 542.922 634.466 542.857C634.408 542.791 634.339 542.696 634.264 542.564L633.394 543.056ZM635.378 542.48H636.378V520.144H635.378H634.378V542.48H635.378ZM635.378 520.144H636.378C636.378 519.371 636.593 518.922 636.855 518.665C637.12 518.404 637.572 518.2 638.322 518.2V517.2V516.2C637.215 516.2 636.195 516.508 635.452 517.239C634.706 517.974 634.378 518.997 634.378 520.144H635.378ZM638.322 517.2V518.2H640.882V517.2V516.2H638.322V517.2ZM640.882 517.2V518.2C641.655 518.2 642.103 518.416 642.361 518.677C642.621 518.942 642.826 519.395 642.826 520.144H643.826H644.826C644.826 519.037 644.518 518.018 643.786 517.275C643.052 516.528 642.028 516.2 640.882 516.2V517.2ZM643.826 520.144H642.826V559.056H643.826H644.826V520.144H643.826ZM643.826 559.056H642.826C642.826 559.829 642.61 560.278 642.348 560.535C642.083 560.796 641.631 561 640.882 561V562V563C641.988 563 643.008 562.692 643.751 561.961C644.497 561.226 644.826 560.203 644.826 559.056H643.826ZM640.882 562V561H637.682V562V563H640.882V562ZM637.682 562V561C637.002 561 636.504 560.878 636.11 560.665C635.718 560.453 635.357 560.111 635.012 559.554L634.162 560.08L633.311 560.606C633.798 561.393 634.397 562.011 635.157 562.423C635.915 562.834 636.761 563 637.682 563V562ZM634.162 560.08L635.009 559.549L621.121 537.405L620.274 537.936L619.426 538.467L633.314 560.611L634.162 560.08ZM620.274 537.936L621.124 537.41C620.62 536.596 619.726 535.867 618.673 536.156C617.607 536.448 617.226 537.545 617.226 538.512H618.226H619.226C619.226 538.23 619.28 538.085 619.307 538.035C619.32 538.012 619.322 538.017 619.303 538.033C619.283 538.05 619.249 538.072 619.202 538.084C619.156 538.097 619.117 538.096 619.095 538.092C619.074 538.088 619.076 538.085 619.101 538.099C619.155 538.13 619.278 538.227 619.423 538.462L620.274 537.936ZM618.226 538.512H617.226V559.056H618.226H619.226V538.512H618.226ZM618.226 559.056H617.226C617.226 559.789 617.014 560.245 616.742 560.517C616.471 560.789 616.015 561 615.282 561V562V563C616.404 563 617.42 562.667 618.157 561.931C618.893 561.195 619.226 560.179 619.226 559.056H618.226ZM615.282 562V561H612.722V562V563H615.282V562ZM686.822 525.136L687.625 524.541L687.619 524.533L686.822 525.136ZM685.35 528.976L685.071 528.016L685.06 528.019L685.05 528.022L685.35 528.976ZM683.11 529.68L682.81 528.726L682.805 528.728L683.11 529.68ZM679.206 528.464L679.932 527.776L679.922 527.766L679.206 528.464ZM683.11 547.984L684.017 548.405L684.02 548.398L684.023 548.39L683.11 547.984ZM670.95 562.768V561.768C658.61 561.768 649.358 551.885 649.358 539.6H648.358H647.358C647.358 552.915 657.433 563.768 670.95 563.768V562.768ZM648.358 539.6H649.358C649.358 527.352 658.636 517.496 669.99 517.496V516.496V515.496C657.407 515.496 647.358 526.376 647.358 539.6H648.358ZM669.99 516.496V517.496C676.428 517.496 682.225 520.715 686.024 525.739L686.822 525.136L687.619 524.533C683.482 519.061 677.119 515.496 669.99 515.496V516.496ZM686.822 525.136L686.018 525.731C686.517 526.405 686.492 526.85 686.386 527.103C686.264 527.397 685.892 527.777 685.071 528.016L685.35 528.976L685.628 529.936C686.791 529.599 687.795 528.923 688.233 527.873C688.687 526.782 688.406 525.595 687.625 524.541L686.822 525.136ZM685.35 528.976L685.05 528.022L682.81 528.726L683.11 529.68L683.409 530.634L685.649 529.93L685.35 528.976ZM683.11 529.68L682.805 528.728C682.176 528.929 681.711 528.91 681.313 528.774C680.892 528.63 680.448 528.322 679.931 527.776L679.206 528.464L678.48 529.152C679.115 529.822 679.823 530.378 680.666 530.666C681.532 530.962 682.443 530.943 683.414 530.632L683.11 529.68ZM679.206 528.464L679.922 527.766C677.395 525.172 673.883 523.432 670.118 523.432V524.432V525.432C673.264 525.432 676.28 526.892 678.489 529.162L679.206 528.464ZM670.118 524.432V523.432C662.142 523.432 655.742 531.185 655.742 539.664H656.742H657.742C657.742 532.015 663.501 525.432 670.118 525.432V524.432ZM656.742 539.664H655.742C655.742 548.264 662.192 555.896 671.206 555.896V554.896V553.896C663.451 553.896 657.742 547.32 657.742 539.664H656.742ZM671.206 554.896V555.896C678.276 555.896 682.199 552.319 684.017 548.405L683.11 547.984L682.202 547.563C680.692 550.817 677.447 553.896 671.206 553.896V554.896ZM683.11 547.984L684.023 548.39C684.373 547.604 684.419 546.715 683.89 545.998C683.385 545.314 682.555 545.064 681.766 545.064V546.064V547.064C681.968 547.064 682.104 547.096 682.186 547.129C682.226 547.145 682.251 547.161 682.264 547.171C682.271 547.176 682.275 547.179 682.277 547.182C682.28 547.184 682.281 547.186 682.281 547.186C682.281 547.186 682.281 547.186 682.281 547.186C682.281 547.185 682.281 547.186 682.282 547.188C682.282 547.19 682.286 547.202 682.287 547.228C682.289 547.281 682.277 547.395 682.196 547.578L683.11 547.984ZM681.766 546.064V545.064H673.382V546.064V547.064H681.766V546.064ZM673.382 546.064V545.064C672.608 545.064 672.16 544.848 671.902 544.587C671.642 544.322 671.438 543.869 671.438 543.12H670.438H669.438C669.438 544.227 669.745 545.246 670.477 545.989C671.211 546.736 672.235 547.064 673.382 547.064V546.064ZM670.438 543.12H671.438V541.264H670.438H669.438V543.12H670.438ZM670.438 541.264H671.438C671.438 540.491 671.653 540.042 671.915 539.785C672.18 539.524 672.632 539.32 673.382 539.32V538.32V537.32C672.275 537.32 671.255 537.628 670.512 538.359C669.766 539.094 669.438 540.117 669.438 541.264H670.438ZM673.382 538.32V539.32H688.422V538.32V537.32H673.382V538.32ZM688.422 538.32V539.32C689.43 539.32 689.903 539.339 690.178 539.428C690.228 539.444 690.254 539.458 690.264 539.464C690.273 539.47 690.275 539.473 690.278 539.475C690.282 539.48 690.326 539.532 690.371 539.715C690.474 540.127 690.504 540.824 690.491 542.089C690.478 543.299 690.43 544.973 690.43 547.152H691.43H692.43C692.43 544.979 692.477 543.373 692.49 542.111C692.503 540.904 692.489 539.937 692.312 539.229C692.217 538.852 692.062 538.48 691.788 538.164C691.505 537.838 691.157 537.642 690.791 537.524C690.148 537.317 689.301 537.32 688.422 537.32V538.32ZM691.43 547.152H690.43C690.43 550.109 688.45 553.758 684.916 556.713C681.415 559.641 676.517 561.768 670.95 561.768V562.768V563.768C677.03 563.768 682.372 561.447 686.199 558.247C689.993 555.074 692.43 550.915 692.43 547.152H691.43ZM696.653 520.144H697.653C697.653 519.411 697.864 518.955 698.136 518.683C698.407 518.411 698.863 518.2 699.597 518.2V517.2V516.2C698.474 516.2 697.458 516.533 696.721 517.269C695.985 518.005 695.653 519.021 695.653 520.144H696.653ZM699.597 517.2V518.2H702.157V517.2V516.2H699.597V517.2ZM702.157 517.2V518.2C702.93 518.2 703.378 518.416 703.636 518.677C703.896 518.942 704.101 519.395 704.101 520.144H705.101H706.101C706.101 519.037 705.793 518.018 705.061 517.275C704.327 516.528 703.303 516.2 702.157 516.2V517.2ZM705.101 520.144H704.101V559.056H705.101H706.101V520.144H705.101ZM705.101 559.056H704.101C704.101 559.829 703.885 560.278 703.623 560.535C703.358 560.796 702.906 561 702.157 561V562V563C703.263 563 704.283 562.692 705.026 561.961C705.772 561.226 706.101 560.203 706.101 559.056H705.101ZM702.157 562V561H699.597V562V563H702.157V562ZM699.597 562V561C698.823 561 698.375 560.784 698.117 560.523C697.857 560.258 697.653 559.805 697.653 559.056H696.653H695.653C695.653 560.163 695.96 561.182 696.692 561.925C697.426 562.672 698.45 563 699.597 563V562ZM696.653 559.056H697.653V520.144H696.653H695.653V559.056H696.653ZM722.378 519.184L723.24 518.678L723.234 518.668L723.228 518.658L722.378 519.184ZM736.394 543.056L737.264 542.564L737.26 542.557L737.256 542.55L736.394 543.056ZM737.162 560.08L738.012 559.554L738.009 559.549L737.162 560.08ZM723.274 537.936L722.423 538.462L722.426 538.467L723.274 537.936ZM715.722 562V561C714.988 561 714.532 560.789 714.261 560.517C713.989 560.245 713.778 559.789 713.778 559.056H712.778H711.778C711.778 560.179 712.11 561.195 712.846 561.931C713.583 562.667 714.599 563 715.722 563V562ZM712.778 559.056H713.778V520.144H712.778H711.778V559.056H712.778ZM712.778 520.144H713.778C713.778 519.371 713.993 518.922 714.255 518.665C714.52 518.404 714.972 518.2 715.722 518.2V517.2V516.2C714.615 516.2 713.595 516.508 712.852 517.239C712.106 517.974 711.778 518.997 711.778 520.144H712.778ZM715.722 517.2V518.2H718.922V517.2V516.2H715.722V517.2ZM718.922 517.2V518.2C719.583 518.2 720.056 518.331 720.432 518.551C720.813 518.774 721.17 519.133 721.527 519.71L722.378 519.184L723.228 518.658C722.753 517.891 722.182 517.258 721.443 516.825C720.699 516.389 719.86 516.2 718.922 516.2V517.2ZM722.378 519.184L721.515 519.69L735.531 543.562L736.394 543.056L737.256 542.55L723.24 518.678L722.378 519.184ZM736.394 543.056L735.523 543.548C735.998 544.389 736.895 545.234 738.008 544.871C739.042 544.533 739.378 543.407 739.378 542.48H738.378H737.378C737.378 542.621 737.365 542.735 737.347 542.825C737.328 542.915 737.305 542.974 737.289 543.008C737.272 543.042 737.264 543.044 737.278 543.031C737.294 543.016 737.329 542.988 737.387 542.969C737.446 542.95 737.503 542.948 737.547 542.955C737.587 542.962 737.599 542.973 737.583 542.963C737.566 542.952 737.524 542.922 737.466 542.857C737.408 542.791 737.339 542.696 737.264 542.564L736.394 543.056ZM738.378 542.48H739.378V520.144H738.378H737.378V542.48H738.378ZM738.378 520.144H739.378C739.378 519.371 739.593 518.922 739.855 518.665C740.12 518.404 740.572 518.2 741.322 518.2V517.2V516.2C740.215 516.2 739.195 516.508 738.452 517.239C737.706 517.974 737.378 518.997 737.378 520.144H738.378ZM741.322 517.2V518.2H743.882V517.2V516.2H741.322V517.2ZM743.882 517.2V518.2C744.655 518.2 745.103 518.416 745.361 518.677C745.621 518.942 745.826 519.395 745.826 520.144H746.826H747.826C747.826 519.037 747.518 518.018 746.786 517.275C746.052 516.528 745.028 516.2 743.882 516.2V517.2ZM746.826 520.144H745.826V559.056H746.826H747.826V520.144H746.826ZM746.826 559.056H745.826C745.826 559.829 745.61 560.278 745.348 560.535C745.083 560.796 744.631 561 743.882 561V562V563C744.988 563 746.008 562.692 746.751 561.961C747.497 561.226 747.826 560.203 747.826 559.056H746.826ZM743.882 562V561H740.682V562V563H743.882V562ZM740.682 562V561C740.002 561 739.504 560.878 739.11 560.665C738.718 560.453 738.357 560.111 738.012 559.554L737.162 560.08L736.311 560.606C736.798 561.393 737.397 562.011 738.157 562.423C738.915 562.834 739.761 563 740.682 563V562ZM737.162 560.08L738.009 559.549L724.121 537.405L723.274 537.936L722.426 538.467L736.314 560.611L737.162 560.08ZM723.274 537.936L724.124 537.41C723.62 536.596 722.726 535.867 721.673 536.156C720.607 536.448 720.226 537.545 720.226 538.512H721.226H722.226C722.226 538.23 722.28 538.085 722.307 538.035C722.32 538.012 722.322 538.017 722.303 538.033C722.283 538.05 722.249 538.072 722.202 538.084C722.156 538.097 722.117 538.096 722.095 538.092C722.074 538.088 722.076 538.085 722.101 538.099C722.155 538.13 722.278 538.227 722.423 538.462L723.274 537.936ZM721.226 538.512H720.226V559.056H721.226H722.226V538.512H721.226ZM721.226 559.056H720.226C720.226 559.789 720.014 560.245 719.742 560.517C719.471 560.789 719.015 561 718.282 561V562V563C719.404 563 720.42 562.667 721.157 561.931C721.893 561.195 722.226 560.179 722.226 559.056H721.226ZM718.282 562V561H715.722V562V563H718.282V562ZM754.528 520.144H755.528C755.528 519.411 755.739 518.955 756.011 518.683C756.282 518.411 756.738 518.2 757.472 518.2V517.2V516.2C756.349 516.2 755.333 516.533 754.596 517.269C753.86 518.005 753.528 519.021 753.528 520.144H754.528ZM757.472 517.2V518.2H776.288V517.2V516.2H757.472V517.2ZM776.288 517.2V518.2C777.061 518.2 777.509 518.416 777.767 518.677C778.027 518.942 778.232 519.395 778.232 520.144H779.232H780.232C780.232 519.037 779.924 518.018 779.192 517.275C778.458 516.528 777.434 516.2 776.288 516.2V517.2ZM779.232 520.144H778.232V522H779.232H780.232V520.144H779.232ZM779.232 522H778.232C778.232 522.773 778.016 523.222 777.754 523.479C777.489 523.74 777.037 523.944 776.288 523.944V524.944V525.944C777.394 525.944 778.414 525.636 779.157 524.905C779.903 524.17 780.232 523.147 780.232 522H779.232ZM776.288 524.944V523.944H764.64V524.944V525.944H776.288V524.944ZM764.64 524.944V523.944C763.917 523.944 763.227 524.174 762.716 524.685C762.206 525.196 761.976 525.885 761.976 526.608H762.976H763.976C763.976 526.307 764.065 526.164 764.131 526.099C764.196 526.034 764.338 525.944 764.64 525.944V524.944ZM762.976 526.608H761.976V533.456H762.976H763.976V526.608H762.976ZM762.976 533.456H761.976C761.976 534.179 762.206 534.868 762.716 535.379C763.227 535.89 763.917 536.12 764.64 536.12V535.12V534.12C764.338 534.12 764.196 534.03 764.131 533.965C764.065 533.9 763.976 533.757 763.976 533.456H762.976ZM764.64 535.12V536.12H775.008V535.12V534.12H764.64V535.12ZM775.008 535.12V536.12C775.781 536.12 776.229 536.336 776.487 536.597C776.747 536.862 776.952 537.315 776.952 538.064H777.952H778.952C778.952 536.957 778.644 535.938 777.912 535.195C777.178 534.448 776.154 534.12 775.008 534.12V535.12ZM777.952 538.064H776.952V539.92H777.952H778.952V538.064H777.952ZM777.952 539.92H776.952C776.952 540.693 776.736 541.142 776.474 541.399C776.209 541.66 775.757 541.864 775.008 541.864V542.864V543.864C776.114 543.864 777.134 543.556 777.877 542.825C778.623 542.09 778.952 541.067 778.952 539.92H777.952ZM775.008 542.864V541.864H764.64V542.864V543.864H775.008V542.864ZM764.64 542.864V541.864C763.917 541.864 763.227 542.094 762.716 542.605C762.206 543.116 761.976 543.805 761.976 544.528H762.976H763.976C763.976 544.227 764.065 544.084 764.131 544.019C764.196 543.954 764.338 543.864 764.64 543.864V542.864ZM762.976 544.528H761.976V552.592H762.976H763.976V544.528H762.976ZM762.976 552.592H761.976C761.976 553.333 762.198 554.035 762.726 554.549C763.25 555.058 763.945 555.256 764.64 555.256V554.256V553.256C764.31 553.256 764.173 553.166 764.121 553.115C764.073 553.069 763.976 552.939 763.976 552.592H762.976ZM764.64 554.256V555.256H776.288V554.256V553.256H764.64V554.256ZM776.288 554.256V555.256C777.061 555.256 777.509 555.472 777.767 555.733C778.027 555.998 778.232 556.451 778.232 557.2H779.232H780.232C780.232 556.093 779.924 555.074 779.192 554.331C778.458 553.584 777.434 553.256 776.288 553.256V554.256ZM779.232 557.2H778.232V559.056H779.232H780.232V557.2H779.232ZM779.232 559.056H778.232C778.232 559.829 778.016 560.278 777.754 560.535C777.489 560.796 777.037 561 776.288 561V562V563C777.394 563 778.414 562.692 779.157 561.961C779.903 561.226 780.232 560.203 780.232 559.056H779.232ZM776.288 562V561H757.472V562V563H776.288V562ZM757.472 562V561C756.698 561 756.25 560.784 755.992 560.523C755.732 560.258 755.528 559.805 755.528 559.056H754.528H753.528C753.528 560.163 753.835 561.182 754.567 561.925C755.301 562.672 756.325 563 757.472 563V562ZM754.528 559.056H755.528V520.144H754.528H753.528V559.056H754.528Z" fill="#05DDEA" mask="url(#path-6-outside-1_254_6)"/>
</svg>
