<svg width="1164" height="540" viewBox="0 0 1164 540" fill="none" xmlns="http://www.w3.org/2000/svg">
<path d="M1113.68 313.288C1113.68 309.576 1115.86 307.4 1119.57 307.4H1157.2C1161.04 307.4 1163.09 309.576 1163.09 313.288V317C1163.09 320.84 1160.91 322.888 1157.2 322.888H1133.9C1131.86 322.888 1130.58 324.168 1130.58 326.216V339.912C1130.58 341.96 1131.86 343.24 1133.9 343.24H1154.64C1158.48 343.24 1160.53 345.416 1160.53 349.128V352.84C1160.53 356.68 1158.35 358.728 1154.64 358.728H1133.9C1131.86 358.728 1130.58 360.008 1130.58 362.056V378.184C1130.58 380.36 1131.86 381.512 1133.9 381.512H1157.2C1161.04 381.512 1163.09 383.688 1163.09 387.4V391.112C1163.09 394.952 1160.91 397 1157.2 397H1119.57C1115.73 397 1113.68 394.824 1113.68 391.112V313.288Z" fill="white"/>
<path d="M1036.07 397C1032.36 397 1030.18 394.824 1030.18 391.112V313.288C1030.18 309.448 1032.36 307.4 1036.07 307.4H1042.47C1045.67 307.4 1047.72 308.68 1049.38 311.368L1077.41 359.112C1079.08 362.056 1081.38 361.16 1081.38 357.96V313.288C1081.38 309.448 1083.56 307.4 1087.27 307.4H1092.39C1096.23 307.4 1098.28 309.576 1098.28 313.288V391.112C1098.28 394.952 1096.1 397 1092.39 397H1085.99C1082.79 397 1080.61 395.848 1078.95 393.16L1051.17 348.872C1049.51 346.184 1047.08 346.824 1047.08 350.024V391.112C1047.08 394.824 1044.9 397 1041.19 397H1036.07Z" fill="white"/>
<path d="M997.93 313.288C997.93 309.576 1000.11 307.4 1003.82 307.4H1008.94C1012.78 307.4 1014.83 309.576 1014.83 313.288V391.112C1014.83 394.952 1012.65 397 1008.94 397H1003.82C999.978 397 997.93 394.824 997.93 391.112V313.288Z" fill="white"/>
<path d="M946.524 398.536C920.668 398.536 901.34 377.8 901.34 352.2C901.34 326.728 920.668 305.992 944.604 305.992C958.172 305.992 970.332 312.776 978.268 323.272C980.828 326.728 979.292 329.8 975.324 330.952L970.844 332.36C967.644 333.384 965.34 332.36 963.036 329.928C958.3 325.064 951.772 321.864 944.86 321.864C930.268 321.864 918.108 336.2 918.108 352.328C918.108 368.584 930.268 382.792 947.036 382.792C960.348 382.792 967.516 376.136 970.844 368.968C971.868 366.664 970.588 365.128 968.156 365.128H951.388C947.548 365.128 945.5 362.952 945.5 359.24V355.528C945.5 351.688 947.676 349.64 951.388 349.64H981.468C989.02 349.64 987.484 349.896 987.484 367.304C987.484 380.744 969.82 398.536 946.524 398.536Z" fill="white"/>
<path d="M830.068 397C826.356 397 824.18 394.824 824.18 391.112V313.288C824.18 309.448 826.356 307.4 830.068 307.4H836.468C839.668 307.4 841.716 308.68 843.38 311.368L871.412 359.112C873.076 362.056 875.38 361.16 875.38 357.96V313.288C875.38 309.448 877.556 307.4 881.268 307.4H886.388C890.228 307.4 892.276 309.576 892.276 313.288V391.112C892.276 394.952 890.1 397 886.388 397H879.988C876.788 397 874.612 395.848 872.948 393.16L845.172 348.872C843.508 346.184 841.076 346.824 841.076 350.024V391.112C841.076 394.824 838.9 397 835.188 397H830.068Z" fill="white"/>
<path d="M760.68 313.288C760.68 309.576 762.856 307.4 766.568 307.4H804.2C808.04 307.4 810.088 309.576 810.088 313.288V317C810.088 320.84 807.912 322.888 804.2 322.888H780.904C778.856 322.888 777.576 324.168 777.576 326.216V339.912C777.576 341.96 778.856 343.24 780.904 343.24H801.64C805.48 343.24 807.528 345.416 807.528 349.128V352.84C807.528 356.68 805.352 358.728 801.64 358.728H780.904C778.856 358.728 777.576 360.008 777.576 362.056V378.184C777.576 380.36 778.856 381.512 780.904 381.512H804.2C808.04 381.512 810.088 383.688 810.088 387.4V391.112C810.088 394.952 807.912 397 804.2 397H766.568C762.728 397 760.68 394.824 760.68 391.112V313.288Z" fill="white"/>
<path d="M663.18 313.288C663.18 309.576 665.356 307.4 669.068 307.4H674.188C678.028 307.4 680.076 309.576 680.076 313.288V338.248C680.076 340.424 681.356 341.704 683.532 341.32C696.844 339.144 703.372 327.24 704.268 313.288C704.524 309.448 706.572 307.4 710.284 307.4H715.404C719.244 307.4 721.292 309.448 721.164 313.416C720.524 326.984 717.452 338.632 706.316 347.336C704.524 348.744 704.396 350.28 706.316 351.816C717.836 361.288 722.188 372.296 723.34 390.856C723.596 394.824 721.42 397 717.58 397H712.46C708.748 397 706.828 394.952 706.444 391.112C704.78 371.272 695.052 361.16 683.66 358.344C681.484 357.832 680.076 359.112 680.076 361.416V391.112C680.076 394.952 677.9 397 674.188 397H669.068C665.228 397 663.18 394.824 663.18 391.112V313.288Z" fill="white"/>
<path d="M585.568 397C581.856 397 579.68 394.824 579.68 391.112V313.288C579.68 309.448 581.856 307.4 585.568 307.4H591.968C595.168 307.4 597.216 308.68 598.88 311.368L626.912 359.112C628.576 362.056 630.88 361.16 630.88 357.96V313.288C630.88 309.448 633.056 307.4 636.768 307.4H641.888C645.728 307.4 647.776 309.576 647.776 313.288V391.112C647.776 394.952 645.6 397 641.888 397H635.488C632.288 397 630.112 395.848 628.448 393.16L600.672 348.872C599.008 346.184 596.576 346.824 596.576 350.024V391.112C596.576 394.824 594.4 397 590.688 397H585.568Z" fill="white"/>
<path d="M505.653 392.392C504.501 395.464 502.197 397 498.869 397H492.981C488.629 397 486.709 394.312 488.373 390.216L519.733 312.008C521.013 308.936 523.189 307.4 526.517 307.4H528.949C532.277 307.4 534.453 308.68 535.733 311.88L569.013 390.088C570.677 394.184 568.885 397 564.533 397H558.773C555.445 397 553.141 395.592 551.861 392.392L549.045 385.352C548.405 383.56 547.125 382.792 545.205 382.792H512.181C510.261 382.792 508.981 383.56 508.341 385.352L505.653 392.392ZM516.277 363.592C515.381 365.896 516.405 367.432 518.837 367.432H537.781C540.213 367.432 541.237 365.896 540.341 363.592L530.229 339.144C529.077 336.456 526.773 336.328 525.749 339.144L516.277 363.592Z" fill="white"/>
<path d="M445.584 307.4C467.216 307.4 478.096 319.432 478.096 338.376C478.096 349.128 474.128 357.32 466.448 362.312C464.528 363.72 464.4 365 466.192 366.536C473.616 372.68 477.456 382.152 478.736 390.984C479.376 394.824 476.944 397 473.104 397H469.136C465.552 397 463.76 395.08 462.992 391.496C461.072 382.152 454.16 370.248 439.696 368.2L438.032 368.072C435.856 367.944 434.576 369.224 434.576 371.4V391.112C434.576 394.824 432.4 397 428.688 397H423.568C419.728 397 417.68 394.824 417.68 391.112V313.288C417.68 309.448 419.856 307.4 423.568 307.4H445.584ZM445.2 353.224C467.344 353.224 467.344 322.888 446.352 322.888H437.904C435.856 322.888 434.576 324.168 434.576 326.216V349.896C434.576 351.944 435.856 353.224 437.904 353.224H445.2Z" fill="white"/>
<path d="M369.979 398.536C346.043 398.536 326.715 377.8 326.715 352.2C326.715 326.728 346.043 305.992 369.979 305.992C383.547 305.992 395.707 312.776 403.643 323.272C406.203 326.728 404.795 329.672 400.699 330.952L396.987 332.104C393.787 333.128 391.483 332.104 389.179 329.672C384.315 324.68 377.787 321.48 370.619 321.48C355.771 321.48 343.483 335.944 343.483 352.328C343.483 368.84 355.771 383.176 370.619 383.176C378.811 383.176 385.083 378.824 389.691 372.296C391.611 369.48 393.787 368.328 396.987 368.712L400.955 369.096C404.923 369.48 407.099 371.4 406.331 373.96C402.235 385.864 389.563 398.536 369.979 398.536Z" fill="white"/>
<path d="M257.318 397C253.606 397 251.43 394.824 251.43 391.112V313.288C251.43 309.448 253.606 307.4 257.318 307.4H274.214C307.11 307.4 319.526 326.728 319.526 351.944C319.526 375.496 306.982 396.616 274.214 397.128L257.318 397ZM268.326 376.648C268.326 378.696 269.478 379.976 271.654 379.976C273.702 379.976 275.878 379.976 275.878 379.976C311.206 379.976 311.334 323.912 276.39 323.912L271.654 324.04C269.606 324.04 268.326 325.32 268.326 327.368V376.648Z" fill="white"/>
<path d="M173.818 397C170.106 397 167.93 394.824 167.93 391.112V313.288C167.93 309.448 170.106 307.4 173.818 307.4H180.218C183.418 307.4 185.466 308.68 187.13 311.368L215.162 359.112C216.826 362.056 219.13 361.16 219.13 357.96V313.288C219.13 309.448 221.306 307.4 225.018 307.4H230.138C233.978 307.4 236.026 309.576 236.026 313.288V391.112C236.026 394.952 233.85 397 230.138 397H223.738C220.538 397 218.362 395.848 216.698 393.16L188.922 348.872C187.258 346.184 184.826 346.824 184.826 350.024V391.112C184.826 394.824 182.65 397 178.938 397H173.818Z" fill="white"/>
<path d="M93.903 392.392C92.751 395.464 90.447 397 87.119 397H81.231C76.879 397 74.959 394.312 76.623 390.216L107.983 312.008C109.263 308.936 111.439 307.4 114.767 307.4H117.199C120.527 307.4 122.703 308.68 123.983 311.88L157.263 390.088C158.927 394.184 157.135 397 152.783 397H147.023C143.695 397 141.391 395.592 140.111 392.392L137.295 385.352C136.655 383.56 135.375 382.792 133.455 382.792H100.431C98.511 382.792 97.231 383.56 96.591 385.352L93.903 392.392ZM104.527 363.592C103.631 365.896 104.655 367.432 107.087 367.432H126.031C128.463 367.432 129.487 365.896 128.591 363.592L118.479 339.144C117.327 336.456 115.023 336.328 113.999 339.144L104.527 363.592Z" fill="white"/>
<path d="M0.680176 313.288C0.680176 309.576 2.85618 307.4 6.56818 307.4H11.6882C15.5282 307.4 17.5762 309.576 17.5762 313.288V340.168C17.5762 342.344 18.8562 343.496 20.9042 343.496H48.5522C50.6002 343.496 51.8802 342.216 51.8802 340.168V313.288C51.8802 309.448 54.0562 307.4 57.7682 307.4H62.8882C66.7282 307.4 68.7762 309.576 68.7762 313.288V391.112C68.7762 394.952 66.6002 397 62.8882 397H57.7682C53.9282 397 51.8802 394.824 51.8802 391.112V362.312C51.8802 360.136 50.6002 358.984 48.5522 358.984H20.9042C18.8562 358.984 17.5762 360.264 17.5762 362.312V391.112C17.5762 394.824 15.4002 397 11.6882 397H6.56818C2.72818 397 0.680176 394.824 0.680176 391.112V313.288Z" fill="white"/>
<path opacity="0.5" d="M1113.68 211.288C1113.68 207.576 1115.86 205.4 1119.57 205.4H1157.2C1161.04 205.4 1163.09 207.576 1163.09 211.288V215C1163.09 218.84 1160.91 220.888 1157.2 220.888H1133.9C1131.86 220.888 1130.58 222.168 1130.58 224.216V237.912C1130.58 239.96 1131.86 241.24 1133.9 241.24H1154.64C1158.48 241.24 1160.53 243.416 1160.53 247.128V250.84C1160.53 254.68 1158.35 256.728 1154.64 256.728H1133.9C1131.86 256.728 1130.58 258.008 1130.58 260.056V276.184C1130.58 278.36 1131.86 279.512 1133.9 279.512H1157.2C1161.04 279.512 1163.09 281.688 1163.09 285.4V289.112C1163.09 292.952 1160.91 295 1157.2 295H1119.57C1115.73 295 1113.68 292.824 1113.68 289.112V211.288Z" fill="white"/>
<path opacity="0.5" d="M1036.07 295C1032.36 295 1030.18 292.824 1030.18 289.112V211.288C1030.18 207.448 1032.36 205.4 1036.07 205.4H1042.47C1045.67 205.4 1047.72 206.68 1049.38 209.368L1077.41 257.112C1079.08 260.056 1081.38 259.16 1081.38 255.96V211.288C1081.38 207.448 1083.56 205.4 1087.27 205.4H1092.39C1096.23 205.4 1098.28 207.576 1098.28 211.288V289.112C1098.28 292.952 1096.1 295 1092.39 295H1085.99C1082.79 295 1080.61 293.848 1078.95 291.16L1051.17 246.872C1049.51 244.184 1047.08 244.824 1047.08 248.024V289.112C1047.08 292.824 1044.9 295 1041.19 295H1036.07Z" fill="white"/>
<path opacity="0.5" d="M997.93 211.288C997.93 207.576 1000.11 205.4 1003.82 205.4H1008.94C1012.78 205.4 1014.83 207.576 1014.83 211.288V289.112C1014.83 292.952 1012.65 295 1008.94 295H1003.82C999.978 295 997.93 292.824 997.93 289.112V211.288Z" fill="white"/>
<path opacity="0.5" d="M946.524 296.536C920.668 296.536 901.34 275.8 901.34 250.2C901.34 224.728 920.668 203.992 944.604 203.992C958.172 203.992 970.332 210.776 978.268 221.272C980.828 224.728 979.292 227.8 975.324 228.952L970.844 230.36C967.644 231.384 965.34 230.36 963.036 227.928C958.3 223.064 951.772 219.864 944.86 219.864C930.268 219.864 918.108 234.2 918.108 250.328C918.108 266.584 930.268 280.792 947.036 280.792C960.348 280.792 967.516 274.136 970.844 266.968C971.868 264.664 970.588 263.128 968.156 263.128H951.388C947.548 263.128 945.5 260.952 945.5 257.24V253.528C945.5 249.688 947.676 247.64 951.388 247.64H981.468C989.02 247.64 987.484 247.896 987.484 265.304C987.484 278.744 969.82 296.536 946.524 296.536Z" fill="white"/>
<path opacity="0.5" d="M830.068 295C826.356 295 824.18 292.824 824.18 289.112V211.288C824.18 207.448 826.356 205.4 830.068 205.4H836.468C839.668 205.4 841.716 206.68 843.38 209.368L871.412 257.112C873.076 260.056 875.38 259.16 875.38 255.96V211.288C875.38 207.448 877.556 205.4 881.268 205.4H886.388C890.228 205.4 892.276 207.576 892.276 211.288V289.112C892.276 292.952 890.1 295 886.388 295H879.988C876.788 295 874.612 293.848 872.948 291.16L845.172 246.872C843.508 244.184 841.076 244.824 841.076 248.024V289.112C841.076 292.824 838.9 295 835.188 295H830.068Z" fill="white"/>
<path opacity="0.5" d="M760.68 211.288C760.68 207.576 762.856 205.4 766.568 205.4H804.2C808.04 205.4 810.088 207.576 810.088 211.288V215C810.088 218.84 807.912 220.888 804.2 220.888H780.904C778.856 220.888 777.576 222.168 777.576 224.216V237.912C777.576 239.96 778.856 241.24 780.904 241.24H801.64C805.48 241.24 807.528 243.416 807.528 247.128V250.84C807.528 254.68 805.352 256.728 801.64 256.728H780.904C778.856 256.728 777.576 258.008 777.576 260.056V276.184C777.576 278.36 778.856 279.512 780.904 279.512H804.2C808.04 279.512 810.088 281.688 810.088 285.4V289.112C810.088 292.952 807.912 295 804.2 295H766.568C762.728 295 760.68 292.824 760.68 289.112V211.288Z" fill="white"/>
<path opacity="0.5" d="M663.18 211.288C663.18 207.576 665.356 205.4 669.068 205.4H674.188C678.028 205.4 680.076 207.576 680.076 211.288V236.248C680.076 238.424 681.356 239.704 683.532 239.32C696.844 237.144 703.372 225.24 704.268 211.288C704.524 207.448 706.572 205.4 710.284 205.4H715.404C719.244 205.4 721.292 207.448 721.164 211.416C720.524 224.984 717.452 236.632 706.316 245.336C704.524 246.744 704.396 248.28 706.316 249.816C717.836 259.288 722.188 270.296 723.34 288.856C723.596 292.824 721.42 295 717.58 295H712.46C708.748 295 706.828 292.952 706.444 289.112C704.78 269.272 695.052 259.16 683.66 256.344C681.484 255.832 680.076 257.112 680.076 259.416V289.112C680.076 292.952 677.9 295 674.188 295H669.068C665.228 295 663.18 292.824 663.18 289.112V211.288Z" fill="white"/>
<path opacity="0.5" d="M585.568 295C581.856 295 579.68 292.824 579.68 289.112V211.288C579.68 207.448 581.856 205.4 585.568 205.4H591.968C595.168 205.4 597.216 206.68 598.88 209.368L626.912 257.112C628.576 260.056 630.88 259.16 630.88 255.96V211.288C630.88 207.448 633.056 205.4 636.768 205.4H641.888C645.728 205.4 647.776 207.576 647.776 211.288V289.112C647.776 292.952 645.6 295 641.888 295H635.488C632.288 295 630.112 293.848 628.448 291.16L600.672 246.872C599.008 244.184 596.576 244.824 596.576 248.024V289.112C596.576 292.824 594.4 295 590.688 295H585.568Z" fill="white"/>
<path opacity="0.5" d="M505.653 290.392C504.501 293.464 502.197 295 498.869 295H492.981C488.629 295 486.709 292.312 488.373 288.216L519.733 210.008C521.013 206.936 523.189 205.4 526.517 205.4H528.949C532.277 205.4 534.453 206.68 535.733 209.88L569.013 288.088C570.677 292.184 568.885 295 564.533 295H558.773C555.445 295 553.141 293.592 551.861 290.392L549.045 283.352C548.405 281.56 547.125 280.792 545.205 280.792H512.181C510.261 280.792 508.981 281.56 508.341 283.352L505.653 290.392ZM516.277 261.592C515.381 263.896 516.405 265.432 518.837 265.432H537.781C540.213 265.432 541.237 263.896 540.341 261.592L530.229 237.144C529.077 234.456 526.773 234.328 525.749 237.144L516.277 261.592Z" fill="white"/>
<path opacity="0.5" d="M445.584 205.4C467.216 205.4 478.096 217.432 478.096 236.376C478.096 247.128 474.128 255.32 466.448 260.312C464.528 261.72 464.4 263 466.192 264.536C473.616 270.68 477.456 280.152 478.736 288.984C479.376 292.824 476.944 295 473.104 295H469.136C465.552 295 463.76 293.08 462.992 289.496C461.072 280.152 454.16 268.248 439.696 266.2L438.032 266.072C435.856 265.944 434.576 267.224 434.576 269.4V289.112C434.576 292.824 432.4 295 428.688 295H423.568C419.728 295 417.68 292.824 417.68 289.112V211.288C417.68 207.448 419.856 205.4 423.568 205.4H445.584ZM445.2 251.224C467.344 251.224 467.344 220.888 446.352 220.888H437.904C435.856 220.888 434.576 222.168 434.576 224.216V247.896C434.576 249.944 435.856 251.224 437.904 251.224H445.2Z" fill="white"/>
<path opacity="0.5" d="M369.979 296.536C346.043 296.536 326.715 275.8 326.715 250.2C326.715 224.728 346.043 203.992 369.979 203.992C383.547 203.992 395.707 210.776 403.643 221.272C406.203 224.728 404.795 227.672 400.699 228.952L396.987 230.104C393.787 231.128 391.483 230.104 389.179 227.672C384.315 222.68 377.787 219.48 370.619 219.48C355.771 219.48 343.483 233.944 343.483 250.328C343.483 266.84 355.771 281.176 370.619 281.176C378.811 281.176 385.083 276.824 389.691 270.296C391.611 267.48 393.787 266.328 396.987 266.712L400.955 267.096C404.923 267.48 407.099 269.4 406.331 271.96C402.235 283.864 389.563 296.536 369.979 296.536Z" fill="white"/>
<path opacity="0.5" d="M257.318 295C253.606 295 251.43 292.824 251.43 289.112V211.288C251.43 207.448 253.606 205.4 257.318 205.4H274.214C307.11 205.4 319.526 224.728 319.526 249.944C319.526 273.496 306.982 294.616 274.214 295.128L257.318 295ZM268.326 274.648C268.326 276.696 269.478 277.976 271.654 277.976C273.702 277.976 275.878 277.976 275.878 277.976C311.206 277.976 311.334 221.912 276.39 221.912L271.654 222.04C269.606 222.04 268.326 223.32 268.326 225.368V274.648Z" fill="white"/>
<path opacity="0.5" d="M173.818 295C170.106 295 167.93 292.824 167.93 289.112V211.288C167.93 207.448 170.106 205.4 173.818 205.4H180.218C183.418 205.4 185.466 206.68 187.13 209.368L215.162 257.112C216.826 260.056 219.13 259.16 219.13 255.96V211.288C219.13 207.448 221.306 205.4 225.018 205.4H230.138C233.978 205.4 236.026 207.576 236.026 211.288V289.112C236.026 292.952 233.85 295 230.138 295H223.738C220.538 295 218.362 293.848 216.698 291.16L188.922 246.872C187.258 244.184 184.826 244.824 184.826 248.024V289.112C184.826 292.824 182.65 295 178.938 295H173.818Z" fill="white"/>
<path opacity="0.5" d="M93.903 290.392C92.751 293.464 90.447 295 87.119 295H81.231C76.879 295 74.959 292.312 76.623 288.216L107.983 210.008C109.263 206.936 111.439 205.4 114.767 205.4H117.199C120.527 205.4 122.703 206.68 123.983 209.88L157.263 288.088C158.927 292.184 157.135 295 152.783 295H147.023C143.695 295 141.391 293.592 140.111 290.392L137.295 283.352C136.655 281.56 135.375 280.792 133.455 280.792H100.431C98.511 280.792 97.231 281.56 96.591 283.352L93.903 290.392ZM104.527 261.592C103.631 263.896 104.655 265.432 107.087 265.432H126.031C128.463 265.432 129.487 263.896 128.591 261.592L118.479 237.144C117.327 234.456 115.023 234.328 113.999 237.144L104.527 261.592Z" fill="white"/>
<path opacity="0.5" d="M0.680176 211.288C0.680176 207.576 2.85618 205.4 6.56818 205.4H11.6882C15.5282 205.4 17.5762 207.576 17.5762 211.288V238.168C17.5762 240.344 18.8562 241.496 20.9042 241.496H48.5522C50.6002 241.496 51.8802 240.216 51.8802 238.168V211.288C51.8802 207.448 54.0562 205.4 57.7682 205.4H62.8882C66.7282 205.4 68.7762 207.576 68.7762 211.288V289.112C68.7762 292.952 66.6002 295 62.8882 295H57.7682C53.9282 295 51.8802 292.824 51.8802 289.112V260.312C51.8802 258.136 50.6002 256.984 48.5522 256.984H20.9042C18.8562 256.984 17.5762 258.264 17.5762 260.312V289.112C17.5762 292.824 15.4002 295 11.6882 295H6.56818C2.72818 295 0.680176 292.824 0.680176 289.112V211.288Z" fill="white"/>
<path opacity="0.25" d="M1113.68 109.288C1113.68 105.576 1115.86 103.4 1119.57 103.4H1157.2C1161.04 103.4 1163.09 105.576 1163.09 109.288V113C1163.09 116.84 1160.91 118.888 1157.2 118.888H1133.9C1131.86 118.888 1130.58 120.168 1130.58 122.216V135.912C1130.58 137.96 1131.86 139.24 1133.9 139.24H1154.64C1158.48 139.24 1160.53 141.416 1160.53 145.128V148.84C1160.53 152.68 1158.35 154.728 1154.64 154.728H1133.9C1131.86 154.728 1130.58 156.008 1130.58 158.056V174.184C1130.58 176.36 1131.86 177.512 1133.9 177.512H1157.2C1161.04 177.512 1163.09 179.688 1163.09 183.4V187.112C1163.09 190.952 1160.91 193 1157.2 193H1119.57C1115.73 193 1113.68 190.824 1113.68 187.112V109.288Z" fill="white"/>
<path opacity="0.25" d="M1036.07 193C1032.36 193 1030.18 190.824 1030.18 187.112V109.288C1030.18 105.448 1032.36 103.4 1036.07 103.4H1042.47C1045.67 103.4 1047.72 104.68 1049.38 107.368L1077.41 155.112C1079.08 158.056 1081.38 157.16 1081.38 153.96V109.288C1081.38 105.448 1083.56 103.4 1087.27 103.4H1092.39C1096.23 103.4 1098.28 105.576 1098.28 109.288V187.112C1098.28 190.952 1096.1 193 1092.39 193H1085.99C1082.79 193 1080.61 191.848 1078.95 189.16L1051.17 144.872C1049.51 142.184 1047.08 142.824 1047.08 146.024V187.112C1047.08 190.824 1044.9 193 1041.19 193H1036.07Z" fill="white"/>
<path opacity="0.25" d="M997.93 109.288C997.93 105.576 1000.11 103.4 1003.82 103.4H1008.94C1012.78 103.4 1014.83 105.576 1014.83 109.288V187.112C1014.83 190.952 1012.65 193 1008.94 193H1003.82C999.978 193 997.93 190.824 997.93 187.112V109.288Z" fill="white"/>
<path opacity="0.25" d="M946.524 194.536C920.668 194.536 901.34 173.8 901.34 148.2C901.34 122.728 920.668 101.992 944.604 101.992C958.172 101.992 970.332 108.776 978.268 119.272C980.828 122.728 979.292 125.8 975.324 126.952L970.844 128.36C967.644 129.384 965.34 128.36 963.036 125.928C958.3 121.064 951.772 117.864 944.86 117.864C930.268 117.864 918.108 132.2 918.108 148.328C918.108 164.584 930.268 178.792 947.036 178.792C960.348 178.792 967.516 172.136 970.844 164.968C971.868 162.664 970.588 161.128 968.156 161.128H951.388C947.548 161.128 945.5 158.952 945.5 155.24V151.528C945.5 147.688 947.676 145.64 951.388 145.64H981.468C989.02 145.64 987.484 145.896 987.484 163.304C987.484 176.744 969.82 194.536 946.524 194.536Z" fill="white"/>
<path opacity="0.25" d="M830.068 193C826.356 193 824.18 190.824 824.18 187.112V109.288C824.18 105.448 826.356 103.4 830.068 103.4H836.468C839.668 103.4 841.716 104.68 843.38 107.368L871.412 155.112C873.076 158.056 875.38 157.16 875.38 153.96V109.288C875.38 105.448 877.556 103.4 881.268 103.4H886.388C890.228 103.4 892.276 105.576 892.276 109.288V187.112C892.276 190.952 890.1 193 886.388 193H879.988C876.788 193 874.612 191.848 872.948 189.16L845.172 144.872C843.508 142.184 841.076 142.824 841.076 146.024V187.112C841.076 190.824 838.9 193 835.188 193H830.068Z" fill="white"/>
<path opacity="0.25" d="M760.68 109.288C760.68 105.576 762.856 103.4 766.568 103.4H804.2C808.04 103.4 810.088 105.576 810.088 109.288V113C810.088 116.84 807.912 118.888 804.2 118.888H780.904C778.856 118.888 777.576 120.168 777.576 122.216V135.912C777.576 137.96 778.856 139.24 780.904 139.24H801.64C805.48 139.24 807.528 141.416 807.528 145.128V148.84C807.528 152.68 805.352 154.728 801.64 154.728H780.904C778.856 154.728 777.576 156.008 777.576 158.056V174.184C777.576 176.36 778.856 177.512 780.904 177.512H804.2C808.04 177.512 810.088 179.688 810.088 183.4V187.112C810.088 190.952 807.912 193 804.2 193H766.568C762.728 193 760.68 190.824 760.68 187.112V109.288Z" fill="white"/>
<path opacity="0.25" d="M663.18 109.288C663.18 105.576 665.356 103.4 669.068 103.4H674.188C678.028 103.4 680.076 105.576 680.076 109.288V134.248C680.076 136.424 681.356 137.704 683.532 137.32C696.844 135.144 703.372 123.24 704.268 109.288C704.524 105.448 706.572 103.4 710.284 103.4H715.404C719.244 103.4 721.292 105.448 721.164 109.416C720.524 122.984 717.452 134.632 706.316 143.336C704.524 144.744 704.396 146.28 706.316 147.816C717.836 157.288 722.188 168.296 723.34 186.856C723.596 190.824 721.42 193 717.58 193H712.46C708.748 193 706.828 190.952 706.444 187.112C704.78 167.272 695.052 157.16 683.66 154.344C681.484 153.832 680.076 155.112 680.076 157.416V187.112C680.076 190.952 677.9 193 674.188 193H669.068C665.228 193 663.18 190.824 663.18 187.112V109.288Z" fill="white"/>
<path opacity="0.25" d="M585.568 193C581.856 193 579.68 190.824 579.68 187.112V109.288C579.68 105.448 581.856 103.4 585.568 103.4H591.968C595.168 103.4 597.216 104.68 598.88 107.368L626.912 155.112C628.576 158.056 630.88 157.16 630.88 153.96V109.288C630.88 105.448 633.056 103.4 636.768 103.4H641.888C645.728 103.4 647.776 105.576 647.776 109.288V187.112C647.776 190.952 645.6 193 641.888 193H635.488C632.288 193 630.112 191.848 628.448 189.16L600.672 144.872C599.008 142.184 596.576 142.824 596.576 146.024V187.112C596.576 190.824 594.4 193 590.688 193H585.568Z" fill="white"/>
<path opacity="0.25" d="M505.653 188.392C504.501 191.464 502.197 193 498.869 193H492.981C488.629 193 486.709 190.312 488.373 186.216L519.733 108.008C521.013 104.936 523.189 103.4 526.517 103.4H528.949C532.277 103.4 534.453 104.68 535.733 107.88L569.013 186.088C570.677 190.184 568.885 193 564.533 193H558.773C555.445 193 553.141 191.592 551.861 188.392L549.045 181.352C548.405 179.56 547.125 178.792 545.205 178.792H512.181C510.261 178.792 508.981 179.56 508.341 181.352L505.653 188.392ZM516.277 159.592C515.381 161.896 516.405 163.432 518.837 163.432H537.781C540.213 163.432 541.237 161.896 540.341 159.592L530.229 135.144C529.077 132.456 526.773 132.328 525.749 135.144L516.277 159.592Z" fill="white"/>
<path opacity="0.25" d="M445.584 103.4C467.216 103.4 478.096 115.432 478.096 134.376C478.096 145.128 474.128 153.32 466.448 158.312C464.528 159.72 464.4 161 466.192 162.536C473.616 168.68 477.456 178.152 478.736 186.984C479.376 190.824 476.944 193 473.104 193H469.136C465.552 193 463.76 191.08 462.992 187.496C461.072 178.152 454.16 166.248 439.696 164.2L438.032 164.072C435.856 163.944 434.576 165.224 434.576 167.4V187.112C434.576 190.824 432.4 193 428.688 193H423.568C419.728 193 417.68 190.824 417.68 187.112V109.288C417.68 105.448 419.856 103.4 423.568 103.4H445.584ZM445.2 149.224C467.344 149.224 467.344 118.888 446.352 118.888H437.904C435.856 118.888 434.576 120.168 434.576 122.216V145.896C434.576 147.944 435.856 149.224 437.904 149.224H445.2Z" fill="white"/>
<path opacity="0.25" d="M369.979 194.536C346.043 194.536 326.715 173.8 326.715 148.2C326.715 122.728 346.043 101.992 369.979 101.992C383.547 101.992 395.707 108.776 403.643 119.272C406.203 122.728 404.795 125.672 400.699 126.952L396.987 128.104C393.787 129.128 391.483 128.104 389.179 125.672C384.315 120.68 377.787 117.48 370.619 117.48C355.771 117.48 343.483 131.944 343.483 148.328C343.483 164.84 355.771 179.176 370.619 179.176C378.811 179.176 385.083 174.824 389.691 168.296C391.611 165.48 393.787 164.328 396.987 164.712L400.955 165.096C404.923 165.48 407.099 167.4 406.331 169.96C402.235 181.864 389.563 194.536 369.979 194.536Z" fill="white"/>
<path opacity="0.25" d="M257.318 193C253.606 193 251.43 190.824 251.43 187.112V109.288C251.43 105.448 253.606 103.4 257.318 103.4H274.214C307.11 103.4 319.526 122.728 319.526 147.944C319.526 171.496 306.982 192.616 274.214 193.128L257.318 193ZM268.326 172.648C268.326 174.696 269.478 175.976 271.654 175.976C273.702 175.976 275.878 175.976 275.878 175.976C311.206 175.976 311.334 119.912 276.39 119.912L271.654 120.04C269.606 120.04 268.326 121.32 268.326 123.368V172.648Z" fill="white"/>
<path opacity="0.25" d="M173.818 193C170.106 193 167.93 190.824 167.93 187.112V109.288C167.93 105.448 170.106 103.4 173.818 103.4H180.218C183.418 103.4 185.466 104.68 187.13 107.368L215.162 155.112C216.826 158.056 219.13 157.16 219.13 153.96V109.288C219.13 105.448 221.306 103.4 225.018 103.4H230.138C233.978 103.4 236.026 105.576 236.026 109.288V187.112C236.026 190.952 233.85 193 230.138 193H223.738C220.538 193 218.362 191.848 216.698 189.16L188.922 144.872C187.258 142.184 184.826 142.824 184.826 146.024V187.112C184.826 190.824 182.65 193 178.938 193H173.818Z" fill="white"/>
<path opacity="0.25" d="M93.903 188.392C92.751 191.464 90.447 193 87.119 193H81.231C76.879 193 74.959 190.312 76.623 186.216L107.983 108.008C109.263 104.936 111.439 103.4 114.767 103.4H117.199C120.527 103.4 122.703 104.68 123.983 107.88L157.263 186.088C158.927 190.184 157.135 193 152.783 193H147.023C143.695 193 141.391 191.592 140.111 188.392L137.295 181.352C136.655 179.56 135.375 178.792 133.455 178.792H100.431C98.511 178.792 97.231 179.56 96.591 181.352L93.903 188.392ZM104.527 159.592C103.631 161.896 104.655 163.432 107.087 163.432H126.031C128.463 163.432 129.487 161.896 128.591 159.592L118.479 135.144C117.327 132.456 115.023 132.328 113.999 135.144L104.527 159.592Z" fill="white"/>
<path opacity="0.25" d="M0.680176 109.288C0.680176 105.576 2.85618 103.4 6.56818 103.4H11.6882C15.5282 103.4 17.5762 105.576 17.5762 109.288V136.168C17.5762 138.344 18.8562 139.496 20.9042 139.496H48.5522C50.6002 139.496 51.8802 138.216 51.8802 136.168V109.288C51.8802 105.448 54.0562 103.4 57.7682 103.4H62.8882C66.7282 103.4 68.7762 105.576 68.7762 109.288V187.112C68.7762 190.952 66.6002 193 62.8882 193H57.7682C53.9282 193 51.8802 190.824 51.8802 187.112V158.312C51.8802 156.136 50.6002 154.984 48.5522 154.984H20.9042C18.8562 154.984 17.5762 156.264 17.5762 158.312V187.112C17.5762 190.824 15.4002 193 11.6882 193H6.56818C2.72818 193 0.680176 190.824 0.680176 187.112V109.288Z" fill="white"/>
<path opacity="0.1" d="M1113.68 7.28799C1113.68 3.576 1115.86 1.39999 1119.57 1.39999H1157.2C1161.04 1.39999 1163.09 3.576 1163.09 7.28799V11C1163.09 14.84 1160.91 16.888 1157.2 16.888H1133.9C1131.86 16.888 1130.58 18.168 1130.58 20.216V33.912C1130.58 35.96 1131.86 37.24 1133.9 37.24H1154.64C1158.48 37.24 1160.53 39.416 1160.53 43.128V46.84C1160.53 50.68 1158.35 52.728 1154.64 52.728H1133.9C1131.86 52.728 1130.58 54.008 1130.58 56.056V72.184C1130.58 74.36 1131.86 75.512 1133.9 75.512H1157.2C1161.04 75.512 1163.09 77.688 1163.09 81.4V85.112C1163.09 88.952 1160.91 91 1157.2 91H1119.57C1115.73 91 1113.68 88.824 1113.68 85.112V7.28799Z" fill="white"/>
<path opacity="0.1" d="M1036.07 91C1032.36 91 1030.18 88.824 1030.18 85.112V7.28799C1030.18 3.448 1032.36 1.39999 1036.07 1.39999H1042.47C1045.67 1.39999 1047.72 2.67999 1049.38 5.368L1077.41 53.112C1079.08 56.056 1081.38 55.16 1081.38 51.96V7.28799C1081.38 3.448 1083.56 1.39999 1087.27 1.39999H1092.39C1096.23 1.39999 1098.28 3.576 1098.28 7.28799V85.112C1098.28 88.952 1096.1 91 1092.39 91H1085.99C1082.79 91 1080.61 89.848 1078.95 87.16L1051.17 42.872C1049.51 40.184 1047.08 40.824 1047.08 44.024V85.112C1047.08 88.824 1044.9 91 1041.19 91H1036.07Z" fill="white"/>
<path opacity="0.1" d="M997.93 7.28799C997.93 3.576 1000.11 1.39999 1003.82 1.39999H1008.94C1012.78 1.39999 1014.83 3.576 1014.83 7.28799V85.112C1014.83 88.952 1012.65 91 1008.94 91H1003.82C999.978 91 997.93 88.824 997.93 85.112V7.28799Z" fill="white"/>
<path opacity="0.1" d="M946.524 92.536C920.668 92.536 901.34 71.8 901.34 46.2C901.34 20.728 920.668 -0.00799561 944.604 -0.00799561C958.172 -0.00799561 970.332 6.776 978.268 17.272C980.828 20.728 979.292 23.8 975.324 24.952L970.844 26.36C967.644 27.384 965.34 26.36 963.036 23.928C958.3 19.064 951.772 15.864 944.86 15.864C930.268 15.864 918.108 30.2 918.108 46.328C918.108 62.584 930.268 76.792 947.036 76.792C960.348 76.792 967.516 70.136 970.844 62.968C971.868 60.664 970.588 59.128 968.156 59.128H951.388C947.548 59.128 945.5 56.952 945.5 53.24V49.528C945.5 45.688 947.676 43.64 951.388 43.64H981.468C989.02 43.64 987.484 43.896 987.484 61.304C987.484 74.744 969.82 92.536 946.524 92.536Z" fill="white"/>
<path opacity="0.1" d="M830.068 91C826.356 91 824.18 88.824 824.18 85.112V7.28799C824.18 3.448 826.356 1.39999 830.068 1.39999H836.468C839.668 1.39999 841.716 2.67999 843.38 5.368L871.412 53.112C873.076 56.056 875.38 55.16 875.38 51.96V7.28799C875.38 3.448 877.556 1.39999 881.268 1.39999H886.388C890.228 1.39999 892.276 3.576 892.276 7.28799V85.112C892.276 88.952 890.1 91 886.388 91H879.988C876.788 91 874.612 89.848 872.948 87.16L845.172 42.872C843.508 40.184 841.076 40.824 841.076 44.024V85.112C841.076 88.824 838.9 91 835.188 91H830.068Z" fill="white"/>
<path opacity="0.1" d="M760.68 7.28799C760.68 3.576 762.856 1.39999 766.568 1.39999H804.2C808.04 1.39999 810.088 3.576 810.088 7.28799V11C810.088 14.84 807.912 16.888 804.2 16.888H780.904C778.856 16.888 777.576 18.168 777.576 20.216V33.912C777.576 35.96 778.856 37.24 780.904 37.24H801.64C805.48 37.24 807.528 39.416 807.528 43.128V46.84C807.528 50.68 805.352 52.728 801.64 52.728H780.904C778.856 52.728 777.576 54.008 777.576 56.056V72.184C777.576 74.36 778.856 75.512 780.904 75.512H804.2C808.04 75.512 810.088 77.688 810.088 81.4V85.112C810.088 88.952 807.912 91 804.2 91H766.568C762.728 91 760.68 88.824 760.68 85.112V7.28799Z" fill="white"/>
<path opacity="0.1" d="M663.18 7.28799C663.18 3.576 665.356 1.39999 669.068 1.39999H674.188C678.028 1.39999 680.076 3.576 680.076 7.28799V32.248C680.076 34.424 681.356 35.704 683.532 35.32C696.844 33.144 703.372 21.24 704.268 7.28799C704.524 3.448 706.572 1.39999 710.284 1.39999H715.404C719.244 1.39999 721.292 3.448 721.164 7.41599C720.524 20.984 717.452 32.632 706.316 41.336C704.524 42.744 704.396 44.28 706.316 45.816C717.836 55.288 722.188 66.296 723.34 84.856C723.596 88.824 721.42 91 717.58 91H712.46C708.748 91 706.828 88.952 706.444 85.112C704.78 65.272 695.052 55.16 683.66 52.344C681.484 51.832 680.076 53.112 680.076 55.416V85.112C680.076 88.952 677.9 91 674.188 91H669.068C665.228 91 663.18 88.824 663.18 85.112V7.28799Z" fill="white"/>
<path opacity="0.1" d="M585.568 91C581.856 91 579.68 88.824 579.68 85.112V7.28799C579.68 3.448 581.856 1.39999 585.568 1.39999H591.968C595.168 1.39999 597.216 2.67999 598.88 5.368L626.912 53.112C628.576 56.056 630.88 55.16 630.88 51.96V7.28799C630.88 3.448 633.056 1.39999 636.768 1.39999H641.888C645.728 1.39999 647.776 3.576 647.776 7.28799V85.112C647.776 88.952 645.6 91 641.888 91H635.488C632.288 91 630.112 89.848 628.448 87.16L600.672 42.872C599.008 40.184 596.576 40.824 596.576 44.024V85.112C596.576 88.824 594.4 91 590.688 91H585.568Z" fill="white"/>
<path opacity="0.1" d="M505.653 86.392C504.501 89.464 502.197 91 498.869 91H492.981C488.629 91 486.709 88.312 488.373 84.216L519.733 6.008C521.013 2.936 523.189 1.39999 526.517 1.39999H528.949C532.277 1.39999 534.453 2.67999 535.733 5.88L569.013 84.088C570.677 88.184 568.885 91 564.533 91H558.773C555.445 91 553.141 89.592 551.861 86.392L549.045 79.352C548.405 77.56 547.125 76.792 545.205 76.792H512.181C510.261 76.792 508.981 77.56 508.341 79.352L505.653 86.392ZM516.277 57.592C515.381 59.896 516.405 61.432 518.837 61.432H537.781C540.213 61.432 541.237 59.896 540.341 57.592L530.229 33.144C529.077 30.456 526.773 30.328 525.749 33.144L516.277 57.592Z" fill="white"/>
<path opacity="0.1" d="M445.584 1.39999C467.216 1.39999 478.096 13.432 478.096 32.376C478.096 43.128 474.128 51.32 466.448 56.312C464.528 57.72 464.4 59 466.192 60.536C473.616 66.68 477.456 76.152 478.736 84.984C479.376 88.824 476.944 91 473.104 91H469.136C465.552 91 463.76 89.08 462.992 85.496C461.072 76.152 454.16 64.248 439.696 62.2L438.032 62.072C435.856 61.944 434.576 63.224 434.576 65.4V85.112C434.576 88.824 432.4 91 428.688 91H423.568C419.728 91 417.68 88.824 417.68 85.112V7.28799C417.68 3.448 419.856 1.39999 423.568 1.39999H445.584ZM445.2 47.224C467.344 47.224 467.344 16.888 446.352 16.888H437.904C435.856 16.888 434.576 18.168 434.576 20.216V43.896C434.576 45.944 435.856 47.224 437.904 47.224H445.2Z" fill="white"/>
<path opacity="0.1" d="M369.979 92.536C346.043 92.536 326.715 71.8 326.715 46.2C326.715 20.728 346.043 -0.00799561 369.979 -0.00799561C383.547 -0.00799561 395.707 6.776 403.643 17.272C406.203 20.728 404.795 23.672 400.699 24.952L396.987 26.104C393.787 27.128 391.483 26.104 389.179 23.672C384.315 18.68 377.787 15.48 370.619 15.48C355.771 15.48 343.483 29.944 343.483 46.328C343.483 62.84 355.771 77.176 370.619 77.176C378.811 77.176 385.083 72.824 389.691 66.296C391.611 63.48 393.787 62.328 396.987 62.712L400.955 63.096C404.923 63.48 407.099 65.4 406.331 67.96C402.235 79.864 389.563 92.536 369.979 92.536Z" fill="white"/>
<path opacity="0.1" d="M257.318 91C253.606 91 251.43 88.824 251.43 85.112V7.28799C251.43 3.448 253.606 1.39999 257.318 1.39999H274.214C307.11 1.39999 319.526 20.728 319.526 45.944C319.526 69.496 306.982 90.616 274.214 91.128L257.318 91ZM268.326 70.648C268.326 72.696 269.478 73.976 271.654 73.976C273.702 73.976 275.878 73.976 275.878 73.976C311.206 73.976 311.334 17.912 276.39 17.912L271.654 18.04C269.606 18.04 268.326 19.32 268.326 21.368V70.648Z" fill="white"/>
<path opacity="0.1" d="M173.818 91C170.106 91 167.93 88.824 167.93 85.112V7.28799C167.93 3.448 170.106 1.39999 173.818 1.39999H180.218C183.418 1.39999 185.466 2.67999 187.13 5.368L215.162 53.112C216.826 56.056 219.13 55.16 219.13 51.96V7.28799C219.13 3.448 221.306 1.39999 225.018 1.39999H230.138C233.978 1.39999 236.026 3.576 236.026 7.28799V85.112C236.026 88.952 233.85 91 230.138 91H223.738C220.538 91 218.362 89.848 216.698 87.16L188.922 42.872C187.258 40.184 184.826 40.824 184.826 44.024V85.112C184.826 88.824 182.65 91 178.938 91H173.818Z" fill="white"/>
<path opacity="0.1" d="M93.903 86.392C92.751 89.464 90.447 91 87.119 91H81.231C76.879 91 74.959 88.312 76.623 84.216L107.983 6.008C109.263 2.936 111.439 1.39999 114.767 1.39999H117.199C120.527 1.39999 122.703 2.67999 123.983 5.88L157.263 84.088C158.927 88.184 157.135 91 152.783 91H147.023C143.695 91 141.391 89.592 140.111 86.392L137.295 79.352C136.655 77.56 135.375 76.792 133.455 76.792H100.431C98.511 76.792 97.231 77.56 96.591 79.352L93.903 86.392ZM104.527 57.592C103.631 59.896 104.655 61.432 107.087 61.432H126.031C128.463 61.432 129.487 59.896 128.591 57.592L118.479 33.144C117.327 30.456 115.023 30.328 113.999 33.144L104.527 57.592Z" fill="white"/>
<path opacity="0.1" d="M0.680176 7.28799C0.680176 3.576 2.85618 1.39999 6.56818 1.39999H11.6882C15.5282 1.39999 17.5762 3.576 17.5762 7.28799V34.168C17.5762 36.344 18.8562 37.496 20.9042 37.496H48.5522C50.6002 37.496 51.8802 36.216 51.8802 34.168V7.28799C51.8802 3.448 54.0562 1.39999 57.7682 1.39999H62.8882C66.7282 1.39999 68.7762 3.576 68.7762 7.28799V85.112C68.7762 88.952 66.6002 91 62.8882 91H57.7682C53.9282 91 51.8802 88.824 51.8802 85.112V56.312C51.8802 54.136 50.6002 52.984 48.5522 52.984H20.9042C18.8562 52.984 17.5762 54.264 17.5762 56.312V85.112C17.5762 88.824 15.4002 91 11.6882 91H6.56818C2.72818 91 0.680176 88.824 0.680176 85.112V7.28799Z" fill="white"/>
<rect x="232" y="440" width="700" height="100" rx="50" fill="#A8E95E"/>
<path d="M841.965 470.144C841.965 468.288 843.053 467.2 844.909 467.2H863.725C865.645 467.2 866.669 468.288 866.669 470.144V472C866.669 473.92 865.581 474.944 863.725 474.944H852.077C851.053 474.944 850.413 475.584 850.413 476.608V483.456C850.413 484.48 851.053 485.12 852.077 485.12H862.445C864.365 485.12 865.389 486.208 865.389 488.064V489.92C865.389 491.84 864.301 492.864 862.445 492.864H852.077C851.053 492.864 850.413 493.504 850.413 494.528V502.592C850.413 503.68 851.053 504.256 852.077 504.256H863.725C865.645 504.256 866.669 505.344 866.669 507.2V509.056C866.669 510.976 865.581 512 863.725 512H844.909C842.989 512 841.965 510.912 841.965 509.056V470.144Z" fill="#2D2D2D"/>
<path d="M803.159 512C801.303 512 800.215 510.912 800.215 509.056V470.144C800.215 468.224 801.303 467.2 803.159 467.2H806.359C807.959 467.2 808.983 467.84 809.815 469.184L823.831 493.056C824.663 494.528 825.815 494.08 825.815 492.48V470.144C825.815 468.224 826.903 467.2 828.759 467.2H831.319C833.239 467.2 834.263 468.288 834.263 470.144V509.056C834.263 510.976 833.175 512 831.319 512H828.119C826.519 512 825.431 511.424 824.599 510.08L810.711 487.936C809.879 486.592 808.663 486.912 808.663 488.512V509.056C808.663 510.912 807.575 512 805.719 512H803.159Z" fill="#2D2D2D"/>
<path d="M784.09 470.144C784.09 468.288 785.178 467.2 787.034 467.2H789.594C791.514 467.2 792.538 468.288 792.538 470.144V509.056C792.538 510.976 791.45 512 789.594 512H787.034C785.114 512 784.09 510.912 784.09 509.056V470.144Z" fill="#2D2D2D"/>
<path d="M758.387 512.768C745.459 512.768 735.795 502.4 735.795 489.6C735.795 476.864 745.459 466.496 757.427 466.496C764.211 466.496 770.291 469.888 774.259 475.136C775.539 476.864 774.771 478.4 772.787 478.976L770.547 479.68C768.947 480.192 767.795 479.68 766.643 478.464C764.275 476.032 761.011 474.432 757.555 474.432C750.259 474.432 744.179 481.6 744.179 489.664C744.179 497.792 750.259 504.896 758.643 504.896C765.299 504.896 768.883 501.568 770.547 497.984C771.059 496.832 770.419 496.064 769.203 496.064H760.819C758.899 496.064 757.875 494.976 757.875 493.12V491.264C757.875 489.344 758.963 488.32 760.819 488.32H775.859C779.635 488.32 778.867 488.448 778.867 497.152C778.867 503.872 770.035 512.768 758.387 512.768Z" fill="#2D2D2D"/>
<path d="M700.159 512C698.303 512 697.215 510.912 697.215 509.056V470.144C697.215 468.224 698.303 467.2 700.159 467.2H703.359C704.959 467.2 705.983 467.84 706.815 469.184L720.831 493.056C721.663 494.528 722.815 494.08 722.815 492.48V470.144C722.815 468.224 723.903 467.2 725.759 467.2H728.319C730.239 467.2 731.263 468.288 731.263 470.144V509.056C731.263 510.976 730.175 512 728.319 512H725.119C723.519 512 722.431 511.424 721.599 510.08L707.711 487.936C706.879 486.592 705.663 486.912 705.663 488.512V509.056C705.663 510.912 704.575 512 702.719 512H700.159Z" fill="#2D2D2D"/>
<path d="M665.465 470.144C665.465 468.288 666.553 467.2 668.409 467.2H687.225C689.145 467.2 690.169 468.288 690.169 470.144V472C690.169 473.92 689.081 474.944 687.225 474.944H675.577C674.553 474.944 673.913 475.584 673.913 476.608V483.456C673.913 484.48 674.553 485.12 675.577 485.12H685.945C687.865 485.12 688.889 486.208 688.889 488.064V489.92C688.889 491.84 687.801 492.864 685.945 492.864H675.577C674.553 492.864 673.913 493.504 673.913 494.528V502.592C673.913 503.68 674.553 504.256 675.577 504.256H687.225C689.145 504.256 690.169 505.344 690.169 507.2V509.056C690.169 510.976 689.081 512 687.225 512H668.409C666.489 512 665.465 510.912 665.465 509.056V470.144Z" fill="#2D2D2D"/>
<path d="M620.277 470.144C620.277 468.288 621.365 467.2 623.221 467.2H642.037C643.957 467.2 644.981 468.288 644.981 470.144V472C644.981 473.92 643.893 474.944 642.037 474.944H630.389C629.365 474.944 628.725 475.584 628.725 476.608V483.456C628.725 484.48 629.365 485.12 630.389 485.12H640.757C642.677 485.12 643.701 486.208 643.701 488.064V489.92C643.701 491.84 642.613 492.864 640.757 492.864H630.389C629.365 492.864 628.725 493.504 628.725 494.528V502.592C628.725 503.68 629.365 504.256 630.389 504.256H642.037C643.957 504.256 644.981 505.344 644.981 507.2V509.056C644.981 510.976 643.893 512 642.037 512H623.221C621.301 512 620.277 510.912 620.277 509.056V470.144Z" fill="#2D2D2D"/>
<path d="M573.215 510.336V468.864C573.215 467.84 573.855 467.2 574.879 467.2H580.383C581.279 467.2 581.919 467.52 582.367 468.288L590.687 481.856C591.839 483.776 593.567 483.904 594.783 481.92L603.295 468.288C603.743 467.52 604.383 467.2 605.279 467.2H610.783C611.807 467.2 612.447 467.84 612.447 468.864L612.575 510.336C612.575 511.424 611.999 512 610.911 512H605.791C604.767 512 604.127 511.424 604.127 510.336V490.496C604.127 487.68 602.143 487.04 600.543 489.408L593.887 499.2C593.183 500.288 592.287 500.288 591.583 499.2L585.247 489.536C583.647 487.168 581.663 487.744 581.663 490.624V510.336C581.663 511.36 581.087 512 579.999 512H574.879C573.855 512 573.215 511.424 573.215 510.336Z" fill="#2D2D2D"/>
<path d="M536.202 509.696C535.626 511.232 534.474 512 532.81 512H529.866C527.69 512 526.73 510.656 527.562 508.608L543.242 469.504C543.882 467.968 544.97 467.2 546.634 467.2H547.85C549.514 467.2 550.602 467.84 551.242 469.44L567.882 508.544C568.714 510.592 567.818 512 565.642 512H562.762C561.098 512 559.946 511.296 559.306 509.696L557.898 506.176C557.578 505.28 556.938 504.896 555.978 504.896H539.466C538.506 504.896 537.866 505.28 537.546 506.176L536.202 509.696ZM541.514 495.296C541.066 496.448 541.578 497.216 542.794 497.216H552.266C553.482 497.216 553.994 496.448 553.546 495.296L548.49 483.072C547.914 481.728 546.762 481.664 546.25 483.072L541.514 495.296Z" fill="#2D2D2D"/>
<path d="M505.949 512.768C493.021 512.768 483.357 502.4 483.357 489.6C483.357 476.864 493.021 466.496 504.989 466.496C511.773 466.496 517.853 469.888 521.821 475.136C523.101 476.864 522.333 478.4 520.349 478.976L518.109 479.68C516.509 480.192 515.357 479.68 514.205 478.464C511.837 476.032 508.573 474.432 505.117 474.432C497.821 474.432 491.741 481.6 491.741 489.664C491.741 497.792 497.821 504.896 506.205 504.896C512.861 504.896 516.445 501.568 518.109 497.984C518.621 496.832 517.981 496.064 516.765 496.064H508.381C506.461 496.064 505.437 494.976 505.437 493.12V491.264C505.437 489.344 506.525 488.32 508.381 488.32H523.421C527.197 488.32 526.429 488.448 526.429 497.152C526.429 503.872 517.597 512.768 505.949 512.768Z" fill="#2D2D2D"/>
<path d="M449.103 467.2C459.855 467.2 465.935 473.216 465.935 483.2C465.935 493.44 458.575 499.712 445.455 499.008C444.303 498.944 443.663 499.52 443.663 500.608V509.056C443.663 510.912 442.575 512 440.719 512H438.159C436.239 512 435.215 510.912 435.215 509.056V470.144C435.215 468.224 436.303 467.2 438.159 467.2H449.103ZM443.663 489.088C443.663 490.176 444.303 490.752 445.327 490.752H448.975C460.687 491.072 460.175 474.944 449.551 474.944H445.327C444.303 474.944 443.663 475.584 443.663 476.608V489.088Z" fill="#2D2D2D"/>
<path d="M413.79 467.2C424.542 467.2 430.622 473.216 430.622 483.2C430.622 493.44 423.262 499.712 410.142 499.008C408.99 498.944 408.35 499.52 408.35 500.608V509.056C408.35 510.912 407.262 512 405.406 512H402.846C400.926 512 399.902 510.912 399.902 509.056V470.144C399.902 468.224 400.99 467.2 402.846 467.2H413.79ZM408.35 489.088C408.35 490.176 408.99 490.752 410.014 490.752H413.662C425.374 491.072 424.862 474.944 414.238 474.944H410.014C408.99 474.944 408.35 475.584 408.35 476.608V489.088Z" fill="#2D2D2D"/>
<path d="M376.052 512.768C364.084 512.768 354.42 502.4 354.42 489.6C354.42 476.864 364.084 466.496 376.052 466.496C382.836 466.496 388.916 469.888 392.884 475.136C394.164 476.864 393.46 478.336 391.412 478.976L389.556 479.552C387.956 480.064 386.804 479.552 385.652 478.336C383.22 475.84 379.956 474.24 376.372 474.24C368.948 474.24 362.804 481.472 362.804 489.664C362.804 497.92 368.948 505.088 376.372 505.088C380.468 505.088 383.604 502.912 385.908 499.648C386.868 498.24 387.956 497.664 389.556 497.856L391.54 498.048C393.524 498.24 394.612 499.2 394.228 500.48C392.18 506.432 385.844 512.768 376.052 512.768Z" fill="#2D2D2D"/>
<path d="M305.264 509.696C304.688 511.232 303.536 512 301.872 512H298.928C296.752 512 295.792 510.656 296.624 508.608L312.304 469.504C312.944 467.968 314.032 467.2 315.696 467.2H316.912C318.576 467.2 319.664 467.84 320.304 469.44L336.944 508.544C337.776 510.592 336.88 512 334.704 512H331.824C330.16 512 329.008 511.296 328.368 509.696L326.96 506.176C326.64 505.28 326 504.896 325.04 504.896H308.528C307.568 504.896 306.928 505.28 306.608 506.176L305.264 509.696ZM310.576 495.296C310.128 496.448 310.64 497.216 311.856 497.216H321.328C322.544 497.216 323.056 496.448 322.608 495.296L317.552 483.072C316.976 481.728 315.824 481.664 315.312 483.072L310.576 495.296Z" fill="#2D2D2D"/>
</svg>
