<svg width="1164" height="540" viewBox="0 0 1164 540" fill="none" xmlns="http://www.w3.org/2000/svg">
<path d="M1113.68 313.288C1113.68 309.576 1115.86 307.4 1119.57 307.4H1157.2C1161.04 307.4 1163.09 309.576 1163.09 313.288V317C1163.09 320.84 1160.91 322.888 1157.2 322.888H1133.9C1131.86 322.888 1130.58 324.168 1130.58 326.216V339.912C1130.58 341.96 1131.86 343.24 1133.9 343.24H1154.64C1158.48 343.24 1160.53 345.416 1160.53 349.128V352.84C1160.53 356.68 1158.35 358.728 1154.64 358.728H1133.9C1131.86 358.728 1130.58 360.008 1130.58 362.056V378.184C1130.58 380.36 1131.86 381.512 1133.9 381.512H1157.2C1161.04 381.512 1163.09 383.688 1163.09 387.4V391.112C1163.09 394.952 1160.91 397 1157.2 397H1119.57C1115.73 397 1113.68 394.824 1113.68 391.112V313.288Z" fill="#FFEDD1"/>
<path d="M1036.07 397C1032.36 397 1030.18 394.824 1030.18 391.112V313.288C1030.18 309.448 1032.36 307.4 1036.07 307.4H1042.47C1045.67 307.4 1047.72 308.68 1049.38 311.368L1077.41 359.112C1079.08 362.056 1081.38 361.16 1081.38 357.96V313.288C1081.38 309.448 1083.56 307.4 1087.27 307.4H1092.39C1096.23 307.4 1098.28 309.576 1098.28 313.288V391.112C1098.28 394.952 1096.1 397 1092.39 397H1085.99C1082.79 397 1080.61 395.848 1078.95 393.16L1051.17 348.872C1049.51 346.184 1047.08 346.824 1047.08 350.024V391.112C1047.08 394.824 1044.9 397 1041.19 397H1036.07Z" fill="#FFEDD1"/>
<path d="M997.93 313.288C997.93 309.576 1000.11 307.4 1003.82 307.4H1008.94C1012.78 307.4 1014.83 309.576 1014.83 313.288V391.112C1014.83 394.952 1012.65 397 1008.94 397H1003.82C999.978 397 997.93 394.824 997.93 391.112V313.288Z" fill="#FFEDD1"/>
<path d="M946.524 398.536C920.668 398.536 901.34 377.8 901.34 352.2C901.34 326.728 920.668 305.992 944.604 305.992C958.172 305.992 970.332 312.776 978.268 323.272C980.828 326.728 979.292 329.8 975.324 330.952L970.844 332.36C967.644 333.384 965.34 332.36 963.036 329.928C958.3 325.064 951.772 321.864 944.86 321.864C930.268 321.864 918.108 336.2 918.108 352.328C918.108 368.584 930.268 382.792 947.036 382.792C960.348 382.792 967.516 376.136 970.844 368.968C971.868 366.664 970.588 365.128 968.156 365.128H951.388C947.548 365.128 945.5 362.952 945.5 359.24V355.528C945.5 351.688 947.676 349.64 951.388 349.64H981.468C989.02 349.64 987.484 349.896 987.484 367.304C987.484 380.744 969.82 398.536 946.524 398.536Z" fill="#FFEDD1"/>
<path d="M830.068 397C826.356 397 824.18 394.824 824.18 391.112V313.288C824.18 309.448 826.356 307.4 830.068 307.4H836.468C839.668 307.4 841.716 308.68 843.38 311.368L871.412 359.112C873.076 362.056 875.38 361.16 875.38 357.96V313.288C875.38 309.448 877.556 307.4 881.268 307.4H886.388C890.228 307.4 892.276 309.576 892.276 313.288V391.112C892.276 394.952 890.1 397 886.388 397H879.988C876.788 397 874.612 395.848 872.948 393.16L845.172 348.872C843.508 346.184 841.076 346.824 841.076 350.024V391.112C841.076 394.824 838.9 397 835.188 397H830.068Z" fill="#FFEDD1"/>
<path d="M760.68 313.288C760.68 309.576 762.856 307.4 766.568 307.4H804.2C808.04 307.4 810.088 309.576 810.088 313.288V317C810.088 320.84 807.912 322.888 804.2 322.888H780.904C778.856 322.888 777.576 324.168 777.576 326.216V339.912C777.576 341.96 778.856 343.24 780.904 343.24H801.64C805.48 343.24 807.528 345.416 807.528 349.128V352.84C807.528 356.68 805.352 358.728 801.64 358.728H780.904C778.856 358.728 777.576 360.008 777.576 362.056V378.184C777.576 380.36 778.856 381.512 780.904 381.512H804.2C808.04 381.512 810.088 383.688 810.088 387.4V391.112C810.088 394.952 807.912 397 804.2 397H766.568C762.728 397 760.68 394.824 760.68 391.112V313.288Z" fill="#FFEDD1"/>
<path d="M663.18 313.288C663.18 309.576 665.356 307.4 669.068 307.4H674.188C678.028 307.4 680.076 309.576 680.076 313.288V338.248C680.076 340.424 681.356 341.704 683.532 341.32C696.844 339.144 703.372 327.24 704.268 313.288C704.524 309.448 706.572 307.4 710.284 307.4H715.404C719.244 307.4 721.292 309.448 721.164 313.416C720.524 326.984 717.452 338.632 706.316 347.336C704.524 348.744 704.396 350.28 706.316 351.816C717.836 361.288 722.188 372.296 723.34 390.856C723.596 394.824 721.42 397 717.58 397H712.46C708.748 397 706.828 394.952 706.444 391.112C704.78 371.272 695.052 361.16 683.66 358.344C681.484 357.832 680.076 359.112 680.076 361.416V391.112C680.076 394.952 677.9 397 674.188 397H669.068C665.228 397 663.18 394.824 663.18 391.112V313.288Z" fill="#FFEDD1"/>
<path d="M585.568 397C581.856 397 579.68 394.824 579.68 391.112V313.288C579.68 309.448 581.856 307.4 585.568 307.4H591.968C595.168 307.4 597.216 308.68 598.88 311.368L626.912 359.112C628.576 362.056 630.88 361.16 630.88 357.96V313.288C630.88 309.448 633.056 307.4 636.768 307.4H641.888C645.728 307.4 647.776 309.576 647.776 313.288V391.112C647.776 394.952 645.6 397 641.888 397H635.488C632.288 397 630.112 395.848 628.448 393.16L600.672 348.872C599.008 346.184 596.576 346.824 596.576 350.024V391.112C596.576 394.824 594.4 397 590.688 397H585.568Z" fill="#FFEDD1"/>
<path d="M505.653 392.392C504.501 395.464 502.197 397 498.869 397H492.981C488.629 397 486.709 394.312 488.373 390.216L519.733 312.008C521.013 308.936 523.189 307.4 526.517 307.4H528.949C532.277 307.4 534.453 308.68 535.733 311.88L569.013 390.088C570.677 394.184 568.885 397 564.533 397H558.773C555.445 397 553.141 395.592 551.861 392.392L549.045 385.352C548.405 383.56 547.125 382.792 545.205 382.792H512.181C510.261 382.792 508.981 383.56 508.341 385.352L505.653 392.392ZM516.277 363.592C515.381 365.896 516.405 367.432 518.837 367.432H537.781C540.213 367.432 541.237 365.896 540.341 363.592L530.229 339.144C529.077 336.456 526.773 336.328 525.749 339.144L516.277 363.592Z" fill="#FFEDD1"/>
<path d="M445.584 307.4C467.216 307.4 478.096 319.432 478.096 338.376C478.096 349.128 474.128 357.32 466.448 362.312C464.528 363.72 464.4 365 466.192 366.536C473.616 372.68 477.456 382.152 478.736 390.984C479.376 394.824 476.944 397 473.104 397H469.136C465.552 397 463.76 395.08 462.992 391.496C461.072 382.152 454.16 370.248 439.696 368.2L438.032 368.072C435.856 367.944 434.576 369.224 434.576 371.4V391.112C434.576 394.824 432.4 397 428.688 397H423.568C419.728 397 417.68 394.824 417.68 391.112V313.288C417.68 309.448 419.856 307.4 423.568 307.4H445.584ZM445.2 353.224C467.344 353.224 467.344 322.888 446.352 322.888H437.904C435.856 322.888 434.576 324.168 434.576 326.216V349.896C434.576 351.944 435.856 353.224 437.904 353.224H445.2Z" fill="#FFEDD1"/>
<path d="M369.979 398.536C346.043 398.536 326.715 377.8 326.715 352.2C326.715 326.728 346.043 305.992 369.979 305.992C383.547 305.992 395.707 312.776 403.643 323.272C406.203 326.728 404.795 329.672 400.699 330.952L396.987 332.104C393.787 333.128 391.483 332.104 389.179 329.672C384.315 324.68 377.787 321.48 370.619 321.48C355.771 321.48 343.483 335.944 343.483 352.328C343.483 368.84 355.771 383.176 370.619 383.176C378.811 383.176 385.083 378.824 389.691 372.296C391.611 369.48 393.787 368.328 396.987 368.712L400.955 369.096C404.923 369.48 407.099 371.4 406.331 373.96C402.235 385.864 389.563 398.536 369.979 398.536Z" fill="#FFEDD1"/>
<path d="M257.318 397C253.606 397 251.43 394.824 251.43 391.112V313.288C251.43 309.448 253.606 307.4 257.318 307.4H274.214C307.11 307.4 319.526 326.728 319.526 351.944C319.526 375.496 306.982 396.616 274.214 397.128L257.318 397ZM268.326 376.648C268.326 378.696 269.478 379.976 271.654 379.976C273.702 379.976 275.878 379.976 275.878 379.976C311.206 379.976 311.334 323.912 276.39 323.912L271.654 324.04C269.606 324.04 268.326 325.32 268.326 327.368V376.648Z" fill="#FFEDD1"/>
<path d="M173.818 397C170.106 397 167.93 394.824 167.93 391.112V313.288C167.93 309.448 170.106 307.4 173.818 307.4H180.218C183.418 307.4 185.466 308.68 187.13 311.368L215.162 359.112C216.826 362.056 219.13 361.16 219.13 357.96V313.288C219.13 309.448 221.306 307.4 225.018 307.4H230.138C233.978 307.4 236.026 309.576 236.026 313.288V391.112C236.026 394.952 233.85 397 230.138 397H223.738C220.538 397 218.362 395.848 216.698 393.16L188.922 348.872C187.258 346.184 184.826 346.824 184.826 350.024V391.112C184.826 394.824 182.65 397 178.938 397H173.818Z" fill="#FFEDD1"/>
<path d="M93.903 392.392C92.751 395.464 90.447 397 87.119 397H81.231C76.879 397 74.959 394.312 76.623 390.216L107.983 312.008C109.263 308.936 111.439 307.4 114.767 307.4H117.199C120.527 307.4 122.703 308.68 123.983 311.88L157.263 390.088C158.927 394.184 157.135 397 152.783 397H147.023C143.695 397 141.391 395.592 140.111 392.392L137.295 385.352C136.655 383.56 135.375 382.792 133.455 382.792H100.431C98.511 382.792 97.231 383.56 96.591 385.352L93.903 392.392ZM104.527 363.592C103.631 365.896 104.655 367.432 107.087 367.432H126.031C128.463 367.432 129.487 365.896 128.591 363.592L118.479 339.144C117.327 336.456 115.023 336.328 113.999 339.144L104.527 363.592Z" fill="#FFEDD1"/>
<path d="M0.680176 313.288C0.680176 309.576 2.85618 307.4 6.56818 307.4H11.6882C15.5282 307.4 17.5762 309.576 17.5762 313.288V340.168C17.5762 342.344 18.8562 343.496 20.9042 343.496H48.5522C50.6002 343.496 51.8802 342.216 51.8802 340.168V313.288C51.8802 309.448 54.0562 307.4 57.7682 307.4H62.8882C66.7282 307.4 68.7762 309.576 68.7762 313.288V391.112C68.7762 394.952 66.6002 397 62.8882 397H57.7682C53.9282 397 51.8802 394.824 51.8802 391.112V362.312C51.8802 360.136 50.6002 358.984 48.5522 358.984H20.9042C18.8562 358.984 17.5762 360.264 17.5762 362.312V391.112C17.5762 394.824 15.4002 397 11.6882 397H6.56818C2.72818 397 0.680176 394.824 0.680176 391.112V313.288Z" fill="#FFEDD1"/>
<path opacity="0.5" d="M1113.68 211.288C1113.68 207.576 1115.86 205.4 1119.57 205.4H1157.2C1161.04 205.4 1163.09 207.576 1163.09 211.288V215C1163.09 218.84 1160.91 220.888 1157.2 220.888H1133.9C1131.86 220.888 1130.58 222.168 1130.58 224.216V237.912C1130.58 239.96 1131.86 241.24 1133.9 241.24H1154.64C1158.48 241.24 1160.53 243.416 1160.53 247.128V250.84C1160.53 254.68 1158.35 256.728 1154.64 256.728H1133.9C1131.86 256.728 1130.58 258.008 1130.58 260.056V276.184C1130.58 278.36 1131.86 279.512 1133.9 279.512H1157.2C1161.04 279.512 1163.09 281.688 1163.09 285.4V289.112C1163.09 292.952 1160.91 295 1157.2 295H1119.57C1115.73 295 1113.68 292.824 1113.68 289.112V211.288Z" fill="#FFEDD1"/>
<path opacity="0.5" d="M1036.07 295C1032.36 295 1030.18 292.824 1030.18 289.112V211.288C1030.18 207.448 1032.36 205.4 1036.07 205.4H1042.47C1045.67 205.4 1047.72 206.68 1049.38 209.368L1077.41 257.112C1079.08 260.056 1081.38 259.16 1081.38 255.96V211.288C1081.38 207.448 1083.56 205.4 1087.27 205.4H1092.39C1096.23 205.4 1098.28 207.576 1098.28 211.288V289.112C1098.28 292.952 1096.1 295 1092.39 295H1085.99C1082.79 295 1080.61 293.848 1078.95 291.16L1051.17 246.872C1049.51 244.184 1047.08 244.824 1047.08 248.024V289.112C1047.08 292.824 1044.9 295 1041.19 295H1036.07Z" fill="#FFEDD1"/>
<path opacity="0.5" d="M997.93 211.288C997.93 207.576 1000.11 205.4 1003.82 205.4H1008.94C1012.78 205.4 1014.83 207.576 1014.83 211.288V289.112C1014.83 292.952 1012.65 295 1008.94 295H1003.82C999.978 295 997.93 292.824 997.93 289.112V211.288Z" fill="#FFEDD1"/>
<path opacity="0.5" d="M946.524 296.536C920.668 296.536 901.34 275.8 901.34 250.2C901.34 224.728 920.668 203.992 944.604 203.992C958.172 203.992 970.332 210.776 978.268 221.272C980.828 224.728 979.292 227.8 975.324 228.952L970.844 230.36C967.644 231.384 965.34 230.36 963.036 227.928C958.3 223.064 951.772 219.864 944.86 219.864C930.268 219.864 918.108 234.2 918.108 250.328C918.108 266.584 930.268 280.792 947.036 280.792C960.348 280.792 967.516 274.136 970.844 266.968C971.868 264.664 970.588 263.128 968.156 263.128H951.388C947.548 263.128 945.5 260.952 945.5 257.24V253.528C945.5 249.688 947.676 247.64 951.388 247.64H981.468C989.02 247.64 987.484 247.896 987.484 265.304C987.484 278.744 969.82 296.536 946.524 296.536Z" fill="#FFEDD1"/>
<path opacity="0.5" d="M830.068 295C826.356 295 824.18 292.824 824.18 289.112V211.288C824.18 207.448 826.356 205.4 830.068 205.4H836.468C839.668 205.4 841.716 206.68 843.38 209.368L871.412 257.112C873.076 260.056 875.38 259.16 875.38 255.96V211.288C875.38 207.448 877.556 205.4 881.268 205.4H886.388C890.228 205.4 892.276 207.576 892.276 211.288V289.112C892.276 292.952 890.1 295 886.388 295H879.988C876.788 295 874.612 293.848 872.948 291.16L845.172 246.872C843.508 244.184 841.076 244.824 841.076 248.024V289.112C841.076 292.824 838.9 295 835.188 295H830.068Z" fill="#FFEDD1"/>
<path opacity="0.5" d="M760.68 211.288C760.68 207.576 762.856 205.4 766.568 205.4H804.2C808.04 205.4 810.088 207.576 810.088 211.288V215C810.088 218.84 807.912 220.888 804.2 220.888H780.904C778.856 220.888 777.576 222.168 777.576 224.216V237.912C777.576 239.96 778.856 241.24 780.904 241.24H801.64C805.48 241.24 807.528 243.416 807.528 247.128V250.84C807.528 254.68 805.352 256.728 801.64 256.728H780.904C778.856 256.728 777.576 258.008 777.576 260.056V276.184C777.576 278.36 778.856 279.512 780.904 279.512H804.2C808.04 279.512 810.088 281.688 810.088 285.4V289.112C810.088 292.952 807.912 295 804.2 295H766.568C762.728 295 760.68 292.824 760.68 289.112V211.288Z" fill="#FFEDD1"/>
<path opacity="0.5" d="M663.18 211.288C663.18 207.576 665.356 205.4 669.068 205.4H674.188C678.028 205.4 680.076 207.576 680.076 211.288V236.248C680.076 238.424 681.356 239.704 683.532 239.32C696.844 237.144 703.372 225.24 704.268 211.288C704.524 207.448 706.572 205.4 710.284 205.4H715.404C719.244 205.4 721.292 207.448 721.164 211.416C720.524 224.984 717.452 236.632 706.316 245.336C704.524 246.744 704.396 248.28 706.316 249.816C717.836 259.288 722.188 270.296 723.34 288.856C723.596 292.824 721.42 295 717.58 295H712.46C708.748 295 706.828 292.952 706.444 289.112C704.78 269.272 695.052 259.16 683.66 256.344C681.484 255.832 680.076 257.112 680.076 259.416V289.112C680.076 292.952 677.9 295 674.188 295H669.068C665.228 295 663.18 292.824 663.18 289.112V211.288Z" fill="#FFEDD1"/>
<path opacity="0.5" d="M585.568 295C581.856 295 579.68 292.824 579.68 289.112V211.288C579.68 207.448 581.856 205.4 585.568 205.4H591.968C595.168 205.4 597.216 206.68 598.88 209.368L626.912 257.112C628.576 260.056 630.88 259.16 630.88 255.96V211.288C630.88 207.448 633.056 205.4 636.768 205.4H641.888C645.728 205.4 647.776 207.576 647.776 211.288V289.112C647.776 292.952 645.6 295 641.888 295H635.488C632.288 295 630.112 293.848 628.448 291.16L600.672 246.872C599.008 244.184 596.576 244.824 596.576 248.024V289.112C596.576 292.824 594.4 295 590.688 295H585.568Z" fill="#FFEDD1"/>
<path opacity="0.5" d="M505.653 290.392C504.501 293.464 502.197 295 498.869 295H492.981C488.629 295 486.709 292.312 488.373 288.216L519.733 210.008C521.013 206.936 523.189 205.4 526.517 205.4H528.949C532.277 205.4 534.453 206.68 535.733 209.88L569.013 288.088C570.677 292.184 568.885 295 564.533 295H558.773C555.445 295 553.141 293.592 551.861 290.392L549.045 283.352C548.405 281.56 547.125 280.792 545.205 280.792H512.181C510.261 280.792 508.981 281.56 508.341 283.352L505.653 290.392ZM516.277 261.592C515.381 263.896 516.405 265.432 518.837 265.432H537.781C540.213 265.432 541.237 263.896 540.341 261.592L530.229 237.144C529.077 234.456 526.773 234.328 525.749 237.144L516.277 261.592Z" fill="#FFEDD1"/>
<path opacity="0.5" d="M445.584 205.4C467.216 205.4 478.096 217.432 478.096 236.376C478.096 247.128 474.128 255.32 466.448 260.312C464.528 261.72 464.4 263 466.192 264.536C473.616 270.68 477.456 280.152 478.736 288.984C479.376 292.824 476.944 295 473.104 295H469.136C465.552 295 463.76 293.08 462.992 289.496C461.072 280.152 454.16 268.248 439.696 266.2L438.032 266.072C435.856 265.944 434.576 267.224 434.576 269.4V289.112C434.576 292.824 432.4 295 428.688 295H423.568C419.728 295 417.68 292.824 417.68 289.112V211.288C417.68 207.448 419.856 205.4 423.568 205.4H445.584ZM445.2 251.224C467.344 251.224 467.344 220.888 446.352 220.888H437.904C435.856 220.888 434.576 222.168 434.576 224.216V247.896C434.576 249.944 435.856 251.224 437.904 251.224H445.2Z" fill="#FFEDD1"/>
<path opacity="0.5" d="M369.979 296.536C346.043 296.536 326.715 275.8 326.715 250.2C326.715 224.728 346.043 203.992 369.979 203.992C383.547 203.992 395.707 210.776 403.643 221.272C406.203 224.728 404.795 227.672 400.699 228.952L396.987 230.104C393.787 231.128 391.483 230.104 389.179 227.672C384.315 222.68 377.787 219.48 370.619 219.48C355.771 219.48 343.483 233.944 343.483 250.328C343.483 266.84 355.771 281.176 370.619 281.176C378.811 281.176 385.083 276.824 389.691 270.296C391.611 267.48 393.787 266.328 396.987 266.712L400.955 267.096C404.923 267.48 407.099 269.4 406.331 271.96C402.235 283.864 389.563 296.536 369.979 296.536Z" fill="#FFEDD1"/>
<path opacity="0.5" d="M257.318 295C253.606 295 251.43 292.824 251.43 289.112V211.288C251.43 207.448 253.606 205.4 257.318 205.4H274.214C307.11 205.4 319.526 224.728 319.526 249.944C319.526 273.496 306.982 294.616 274.214 295.128L257.318 295ZM268.326 274.648C268.326 276.696 269.478 277.976 271.654 277.976C273.702 277.976 275.878 277.976 275.878 277.976C311.206 277.976 311.334 221.912 276.39 221.912L271.654 222.04C269.606 222.04 268.326 223.32 268.326 225.368V274.648Z" fill="#FFEDD1"/>
<path opacity="0.5" d="M173.818 295C170.106 295 167.93 292.824 167.93 289.112V211.288C167.93 207.448 170.106 205.4 173.818 205.4H180.218C183.418 205.4 185.466 206.68 187.13 209.368L215.162 257.112C216.826 260.056 219.13 259.16 219.13 255.96V211.288C219.13 207.448 221.306 205.4 225.018 205.4H230.138C233.978 205.4 236.026 207.576 236.026 211.288V289.112C236.026 292.952 233.85 295 230.138 295H223.738C220.538 295 218.362 293.848 216.698 291.16L188.922 246.872C187.258 244.184 184.826 244.824 184.826 248.024V289.112C184.826 292.824 182.65 295 178.938 295H173.818Z" fill="#FFEDD1"/>
<path opacity="0.5" d="M93.903 290.392C92.751 293.464 90.447 295 87.119 295H81.231C76.879 295 74.959 292.312 76.623 288.216L107.983 210.008C109.263 206.936 111.439 205.4 114.767 205.4H117.199C120.527 205.4 122.703 206.68 123.983 209.88L157.263 288.088C158.927 292.184 157.135 295 152.783 295H147.023C143.695 295 141.391 293.592 140.111 290.392L137.295 283.352C136.655 281.56 135.375 280.792 133.455 280.792H100.431C98.511 280.792 97.231 281.56 96.591 283.352L93.903 290.392ZM104.527 261.592C103.631 263.896 104.655 265.432 107.087 265.432H126.031C128.463 265.432 129.487 263.896 128.591 261.592L118.479 237.144C117.327 234.456 115.023 234.328 113.999 237.144L104.527 261.592Z" fill="#FFEDD1"/>
<path opacity="0.5" d="M0.680176 211.288C0.680176 207.576 2.85618 205.4 6.56818 205.4H11.6882C15.5282 205.4 17.5762 207.576 17.5762 211.288V238.168C17.5762 240.344 18.8562 241.496 20.9042 241.496H48.5522C50.6002 241.496 51.8802 240.216 51.8802 238.168V211.288C51.8802 207.448 54.0562 205.4 57.7682 205.4H62.8882C66.7282 205.4 68.7762 207.576 68.7762 211.288V289.112C68.7762 292.952 66.6002 295 62.8882 295H57.7682C53.9282 295 51.8802 292.824 51.8802 289.112V260.312C51.8802 258.136 50.6002 256.984 48.5522 256.984H20.9042C18.8562 256.984 17.5762 258.264 17.5762 260.312V289.112C17.5762 292.824 15.4002 295 11.6882 295H6.56818C2.72818 295 0.680176 292.824 0.680176 289.112V211.288Z" fill="#FFEDD1"/>
<path opacity="0.25" d="M1113.68 109.288C1113.68 105.576 1115.86 103.4 1119.57 103.4H1157.2C1161.04 103.4 1163.09 105.576 1163.09 109.288V113C1163.09 116.84 1160.91 118.888 1157.2 118.888H1133.9C1131.86 118.888 1130.58 120.168 1130.58 122.216V135.912C1130.58 137.96 1131.86 139.24 1133.9 139.24H1154.64C1158.48 139.24 1160.53 141.416 1160.53 145.128V148.84C1160.53 152.68 1158.35 154.728 1154.64 154.728H1133.9C1131.86 154.728 1130.58 156.008 1130.58 158.056V174.184C1130.58 176.36 1131.86 177.512 1133.9 177.512H1157.2C1161.04 177.512 1163.09 179.688 1163.09 183.4V187.112C1163.09 190.952 1160.91 193 1157.2 193H1119.57C1115.73 193 1113.68 190.824 1113.68 187.112V109.288Z" fill="#FFEDD1"/>
<path opacity="0.25" d="M1036.07 193C1032.36 193 1030.18 190.824 1030.18 187.112V109.288C1030.18 105.448 1032.36 103.4 1036.07 103.4H1042.47C1045.67 103.4 1047.72 104.68 1049.38 107.368L1077.41 155.112C1079.08 158.056 1081.38 157.16 1081.38 153.96V109.288C1081.38 105.448 1083.56 103.4 1087.27 103.4H1092.39C1096.23 103.4 1098.28 105.576 1098.28 109.288V187.112C1098.28 190.952 1096.1 193 1092.39 193H1085.99C1082.79 193 1080.61 191.848 1078.95 189.16L1051.17 144.872C1049.51 142.184 1047.08 142.824 1047.08 146.024V187.112C1047.08 190.824 1044.9 193 1041.19 193H1036.07Z" fill="#FFEDD1"/>
<path opacity="0.25" d="M997.93 109.288C997.93 105.576 1000.11 103.4 1003.82 103.4H1008.94C1012.78 103.4 1014.83 105.576 1014.83 109.288V187.112C1014.83 190.952 1012.65 193 1008.94 193H1003.82C999.978 193 997.93 190.824 997.93 187.112V109.288Z" fill="#FFEDD1"/>
<path opacity="0.25" d="M946.524 194.536C920.668 194.536 901.34 173.8 901.34 148.2C901.34 122.728 920.668 101.992 944.604 101.992C958.172 101.992 970.332 108.776 978.268 119.272C980.828 122.728 979.292 125.8 975.324 126.952L970.844 128.36C967.644 129.384 965.34 128.36 963.036 125.928C958.3 121.064 951.772 117.864 944.86 117.864C930.268 117.864 918.108 132.2 918.108 148.328C918.108 164.584 930.268 178.792 947.036 178.792C960.348 178.792 967.516 172.136 970.844 164.968C971.868 162.664 970.588 161.128 968.156 161.128H951.388C947.548 161.128 945.5 158.952 945.5 155.24V151.528C945.5 147.688 947.676 145.64 951.388 145.64H981.468C989.02 145.64 987.484 145.896 987.484 163.304C987.484 176.744 969.82 194.536 946.524 194.536Z" fill="#FFEDD1"/>
<path opacity="0.25" d="M830.068 193C826.356 193 824.18 190.824 824.18 187.112V109.288C824.18 105.448 826.356 103.4 830.068 103.4H836.468C839.668 103.4 841.716 104.68 843.38 107.368L871.412 155.112C873.076 158.056 875.38 157.16 875.38 153.96V109.288C875.38 105.448 877.556 103.4 881.268 103.4H886.388C890.228 103.4 892.276 105.576 892.276 109.288V187.112C892.276 190.952 890.1 193 886.388 193H879.988C876.788 193 874.612 191.848 872.948 189.16L845.172 144.872C843.508 142.184 841.076 142.824 841.076 146.024V187.112C841.076 190.824 838.9 193 835.188 193H830.068Z" fill="#FFEDD1"/>
<path opacity="0.25" d="M760.68 109.288C760.68 105.576 762.856 103.4 766.568 103.4H804.2C808.04 103.4 810.088 105.576 810.088 109.288V113C810.088 116.84 807.912 118.888 804.2 118.888H780.904C778.856 118.888 777.576 120.168 777.576 122.216V135.912C777.576 137.96 778.856 139.24 780.904 139.24H801.64C805.48 139.24 807.528 141.416 807.528 145.128V148.84C807.528 152.68 805.352 154.728 801.64 154.728H780.904C778.856 154.728 777.576 156.008 777.576 158.056V174.184C777.576 176.36 778.856 177.512 780.904 177.512H804.2C808.04 177.512 810.088 179.688 810.088 183.4V187.112C810.088 190.952 807.912 193 804.2 193H766.568C762.728 193 760.68 190.824 760.68 187.112V109.288Z" fill="#FFEDD1"/>
<path opacity="0.25" d="M663.18 109.288C663.18 105.576 665.356 103.4 669.068 103.4H674.188C678.028 103.4 680.076 105.576 680.076 109.288V134.248C680.076 136.424 681.356 137.704 683.532 137.32C696.844 135.144 703.372 123.24 704.268 109.288C704.524 105.448 706.572 103.4 710.284 103.4H715.404C719.244 103.4 721.292 105.448 721.164 109.416C720.524 122.984 717.452 134.632 706.316 143.336C704.524 144.744 704.396 146.28 706.316 147.816C717.836 157.288 722.188 168.296 723.34 186.856C723.596 190.824 721.42 193 717.58 193H712.46C708.748 193 706.828 190.952 706.444 187.112C704.78 167.272 695.052 157.16 683.66 154.344C681.484 153.832 680.076 155.112 680.076 157.416V187.112C680.076 190.952 677.9 193 674.188 193H669.068C665.228 193 663.18 190.824 663.18 187.112V109.288Z" fill="#FFEDD1"/>
<path opacity="0.25" d="M585.568 193C581.856 193 579.68 190.824 579.68 187.112V109.288C579.68 105.448 581.856 103.4 585.568 103.4H591.968C595.168 103.4 597.216 104.68 598.88 107.368L626.912 155.112C628.576 158.056 630.88 157.16 630.88 153.96V109.288C630.88 105.448 633.056 103.4 636.768 103.4H641.888C645.728 103.4 647.776 105.576 647.776 109.288V187.112C647.776 190.952 645.6 193 641.888 193H635.488C632.288 193 630.112 191.848 628.448 189.16L600.672 144.872C599.008 142.184 596.576 142.824 596.576 146.024V187.112C596.576 190.824 594.4 193 590.688 193H585.568Z" fill="#FFEDD1"/>
<path opacity="0.25" d="M505.653 188.392C504.501 191.464 502.197 193 498.869 193H492.981C488.629 193 486.709 190.312 488.373 186.216L519.733 108.008C521.013 104.936 523.189 103.4 526.517 103.4H528.949C532.277 103.4 534.453 104.68 535.733 107.88L569.013 186.088C570.677 190.184 568.885 193 564.533 193H558.773C555.445 193 553.141 191.592 551.861 188.392L549.045 181.352C548.405 179.56 547.125 178.792 545.205 178.792H512.181C510.261 178.792 508.981 179.56 508.341 181.352L505.653 188.392ZM516.277 159.592C515.381 161.896 516.405 163.432 518.837 163.432H537.781C540.213 163.432 541.237 161.896 540.341 159.592L530.229 135.144C529.077 132.456 526.773 132.328 525.749 135.144L516.277 159.592Z" fill="#FFEDD1"/>
<path opacity="0.25" d="M445.584 103.4C467.216 103.4 478.096 115.432 478.096 134.376C478.096 145.128 474.128 153.32 466.448 158.312C464.528 159.72 464.4 161 466.192 162.536C473.616 168.68 477.456 178.152 478.736 186.984C479.376 190.824 476.944 193 473.104 193H469.136C465.552 193 463.76 191.08 462.992 187.496C461.072 178.152 454.16 166.248 439.696 164.2L438.032 164.072C435.856 163.944 434.576 165.224 434.576 167.4V187.112C434.576 190.824 432.4 193 428.688 193H423.568C419.728 193 417.68 190.824 417.68 187.112V109.288C417.68 105.448 419.856 103.4 423.568 103.4H445.584ZM445.2 149.224C467.344 149.224 467.344 118.888 446.352 118.888H437.904C435.856 118.888 434.576 120.168 434.576 122.216V145.896C434.576 147.944 435.856 149.224 437.904 149.224H445.2Z" fill="#FFEDD1"/>
<path opacity="0.25" d="M369.979 194.536C346.043 194.536 326.715 173.8 326.715 148.2C326.715 122.728 346.043 101.992 369.979 101.992C383.547 101.992 395.707 108.776 403.643 119.272C406.203 122.728 404.795 125.672 400.699 126.952L396.987 128.104C393.787 129.128 391.483 128.104 389.179 125.672C384.315 120.68 377.787 117.48 370.619 117.48C355.771 117.48 343.483 131.944 343.483 148.328C343.483 164.84 355.771 179.176 370.619 179.176C378.811 179.176 385.083 174.824 389.691 168.296C391.611 165.48 393.787 164.328 396.987 164.712L400.955 165.096C404.923 165.48 407.099 167.4 406.331 169.96C402.235 181.864 389.563 194.536 369.979 194.536Z" fill="#FFEDD1"/>
<path opacity="0.25" d="M257.318 193C253.606 193 251.43 190.824 251.43 187.112V109.288C251.43 105.448 253.606 103.4 257.318 103.4H274.214C307.11 103.4 319.526 122.728 319.526 147.944C319.526 171.496 306.982 192.616 274.214 193.128L257.318 193ZM268.326 172.648C268.326 174.696 269.478 175.976 271.654 175.976C273.702 175.976 275.878 175.976 275.878 175.976C311.206 175.976 311.334 119.912 276.39 119.912L271.654 120.04C269.606 120.04 268.326 121.32 268.326 123.368V172.648Z" fill="#FFEDD1"/>
<path opacity="0.25" d="M173.818 193C170.106 193 167.93 190.824 167.93 187.112V109.288C167.93 105.448 170.106 103.4 173.818 103.4H180.218C183.418 103.4 185.466 104.68 187.13 107.368L215.162 155.112C216.826 158.056 219.13 157.16 219.13 153.96V109.288C219.13 105.448 221.306 103.4 225.018 103.4H230.138C233.978 103.4 236.026 105.576 236.026 109.288V187.112C236.026 190.952 233.85 193 230.138 193H223.738C220.538 193 218.362 191.848 216.698 189.16L188.922 144.872C187.258 142.184 184.826 142.824 184.826 146.024V187.112C184.826 190.824 182.65 193 178.938 193H173.818Z" fill="#FFEDD1"/>
<path opacity="0.25" d="M93.903 188.392C92.751 191.464 90.447 193 87.119 193H81.231C76.879 193 74.959 190.312 76.623 186.216L107.983 108.008C109.263 104.936 111.439 103.4 114.767 103.4H117.199C120.527 103.4 122.703 104.68 123.983 107.88L157.263 186.088C158.927 190.184 157.135 193 152.783 193H147.023C143.695 193 141.391 191.592 140.111 188.392L137.295 181.352C136.655 179.56 135.375 178.792 133.455 178.792H100.431C98.511 178.792 97.231 179.56 96.591 181.352L93.903 188.392ZM104.527 159.592C103.631 161.896 104.655 163.432 107.087 163.432H126.031C128.463 163.432 129.487 161.896 128.591 159.592L118.479 135.144C117.327 132.456 115.023 132.328 113.999 135.144L104.527 159.592Z" fill="#FFEDD1"/>
<path opacity="0.25" d="M0.680176 109.288C0.680176 105.576 2.85618 103.4 6.56818 103.4H11.6882C15.5282 103.4 17.5762 105.576 17.5762 109.288V136.168C17.5762 138.344 18.8562 139.496 20.9042 139.496H48.5522C50.6002 139.496 51.8802 138.216 51.8802 136.168V109.288C51.8802 105.448 54.0562 103.4 57.7682 103.4H62.8882C66.7282 103.4 68.7762 105.576 68.7762 109.288V187.112C68.7762 190.952 66.6002 193 62.8882 193H57.7682C53.9282 193 51.8802 190.824 51.8802 187.112V158.312C51.8802 156.136 50.6002 154.984 48.5522 154.984H20.9042C18.8562 154.984 17.5762 156.264 17.5762 158.312V187.112C17.5762 190.824 15.4002 193 11.6882 193H6.56818C2.72818 193 0.680176 190.824 0.680176 187.112V109.288Z" fill="#FFEDD1"/>
<path opacity="0.1" d="M1113.68 7.28802C1113.68 3.57603 1115.86 1.40002 1119.57 1.40002H1157.2C1161.04 1.40002 1163.09 3.57603 1163.09 7.28802V11C1163.09 14.84 1160.91 16.888 1157.2 16.888H1133.9C1131.86 16.888 1130.58 18.168 1130.58 20.216V33.912C1130.58 35.96 1131.86 37.24 1133.9 37.24H1154.64C1158.48 37.24 1160.53 39.416 1160.53 43.128V46.84C1160.53 50.68 1158.35 52.728 1154.64 52.728H1133.9C1131.86 52.728 1130.58 54.008 1130.58 56.056V72.184C1130.58 74.36 1131.86 75.512 1133.9 75.512H1157.2C1161.04 75.512 1163.09 77.688 1163.09 81.4V85.112C1163.09 88.952 1160.91 91 1157.2 91H1119.57C1115.73 91 1113.68 88.824 1113.68 85.112V7.28802Z" fill="#FFEDD1"/>
<path opacity="0.1" d="M1036.07 91C1032.36 91 1030.18 88.824 1030.18 85.112V7.28802C1030.18 3.44803 1032.36 1.40002 1036.07 1.40002H1042.47C1045.67 1.40002 1047.72 2.68002 1049.38 5.36803L1077.41 53.112C1079.08 56.056 1081.38 55.16 1081.38 51.96V7.28802C1081.38 3.44803 1083.56 1.40002 1087.27 1.40002H1092.39C1096.23 1.40002 1098.28 3.57603 1098.28 7.28802V85.112C1098.28 88.952 1096.1 91 1092.39 91H1085.99C1082.79 91 1080.61 89.848 1078.95 87.16L1051.17 42.872C1049.51 40.184 1047.08 40.824 1047.08 44.024V85.112C1047.08 88.824 1044.9 91 1041.19 91H1036.07Z" fill="#FFEDD1"/>
<path opacity="0.1" d="M997.93 7.28802C997.93 3.57603 1000.11 1.40002 1003.82 1.40002H1008.94C1012.78 1.40002 1014.83 3.57603 1014.83 7.28802V85.112C1014.83 88.952 1012.65 91 1008.94 91H1003.82C999.978 91 997.93 88.824 997.93 85.112V7.28802Z" fill="#FFEDD1"/>
<path opacity="0.1" d="M946.524 92.536C920.668 92.536 901.34 71.8 901.34 46.2C901.34 20.728 920.668 -0.00799561 944.604 -0.00799561C958.172 -0.00799561 970.332 6.776 978.268 17.272C980.828 20.728 979.292 23.8 975.324 24.952L970.844 26.36C967.644 27.384 965.34 26.36 963.036 23.928C958.3 19.064 951.772 15.864 944.86 15.864C930.268 15.864 918.108 30.2 918.108 46.328C918.108 62.584 930.268 76.792 947.036 76.792C960.348 76.792 967.516 70.136 970.844 62.968C971.868 60.664 970.588 59.128 968.156 59.128H951.388C947.548 59.128 945.5 56.952 945.5 53.24V49.528C945.5 45.688 947.676 43.64 951.388 43.64H981.468C989.02 43.64 987.484 43.896 987.484 61.304C987.484 74.744 969.82 92.536 946.524 92.536Z" fill="#FFEDD1"/>
<path opacity="0.1" d="M830.068 91C826.356 91 824.18 88.824 824.18 85.112V7.28802C824.18 3.44803 826.356 1.40002 830.068 1.40002H836.468C839.668 1.40002 841.716 2.68002 843.38 5.36803L871.412 53.112C873.076 56.056 875.38 55.16 875.38 51.96V7.28802C875.38 3.44803 877.556 1.40002 881.268 1.40002H886.388C890.228 1.40002 892.276 3.57603 892.276 7.28802V85.112C892.276 88.952 890.1 91 886.388 91H879.988C876.788 91 874.612 89.848 872.948 87.16L845.172 42.872C843.508 40.184 841.076 40.824 841.076 44.024V85.112C841.076 88.824 838.9 91 835.188 91H830.068Z" fill="#FFEDD1"/>
<path opacity="0.1" d="M760.68 7.28802C760.68 3.57603 762.856 1.40002 766.568 1.40002H804.2C808.04 1.40002 810.088 3.57603 810.088 7.28802V11C810.088 14.84 807.912 16.888 804.2 16.888H780.904C778.856 16.888 777.576 18.168 777.576 20.216V33.912C777.576 35.96 778.856 37.24 780.904 37.24H801.64C805.48 37.24 807.528 39.416 807.528 43.128V46.84C807.528 50.68 805.352 52.728 801.64 52.728H780.904C778.856 52.728 777.576 54.008 777.576 56.056V72.184C777.576 74.36 778.856 75.512 780.904 75.512H804.2C808.04 75.512 810.088 77.688 810.088 81.4V85.112C810.088 88.952 807.912 91 804.2 91H766.568C762.728 91 760.68 88.824 760.68 85.112V7.28802Z" fill="#FFEDD1"/>
<path opacity="0.1" d="M663.18 7.28802C663.18 3.57603 665.356 1.40002 669.068 1.40002H674.188C678.028 1.40002 680.076 3.57603 680.076 7.28802V32.248C680.076 34.424 681.356 35.704 683.532 35.32C696.844 33.144 703.372 21.24 704.268 7.28802C704.524 3.44803 706.572 1.40002 710.284 1.40002H715.404C719.244 1.40002 721.292 3.44803 721.164 7.41602C720.524 20.984 717.452 32.632 706.316 41.336C704.524 42.744 704.396 44.28 706.316 45.816C717.836 55.288 722.188 66.296 723.34 84.856C723.596 88.824 721.42 91 717.58 91H712.46C708.748 91 706.828 88.952 706.444 85.112C704.78 65.272 695.052 55.16 683.66 52.344C681.484 51.832 680.076 53.112 680.076 55.416V85.112C680.076 88.952 677.9 91 674.188 91H669.068C665.228 91 663.18 88.824 663.18 85.112V7.28802Z" fill="#FFEDD1"/>
<path opacity="0.1" d="M585.568 91C581.856 91 579.68 88.824 579.68 85.112V7.28802C579.68 3.44803 581.856 1.40002 585.568 1.40002H591.968C595.168 1.40002 597.216 2.68002 598.88 5.36803L626.912 53.112C628.576 56.056 630.88 55.16 630.88 51.96V7.28802C630.88 3.44803 633.056 1.40002 636.768 1.40002H641.888C645.728 1.40002 647.776 3.57603 647.776 7.28802V85.112C647.776 88.952 645.6 91 641.888 91H635.488C632.288 91 630.112 89.848 628.448 87.16L600.672 42.872C599.008 40.184 596.576 40.824 596.576 44.024V85.112C596.576 88.824 594.4 91 590.688 91H585.568Z" fill="#FFEDD1"/>
<path opacity="0.1" d="M505.653 86.392C504.501 89.464 502.197 91 498.869 91H492.981C488.629 91 486.709 88.312 488.373 84.216L519.733 6.00803C521.013 2.93603 523.189 1.40002 526.517 1.40002H528.949C532.277 1.40002 534.453 2.68002 535.733 5.88003L569.013 84.088C570.677 88.184 568.885 91 564.533 91H558.773C555.445 91 553.141 89.592 551.861 86.392L549.045 79.352C548.405 77.56 547.125 76.792 545.205 76.792H512.181C510.261 76.792 508.981 77.56 508.341 79.352L505.653 86.392ZM516.277 57.592C515.381 59.896 516.405 61.432 518.837 61.432H537.781C540.213 61.432 541.237 59.896 540.341 57.592L530.229 33.144C529.077 30.456 526.773 30.328 525.749 33.144L516.277 57.592Z" fill="#FFEDD1"/>
<path opacity="0.1" d="M445.584 1.40002C467.216 1.40002 478.096 13.432 478.096 32.376C478.096 43.128 474.128 51.32 466.448 56.312C464.528 57.72 464.4 59 466.192 60.536C473.616 66.68 477.456 76.152 478.736 84.984C479.376 88.824 476.944 91 473.104 91H469.136C465.552 91 463.76 89.08 462.992 85.496C461.072 76.152 454.16 64.248 439.696 62.2L438.032 62.072C435.856 61.944 434.576 63.224 434.576 65.4V85.112C434.576 88.824 432.4 91 428.688 91H423.568C419.728 91 417.68 88.824 417.68 85.112V7.28802C417.68 3.44803 419.856 1.40002 423.568 1.40002H445.584ZM445.2 47.224C467.344 47.224 467.344 16.888 446.352 16.888H437.904C435.856 16.888 434.576 18.168 434.576 20.216V43.896C434.576 45.944 435.856 47.224 437.904 47.224H445.2Z" fill="#FFEDD1"/>
<path opacity="0.1" d="M369.979 92.536C346.043 92.536 326.715 71.8 326.715 46.2C326.715 20.728 346.043 -0.00799561 369.979 -0.00799561C383.547 -0.00799561 395.707 6.776 403.643 17.272C406.203 20.728 404.795 23.672 400.699 24.952L396.987 26.104C393.787 27.128 391.483 26.104 389.179 23.672C384.315 18.68 377.787 15.48 370.619 15.48C355.771 15.48 343.483 29.944 343.483 46.328C343.483 62.84 355.771 77.176 370.619 77.176C378.811 77.176 385.083 72.824 389.691 66.296C391.611 63.48 393.787 62.328 396.987 62.712L400.955 63.096C404.923 63.48 407.099 65.4 406.331 67.96C402.235 79.864 389.563 92.536 369.979 92.536Z" fill="#FFEDD1"/>
<path opacity="0.1" d="M257.318 91C253.606 91 251.43 88.824 251.43 85.112V7.28802C251.43 3.44803 253.606 1.40002 257.318 1.40002H274.214C307.11 1.40002 319.526 20.728 319.526 45.944C319.526 69.496 306.982 90.616 274.214 91.128L257.318 91ZM268.326 70.648C268.326 72.696 269.478 73.976 271.654 73.976C273.702 73.976 275.878 73.976 275.878 73.976C311.206 73.976 311.334 17.912 276.39 17.912L271.654 18.04C269.606 18.04 268.326 19.32 268.326 21.368V70.648Z" fill="#FFEDD1"/>
<path opacity="0.1" d="M173.818 91C170.106 91 167.93 88.824 167.93 85.112V7.28802C167.93 3.44803 170.106 1.40002 173.818 1.40002H180.218C183.418 1.40002 185.466 2.68002 187.13 5.36803L215.162 53.112C216.826 56.056 219.13 55.16 219.13 51.96V7.28802C219.13 3.44803 221.306 1.40002 225.018 1.40002H230.138C233.978 1.40002 236.026 3.57603 236.026 7.28802V85.112C236.026 88.952 233.85 91 230.138 91H223.738C220.538 91 218.362 89.848 216.698 87.16L188.922 42.872C187.258 40.184 184.826 40.824 184.826 44.024V85.112C184.826 88.824 182.65 91 178.938 91H173.818Z" fill="#FFEDD1"/>
<path opacity="0.1" d="M93.903 86.392C92.751 89.464 90.447 91 87.119 91H81.231C76.879 91 74.959 88.312 76.623 84.216L107.983 6.00803C109.263 2.93603 111.439 1.40002 114.767 1.40002H117.199C120.527 1.40002 122.703 2.68002 123.983 5.88003L157.263 84.088C158.927 88.184 157.135 91 152.783 91H147.023C143.695 91 141.391 89.592 140.111 86.392L137.295 79.352C136.655 77.56 135.375 76.792 133.455 76.792H100.431C98.511 76.792 97.231 77.56 96.591 79.352L93.903 86.392ZM104.527 57.592C103.631 59.896 104.655 61.432 107.087 61.432H126.031C128.463 61.432 129.487 59.896 128.591 57.592L118.479 33.144C117.327 30.456 115.023 30.328 113.999 33.144L104.527 57.592Z" fill="#FFEDD1"/>
<path opacity="0.1" d="M0.680176 7.28802C0.680176 3.57603 2.85618 1.40002 6.56818 1.40002H11.6882C15.5282 1.40002 17.5762 3.57603 17.5762 7.28802V34.168C17.5762 36.344 18.8562 37.496 20.9042 37.496H48.5522C50.6002 37.496 51.8802 36.216 51.8802 34.168V7.28802C51.8802 3.44803 54.0562 1.40002 57.7682 1.40002H62.8882C66.7282 1.40002 68.7762 3.57603 68.7762 7.28802V85.112C68.7762 88.952 66.6002 91 62.8882 91H57.7682C53.9282 91 51.8802 88.824 51.8802 85.112V56.312C51.8802 54.136 50.6002 52.984 48.5522 52.984H20.9042C18.8562 52.984 17.5762 54.264 17.5762 56.312V85.112C17.5762 88.824 15.4002 91 11.6882 91H6.56818C2.72818 91 0.680176 88.824 0.680176 85.112V7.28802Z" fill="#FFEDD1"/>
<rect x="238" y="441" width="698" height="98" rx="49" stroke="#FFEDD1" stroke-width="2"/>
<path d="M752.527 470.144C752.527 468.288 753.615 467.2 755.471 467.2H774.287C776.207 467.2 777.231 468.288 777.231 470.144V472C777.231 473.92 776.143 474.944 774.287 474.944H762.639C761.615 474.944 760.975 475.584 760.975 476.608V483.456C760.975 484.48 761.615 485.12 762.639 485.12H773.007C774.927 485.12 775.951 486.208 775.951 488.064V489.92C775.951 491.84 774.863 492.864 773.007 492.864H762.639C761.615 492.864 760.975 493.504 760.975 494.528V502.592C760.975 503.68 761.615 504.256 762.639 504.256H774.287C776.207 504.256 777.231 505.344 777.231 507.2V509.056C777.231 510.976 776.143 512 774.287 512H755.471C753.551 512 752.527 510.912 752.527 509.056V470.144Z" fill="#FFEDD1"/>
<path d="M713.721 512C711.865 512 710.777 510.912 710.777 509.056V470.144C710.777 468.224 711.865 467.2 713.721 467.2H716.921C718.521 467.2 719.545 467.84 720.377 469.184L734.393 493.056C735.225 494.528 736.377 494.08 736.377 492.48V470.144C736.377 468.224 737.465 467.2 739.321 467.2H741.881C743.801 467.2 744.825 468.288 744.825 470.144V509.056C744.825 510.976 743.737 512 741.881 512H738.681C737.081 512 735.993 511.424 735.161 510.08L721.273 487.936C720.441 486.592 719.225 486.912 719.225 488.512V509.056C719.225 510.912 718.137 512 716.281 512H713.721Z" fill="#FFEDD1"/>
<path d="M694.652 470.144C694.652 468.288 695.74 467.2 697.596 467.2H700.156C702.076 467.2 703.1 468.288 703.1 470.144V509.056C703.1 510.976 702.012 512 700.156 512H697.596C695.676 512 694.652 510.912 694.652 509.056V470.144Z" fill="#FFEDD1"/>
<path d="M668.949 512.768C656.021 512.768 646.357 502.4 646.357 489.6C646.357 476.864 656.021 466.496 667.989 466.496C674.773 466.496 680.853 469.888 684.821 475.136C686.101 476.864 685.333 478.4 683.349 478.976L681.109 479.68C679.509 480.192 678.357 479.68 677.205 478.464C674.837 476.032 671.573 474.432 668.117 474.432C660.821 474.432 654.741 481.6 654.741 489.664C654.741 497.792 660.821 504.896 669.205 504.896C675.861 504.896 679.445 501.568 681.109 497.984C681.621 496.832 680.981 496.064 679.765 496.064H671.381C669.461 496.064 668.437 494.976 668.437 493.12V491.264C668.437 489.344 669.525 488.32 671.381 488.32H686.421C690.197 488.32 689.429 488.448 689.429 497.152C689.429 503.872 680.597 512.768 668.949 512.768Z" fill="#FFEDD1"/>
<path d="M610.721 512C608.865 512 607.777 510.912 607.777 509.056V470.144C607.777 468.224 608.865 467.2 610.721 467.2H613.921C615.521 467.2 616.545 467.84 617.377 469.184L631.393 493.056C632.225 494.528 633.377 494.08 633.377 492.48V470.144C633.377 468.224 634.465 467.2 636.321 467.2H638.881C640.801 467.2 641.825 468.288 641.825 470.144V509.056C641.825 510.976 640.737 512 638.881 512H635.681C634.081 512 632.993 511.424 632.161 510.08L618.273 487.936C617.441 486.592 616.225 486.912 616.225 488.512V509.056C616.225 510.912 615.137 512 613.281 512H610.721Z" fill="#FFEDD1"/>
<path d="M576.027 470.144C576.027 468.288 577.115 467.2 578.971 467.2H597.787C599.707 467.2 600.731 468.288 600.731 470.144V472C600.731 473.92 599.643 474.944 597.787 474.944H586.139C585.115 474.944 584.475 475.584 584.475 476.608V483.456C584.475 484.48 585.115 485.12 586.139 485.12H596.507C598.427 485.12 599.451 486.208 599.451 488.064V489.92C599.451 491.84 598.363 492.864 596.507 492.864H586.139C585.115 492.864 584.475 493.504 584.475 494.528V502.592C584.475 503.68 585.115 504.256 586.139 504.256H597.787C599.707 504.256 600.731 505.344 600.731 507.2V509.056C600.731 510.976 599.643 512 597.787 512H578.971C577.051 512 576.027 510.912 576.027 509.056V470.144Z" fill="#FFEDD1"/>
<path d="M530.84 470.144C530.84 468.288 531.928 467.2 533.784 467.2H552.6C554.52 467.2 555.544 468.288 555.544 470.144V472C555.544 473.92 554.456 474.944 552.6 474.944H540.952C539.928 474.944 539.288 475.584 539.288 476.608V483.456C539.288 484.48 539.928 485.12 540.952 485.12H551.32C553.24 485.12 554.264 486.208 554.264 488.064V489.92C554.264 491.84 553.176 492.864 551.32 492.864H540.952C539.928 492.864 539.288 493.504 539.288 494.528V502.592C539.288 503.68 539.928 504.256 540.952 504.256H552.6C554.52 504.256 555.544 505.344 555.544 507.2V509.056C555.544 510.976 554.456 512 552.6 512H533.784C531.864 512 530.84 510.912 530.84 509.056V470.144Z" fill="#FFEDD1"/>
<path d="M483.777 510.336V468.864C483.777 467.84 484.417 467.2 485.441 467.2H490.945C491.841 467.2 492.481 467.52 492.929 468.288L501.249 481.856C502.401 483.776 504.129 483.904 505.345 481.92L513.857 468.288C514.305 467.52 514.945 467.2 515.841 467.2H521.345C522.369 467.2 523.009 467.84 523.009 468.864L523.137 510.336C523.137 511.424 522.561 512 521.473 512H516.353C515.329 512 514.689 511.424 514.689 510.336V490.496C514.689 487.68 512.705 487.04 511.105 489.408L504.449 499.2C503.745 500.288 502.849 500.288 502.145 499.2L495.809 489.536C494.209 487.168 492.225 487.744 492.225 490.624V510.336C492.225 511.36 491.649 512 490.561 512H485.441C484.417 512 483.777 511.424 483.777 510.336Z" fill="#FFEDD1"/>
<path d="M446.764 509.696C446.188 511.232 445.036 512 443.372 512H440.428C438.252 512 437.292 510.656 438.124 508.608L453.804 469.504C454.444 467.968 455.532 467.2 457.196 467.2H458.412C460.076 467.2 461.164 467.84 461.804 469.44L478.444 508.544C479.276 510.592 478.38 512 476.204 512H473.324C471.66 512 470.508 511.296 469.868 509.696L468.46 506.176C468.14 505.28 467.5 504.896 466.54 504.896H450.028C449.068 504.896 448.428 505.28 448.108 506.176L446.764 509.696ZM452.076 495.296C451.628 496.448 452.14 497.216 453.356 497.216H462.828C464.044 497.216 464.556 496.448 464.108 495.296L459.052 483.072C458.476 481.728 457.324 481.664 456.812 483.072L452.076 495.296Z" fill="#FFEDD1"/>
<path d="M416.512 512.768C403.584 512.768 393.92 502.4 393.92 489.6C393.92 476.864 403.584 466.496 415.552 466.496C422.336 466.496 428.416 469.888 432.384 475.136C433.664 476.864 432.896 478.4 430.912 478.976L428.672 479.68C427.072 480.192 425.92 479.68 424.768 478.464C422.4 476.032 419.136 474.432 415.68 474.432C408.384 474.432 402.304 481.6 402.304 489.664C402.304 497.792 408.384 504.896 416.768 504.896C423.424 504.896 427.008 501.568 428.672 497.984C429.184 496.832 428.544 496.064 427.328 496.064H418.944C417.024 496.064 416 494.976 416 493.12V491.264C416 489.344 417.088 488.32 418.944 488.32H433.984C437.76 488.32 436.992 488.448 436.992 497.152C436.992 503.872 428.16 512.768 416.512 512.768Z" fill="#FFEDD1"/>
<path d="M751.527 509.056V470.144C751.527 469.021 751.861 468.005 752.597 467.269C753.333 466.533 754.349 466.2 755.472 466.2V467.2L755.133 467.213C753.484 467.339 752.528 468.404 752.527 470.144V509.056C752.527 510.796 753.428 511.861 755.122 511.987L755.472 512H774.287C776.143 512 777.231 510.976 777.231 509.056V507.2C777.231 505.344 776.207 504.256 774.287 504.256V503.256C775.434 503.256 776.458 503.585 777.192 504.331C777.924 505.074 778.231 506.094 778.231 507.2V509.056C778.231 510.202 777.903 511.227 777.157 511.961C776.414 512.693 775.394 513 774.287 513H755.472C754.325 513 753.301 512.672 752.566 511.926C751.835 511.182 751.527 510.162 751.527 509.056ZM774.287 503.256V504.256H762.64V503.256H774.287ZM760.976 502.592V494.528C760.976 493.568 761.538 492.945 762.452 492.871L762.64 492.864H773.008L773.347 492.852C774.995 492.732 775.951 491.72 775.951 489.92V488.064C775.951 486.325 775.052 485.259 773.357 485.133L773.008 485.12V484.12C774.154 484.12 775.178 484.448 775.912 485.194C776.644 485.938 776.951 486.958 776.951 488.064V489.92C776.951 491.067 776.623 492.091 775.877 492.825C775.134 493.557 774.114 493.864 773.008 493.864H762.64C762.339 493.864 762.196 493.954 762.131 494.02C762.066 494.085 761.976 494.227 761.976 494.528V502.592C761.976 502.939 762.073 503.069 762.12 503.115C762.172 503.166 762.31 503.256 762.64 503.256V504.256L762.452 504.249C761.599 504.186 761.053 503.686 760.983 502.79L760.976 502.592ZM773.008 484.12V485.12H762.64V484.12H773.008ZM760.976 483.456V476.608C760.976 475.648 761.538 475.025 762.452 474.951L762.64 474.944H774.287L774.626 474.932C776.275 474.812 777.231 473.8 777.231 472V470.144C777.231 468.404 776.331 467.339 774.637 467.213L774.287 467.2V466.2C775.434 466.2 776.458 466.528 777.192 467.274C777.924 468.018 778.231 469.037 778.231 470.144V472C778.231 473.146 777.903 474.17 777.157 474.904C776.414 475.636 775.394 475.944 774.287 475.944H762.64C762.339 475.944 762.196 476.033 762.131 476.099C762.066 476.164 761.976 476.307 761.976 476.608V483.456C761.976 483.757 762.066 483.9 762.131 483.965C762.196 484.03 762.339 484.12 762.64 484.12V485.12L762.452 485.112C761.599 485.043 761.053 484.497 760.983 483.644L760.976 483.456ZM774.287 466.2V467.2H755.472V466.2H774.287Z" fill="#FFEDD1"/>
<path d="M709.777 509.056V470.144C709.777 468.997 710.107 467.973 710.853 467.239C711.596 466.508 712.615 466.2 713.722 466.2V467.2L713.383 467.212C711.734 467.331 710.778 468.344 710.777 470.144V509.056C710.777 510.796 711.734 511.861 713.383 511.987L713.722 512H716.281C718.021 512 719.087 511.044 719.213 509.395L719.226 509.056V488.512C719.226 486.912 720.441 486.592 721.273 487.936L735.161 510.08C735.941 511.34 736.947 511.925 738.388 511.993L738.682 512H741.882L742.221 511.988C743.869 511.869 744.825 510.856 744.825 509.056V470.144C744.825 468.404 743.926 467.339 742.231 467.213L741.882 467.2V466.2C743.028 466.2 744.052 466.528 744.786 467.274C745.518 468.018 745.825 469.037 745.825 470.144V509.056C745.825 510.202 745.497 511.227 744.751 511.961C744.008 512.692 742.988 513 741.882 513H738.682C737.761 513 736.915 512.833 736.157 512.423C735.399 512.012 734.801 511.396 734.314 510.611L720.427 488.468L720.423 488.462C720.36 488.36 720.3 488.284 720.249 488.229C720.236 488.301 720.226 488.395 720.226 488.512V509.056C720.226 510.178 719.892 511.194 719.156 511.931C718.42 512.667 717.404 513 716.281 513H713.722C712.599 513 711.583 512.667 710.847 511.931C710.111 511.194 709.777 510.178 709.777 509.056ZM716.922 466.2C717.86 466.2 718.7 466.39 719.443 466.825C720.182 467.258 720.753 467.89 721.228 468.657L721.234 468.668L721.24 468.678L735.256 492.55L735.264 492.563C735.297 492.623 735.33 492.676 735.361 492.721C735.37 492.651 735.378 492.572 735.378 492.48V470.144C735.378 468.997 735.706 467.973 736.452 467.239C737.195 466.508 738.215 466.2 739.321 466.2V467.2L738.982 467.212C737.334 467.331 736.378 468.344 736.378 470.144V492.48L736.364 492.767C736.243 494.038 735.311 494.39 734.553 493.31L734.394 493.056L720.378 469.184C719.598 467.924 718.649 467.282 717.215 467.207L716.922 467.2V466.2ZM741.882 466.2V467.2H739.321V466.2H741.882ZM716.922 466.2V467.2H713.722V466.2H716.922Z" fill="#FFEDD1"/>
<path d="M693.652 509.056V470.144C693.652 469.021 693.986 468.005 694.722 467.269C695.458 466.533 696.474 466.2 697.597 466.2V467.2L697.258 467.213C695.609 467.339 694.653 468.404 694.652 470.144V509.056C694.652 510.796 695.553 511.861 697.247 511.987L697.597 512H700.156C701.896 512 702.962 511.1 703.088 509.405L703.101 509.056V470.144C703.1 468.404 702.2 467.339 700.506 467.213L700.156 467.2V466.2C701.303 466.2 702.327 466.528 703.062 467.274C703.793 468.018 704.101 469.037 704.101 470.144V509.056C704.101 510.202 703.772 511.227 703.026 511.961C702.283 512.693 701.263 513 700.156 513H697.597C696.45 513 695.426 512.672 694.691 511.926C693.96 511.182 693.652 510.162 693.652 509.056ZM700.156 466.2V467.2H697.597V466.2H700.156Z" fill="#FFEDD1"/>
<path d="M645.357 489.6C645.358 476.376 655.407 465.496 667.989 465.496C674.896 465.496 681.084 468.842 685.225 474.025L685.619 474.533L685.625 474.541C686.406 475.595 686.687 476.783 686.232 477.873C685.795 478.923 684.79 479.599 683.628 479.937L681.413 480.632L681.414 480.633C680.443 480.944 679.532 480.962 678.666 480.666C677.827 480.379 677.122 479.827 676.489 479.161L676.065 478.746C673.902 476.716 671.067 475.432 668.117 475.432C661.501 475.432 655.741 482.016 655.741 489.664C655.741 497.32 661.451 503.896 669.205 503.896V504.896L668.814 504.891C660.763 504.677 654.929 497.886 654.746 490.044L654.741 489.664C654.741 481.6 660.821 474.432 668.117 474.432C671.573 474.432 674.837 476.032 677.205 478.464C678.357 479.68 679.509 480.192 681.109 479.68L683.35 478.976C685.333 478.4 686.101 476.864 684.821 475.136C680.977 470.052 675.151 466.71 668.623 466.506L667.989 466.496C656.021 466.496 646.358 476.864 646.357 489.6C646.357 502.4 656.021 512.767 668.949 512.768C680.415 512.768 689.152 504.148 689.423 497.469L689.43 497.152C689.43 488.992 690.105 488.369 687.077 488.323L686.422 488.32V487.32C687.301 487.32 688.148 487.317 688.791 487.524C689.156 487.642 689.506 487.839 689.788 488.164C690.062 488.48 690.217 488.853 690.312 489.229C690.488 489.937 690.503 490.904 690.49 492.11C690.477 493.373 690.43 494.979 690.43 497.152C690.43 500.915 687.993 505.074 684.199 508.247C680.373 511.447 675.029 513.768 668.949 513.768C655.433 513.767 645.357 502.915 645.357 489.6ZM667.438 493.12V491.264C667.438 490.117 667.766 489.094 668.512 488.359C669.255 487.628 670.275 487.32 671.382 487.32V488.32L671.043 488.332C669.394 488.451 668.438 489.464 668.438 491.264V493.12L668.449 493.459C668.561 494.998 669.451 495.934 671.032 496.052L671.382 496.064H679.766C680.982 496.065 681.621 496.832 681.109 497.984C679.445 501.568 675.861 504.896 669.205 504.896V503.896C675.442 503.896 678.686 500.822 680.198 497.57C680.277 497.392 680.289 497.28 680.287 497.228C680.286 497.202 680.282 497.19 680.281 497.188V497.186C680.281 497.185 680.28 497.184 680.277 497.182C680.275 497.179 680.27 497.176 680.264 497.171C680.25 497.161 680.226 497.145 680.187 497.129C680.105 497.096 679.968 497.064 679.766 497.064H671.382C670.235 497.064 669.211 496.735 668.477 495.989C667.745 495.246 667.438 494.227 667.438 493.12ZM686.422 487.32V488.32H671.382V487.32H686.422Z" fill="#FFEDD1"/>
<path d="M606.777 509.056V470.144C606.777 468.997 607.107 467.973 607.853 467.239C608.596 466.508 609.615 466.2 610.722 466.2V467.2L610.383 467.212C608.734 467.331 607.778 468.344 607.777 470.144V509.056C607.777 510.796 608.734 511.861 610.383 511.987L610.722 512H613.281C615.021 512 616.087 511.044 616.213 509.395L616.226 509.056V488.512C616.226 486.912 617.441 486.592 618.273 487.936L632.161 510.08C632.941 511.34 633.947 511.925 635.388 511.993L635.682 512H638.882L639.221 511.988C640.869 511.869 641.825 510.856 641.825 509.056V470.144C641.825 468.404 640.926 467.339 639.231 467.213L638.882 467.2V466.2C640.028 466.2 641.052 466.528 641.786 467.274C642.518 468.018 642.825 469.037 642.825 470.144V509.056C642.825 510.202 642.497 511.227 641.751 511.961C641.008 512.692 639.988 513 638.882 513H635.682C634.761 513 633.915 512.833 633.157 512.423C632.399 512.012 631.801 511.396 631.314 510.611L617.427 488.468L617.423 488.462C617.36 488.36 617.3 488.284 617.249 488.229C617.236 488.301 617.226 488.395 617.226 488.512V509.056C617.226 510.178 616.892 511.194 616.156 511.931C615.42 512.667 614.404 513 613.281 513H610.722C609.599 513 608.583 512.667 607.847 511.931C607.111 511.194 606.777 510.178 606.777 509.056ZM613.922 466.2C614.86 466.2 615.7 466.39 616.443 466.825C617.182 467.258 617.753 467.89 618.228 468.657L618.234 468.668L618.24 468.678L632.256 492.55L632.264 492.563C632.297 492.623 632.33 492.676 632.361 492.721C632.37 492.651 632.378 492.572 632.378 492.48V470.144C632.378 468.997 632.706 467.973 633.452 467.239C634.195 466.508 635.215 466.2 636.321 466.2V467.2L635.982 467.212C634.334 467.331 633.378 468.344 633.378 470.144V492.48L633.364 492.767C633.243 494.038 632.311 494.39 631.553 493.31L631.394 493.056L617.378 469.184C616.598 467.924 615.649 467.282 614.215 467.207L613.922 467.2V466.2ZM638.882 466.2V467.2H636.321V466.2H638.882ZM613.922 466.2V467.2H610.722V466.2H613.922Z" fill="#FFEDD1"/>
<path d="M575.027 509.056V470.144C575.027 469.021 575.361 468.005 576.097 467.269C576.833 466.533 577.849 466.2 578.972 466.2V467.2L578.633 467.213C576.984 467.339 576.028 468.404 576.027 470.144V509.056C576.027 510.796 576.928 511.861 578.622 511.987L578.972 512H597.787C599.643 512 600.731 510.976 600.731 509.056V507.2C600.731 505.344 599.707 504.256 597.787 504.256V503.256C598.934 503.256 599.958 503.585 600.692 504.331C601.424 505.074 601.731 506.094 601.731 507.2V509.056C601.731 510.202 601.403 511.227 600.657 511.961C599.914 512.693 598.894 513 597.787 513H578.972C577.825 513 576.801 512.672 576.066 511.926C575.335 511.182 575.027 510.162 575.027 509.056ZM597.787 503.256V504.256H586.14V503.256H597.787ZM584.476 502.592V494.528C584.476 493.568 585.038 492.945 585.952 492.871L586.14 492.864H596.508L596.847 492.852C598.495 492.732 599.451 491.72 599.451 489.92V488.064C599.451 486.325 598.552 485.259 596.857 485.133L596.508 485.12V484.12C597.654 484.12 598.678 484.448 599.412 485.194C600.144 485.938 600.451 486.958 600.451 488.064V489.92C600.451 491.067 600.123 492.091 599.377 492.825C598.634 493.557 597.614 493.864 596.508 493.864H586.14C585.839 493.864 585.696 493.954 585.631 494.02C585.566 494.085 585.476 494.227 585.476 494.528V502.592C585.476 502.939 585.573 503.069 585.62 503.115C585.672 503.166 585.81 503.256 586.14 503.256V504.256L585.952 504.249C585.099 504.186 584.553 503.686 584.483 502.79L584.476 502.592ZM596.508 484.12V485.12H586.14V484.12H596.508ZM584.476 483.456V476.608C584.476 475.648 585.038 475.025 585.952 474.951L586.14 474.944H597.787L598.126 474.932C599.775 474.812 600.731 473.8 600.731 472V470.144C600.731 468.404 599.831 467.339 598.137 467.213L597.787 467.2V466.2C598.934 466.2 599.958 466.528 600.692 467.274C601.424 468.018 601.731 469.037 601.731 470.144V472C601.731 473.146 601.403 474.17 600.657 474.904C599.914 475.636 598.894 475.944 597.787 475.944H586.14C585.839 475.944 585.696 476.033 585.631 476.099C585.566 476.164 585.476 476.307 585.476 476.608V483.456C585.476 483.757 585.566 483.9 585.631 483.965C585.696 484.03 585.839 484.12 586.14 484.12V485.12L585.952 485.112C585.099 485.043 584.553 484.497 584.483 483.644L584.476 483.456ZM597.787 466.2V467.2H578.972V466.2H597.787Z" fill="#FFEDD1"/>
<path d="M529.84 509.056V470.144C529.84 469.021 530.173 468.005 530.909 467.269C531.645 466.533 532.662 466.2 533.784 466.2V467.2L533.445 467.213C531.796 467.339 530.84 468.404 530.84 470.144V509.056C530.84 510.796 531.74 511.861 533.435 511.987L533.784 512H552.6C554.456 512 555.544 510.976 555.544 509.056V507.2C555.544 505.344 554.52 504.256 552.6 504.256V503.256C553.746 503.256 554.771 503.585 555.505 504.331C556.236 505.074 556.544 506.094 556.544 507.2V509.056C556.544 510.202 556.216 511.227 555.47 511.961C554.726 512.693 553.706 513 552.6 513H533.784C532.638 513 531.613 512.672 530.879 511.926C530.147 511.182 529.84 510.162 529.84 509.056ZM552.6 503.256V504.256H540.952V503.256H552.6ZM539.288 502.592V494.528C539.288 493.568 539.851 492.945 540.765 492.871L540.952 492.864H551.32L551.659 492.852C553.308 492.732 554.264 491.72 554.264 489.92V488.064C554.264 486.325 553.364 485.259 551.67 485.133L551.32 485.12V484.12C552.467 484.12 553.49 484.448 554.225 485.194C554.956 485.938 555.264 486.958 555.264 488.064V489.92C555.264 491.067 554.936 492.091 554.189 492.825C553.446 493.557 552.427 493.864 551.32 493.864H540.952C540.651 493.864 540.509 493.954 540.443 494.02C540.378 494.085 540.288 494.227 540.288 494.528V502.592C540.288 502.939 540.385 503.069 540.433 503.115C540.485 503.166 540.623 503.256 540.952 503.256V504.256L540.765 504.249C539.912 504.186 539.365 503.686 539.296 502.79L539.288 502.592ZM551.32 484.12V485.12H540.952V484.12H551.32ZM539.288 483.456V476.608C539.288 475.648 539.851 475.025 540.765 474.951L540.952 474.944H552.6L552.938 474.932C554.588 474.812 555.544 473.8 555.544 472V470.144C555.544 468.404 554.644 467.339 552.949 467.213L552.6 467.2V466.2C553.746 466.2 554.771 466.528 555.505 467.274C556.236 468.018 556.544 469.037 556.544 470.144V472C556.544 473.146 556.216 474.17 555.47 474.904C554.726 475.636 553.706 475.944 552.6 475.944H540.952C540.652 475.944 540.509 476.033 540.443 476.099C540.378 476.164 540.288 476.307 540.288 476.608V483.456C540.288 483.757 540.378 483.9 540.443 483.965C540.509 484.03 540.651 484.12 540.952 484.12V485.12L540.765 485.112C539.912 485.043 539.365 484.497 539.296 483.644L539.288 483.456ZM552.6 466.2V467.2H533.784V466.2H552.6Z" fill="#FFEDD1"/>
<path d="M513.689 510.336V490.496C513.689 489.217 513.244 488.976 513.201 488.963C513.164 488.951 512.664 488.889 511.935 489.968L511.933 489.97L505.286 499.748C504.853 500.416 504.188 501.015 503.298 501.016C502.405 501.016 501.739 500.413 501.306 499.743V499.742L494.98 490.095V490.096C494.247 489.01 493.741 489.06 493.704 489.07C493.678 489.078 493.226 489.299 493.226 490.624V510.336C493.226 511.031 493.028 511.725 492.519 512.249C492.005 512.778 491.302 513 490.562 513H485.441C484.747 513 484.052 512.802 483.528 512.293C483 511.779 482.777 511.077 482.777 510.336V468.864C482.777 468.141 483.008 467.451 483.519 466.94C484.029 466.43 484.719 466.2 485.441 466.2V467.2L485.254 467.207C484.34 467.281 483.777 467.904 483.777 468.864V510.336C483.777 511.424 484.417 512 485.441 512H490.562L490.76 511.992C491.655 511.923 492.156 511.376 492.219 510.523L492.226 510.336V490.624C492.226 487.744 494.21 487.168 495.81 489.536L502.146 499.2C502.849 500.288 503.745 500.288 504.449 499.2L511.105 489.408C512.705 487.04 514.689 487.68 514.689 490.496V510.336C514.689 511.356 515.252 511.926 516.166 511.993L516.354 512H521.474L521.672 511.993C522.567 511.93 523.068 511.43 523.131 510.534L523.138 510.336L523.01 468.864C523.01 467.904 522.447 467.281 521.533 467.207L521.346 467.2V466.2C522.068 466.2 522.758 466.43 523.269 466.94C523.779 467.451 524.009 468.139 524.01 468.861L524.138 510.333V510.336C524.138 511.049 523.947 511.757 523.421 512.283C522.895 512.809 522.186 513 521.474 513H516.354C515.659 513 514.964 512.802 514.44 512.293C513.912 511.779 513.689 511.077 513.689 510.336ZM515.842 467.2L515.677 467.204C514.866 467.242 514.277 467.568 513.857 468.288L505.346 481.92L505.23 482.1C504.061 483.837 502.472 483.725 501.359 482.03L501.249 481.856L492.93 468.288C492.51 467.568 491.921 467.242 491.11 467.204L490.945 467.2V466.2C491.512 466.2 492.068 466.302 492.578 466.575C493.088 466.849 493.481 467.258 493.781 467.766H493.782L502.102 481.333L502.107 481.342C502.594 482.152 503.056 482.344 503.307 482.353C503.535 482.36 503.986 482.225 504.493 481.397L504.497 481.391L513.01 467.759C513.309 467.254 513.702 466.847 514.209 466.575C514.719 466.302 515.276 466.2 515.842 466.2V467.2ZM521.346 466.2V467.2H515.842V466.2H521.346ZM490.945 466.2V467.2H485.441V466.2H490.945Z" fill="#FFEDD1"/>
<path d="M458.412 466.2C459.369 466.2 460.264 466.384 461.033 466.879C461.804 467.374 462.347 468.116 462.724 469.049H462.725L479.364 508.152L479.37 508.168C479.853 509.356 479.928 510.596 479.292 511.582C478.649 512.579 477.486 513 476.204 513H473.324C472.352 513 471.443 512.793 470.665 512.285C469.883 511.775 469.319 511.017 468.94 510.067L467.531 506.548L467.525 506.53L467.519 506.513C467.417 506.228 467.297 506.104 467.196 506.038C467.084 505.966 466.891 505.896 466.54 505.896H450.029C449.678 505.896 449.484 505.966 449.373 506.038C449.272 506.104 449.152 506.228 449.05 506.513L449.042 506.532L447.698 510.053C447.351 510.977 446.804 511.734 446.036 512.253C445.27 512.771 444.36 513 443.372 513H440.428C439.162 513 437.991 512.607 437.324 511.64C436.653 510.666 436.712 509.428 437.197 508.231L452.876 469.132L452.881 469.119L453.03 468.789C453.394 468.036 453.889 467.405 454.551 466.951C455.31 466.431 456.206 466.2 457.196 466.2V467.2L456.891 467.209C455.398 467.299 454.404 468.064 453.804 469.504L438.124 508.608C437.293 510.656 438.252 512 440.428 512H443.372L443.678 511.991C445.178 511.901 446.224 511.136 446.764 509.696L448.109 506.176C448.409 505.336 448.989 504.946 449.852 504.9L450.029 504.896H466.54C467.5 504.896 468.14 505.28 468.46 506.176L469.868 509.696C470.468 511.196 471.518 511.909 473.018 511.992L473.324 512H476.204L476.405 511.996C478.369 511.914 479.196 510.616 478.517 508.734L478.445 508.544L461.804 469.44C461.204 467.94 460.21 467.284 458.717 467.208L458.412 467.2V466.2ZM462.828 496.216V497.216H453.357V496.216H462.828ZM456.812 483.072C457.324 481.664 458.476 481.728 459.052 483.072L464.109 495.296C464.557 496.448 464.044 497.216 462.828 497.216V496.216C463.121 496.216 463.229 496.152 463.258 496.13C463.269 496.093 463.292 495.957 463.176 495.658H463.175L458.133 483.466C458.053 483.278 457.97 483.164 457.91 483.099C457.867 483.159 457.809 483.258 457.752 483.414L457.744 483.434L453.009 495.657L453.008 495.658C452.892 495.956 452.914 496.092 452.925 496.13C452.953 496.152 453.061 496.216 453.357 496.216V497.216L453.137 497.207C452.151 497.124 451.715 496.472 452.003 495.508L452.076 495.296L456.812 483.072ZM458.412 466.2V467.2H457.196V466.2H458.412Z" fill="#FFEDD1"/>
<path d="M392.92 489.6C392.92 476.376 402.969 465.496 415.552 465.496C422.458 465.496 428.646 468.842 432.787 474.025L433.182 474.533L433.188 474.541C433.968 475.595 434.249 476.783 433.795 477.873C433.357 478.923 432.353 479.599 431.19 479.937L428.976 480.632L428.977 480.633C428.005 480.944 427.095 480.962 426.229 480.666C425.389 480.379 424.685 479.827 424.052 479.161L423.628 478.746C421.465 476.716 418.63 475.432 415.68 475.432C409.064 475.432 403.304 482.016 403.304 489.664C403.304 497.32 409.013 503.896 416.768 503.896V504.896L416.377 504.891C408.325 504.677 402.492 497.886 402.309 490.044L402.304 489.664C402.304 481.6 408.384 474.432 415.68 474.432C419.136 474.432 422.4 476.032 424.768 478.464C425.92 479.68 427.072 480.192 428.672 479.68L430.912 478.976C432.896 478.4 433.664 476.864 432.384 475.136C428.54 470.052 422.714 466.71 416.186 466.506L415.552 466.496C403.584 466.496 393.92 476.864 393.92 489.6C393.92 502.4 403.584 512.767 416.512 512.768C427.978 512.768 436.715 504.148 436.985 497.469L436.992 497.152C436.992 488.992 437.667 488.369 434.64 488.323L433.984 488.32V487.32C434.864 487.32 435.71 487.317 436.354 487.524C436.719 487.642 437.068 487.839 437.351 488.164C437.625 488.48 437.78 488.853 437.874 489.229C438.051 489.937 438.065 490.904 438.053 492.11C438.039 493.373 437.992 494.979 437.992 497.152C437.992 500.915 435.556 505.074 431.762 508.247C427.935 511.447 422.592 513.768 416.512 513.768C402.995 513.767 392.92 502.915 392.92 489.6ZM415 493.12V491.264C415 490.117 415.328 489.094 416.074 488.359C416.818 487.628 417.838 487.32 418.944 487.32V488.32L418.605 488.332C416.957 488.451 416 489.464 416 491.264V493.12L416.012 493.459C416.123 494.998 417.013 495.934 418.595 496.052L418.944 496.064H427.328C428.544 496.065 429.184 496.832 428.672 497.984C427.008 501.568 423.423 504.896 416.768 504.896V503.896C423.004 503.896 426.248 500.822 427.761 497.57C427.839 497.392 427.851 497.28 427.85 497.228C427.849 497.202 427.845 497.19 427.844 497.188V497.186C427.843 497.185 427.842 497.184 427.84 497.182C427.837 497.179 427.833 497.176 427.826 497.171C427.813 497.161 427.789 497.145 427.749 497.129C427.667 497.096 427.53 497.064 427.328 497.064H418.944C417.798 497.064 416.773 496.735 416.039 495.989C415.308 495.246 415 494.227 415 493.12ZM433.984 487.32V488.32H418.944V487.32H433.984Z" fill="#FFEDD1"/>
</svg>
